solid OpenSCAD_Model
  facet normal 0 0 -1
    outer loop
      vertex -12.071173518896103 -9.285409323871136 0
      vertex -12.374247521162033 -8.338606409728527 0
      vertex -3.0209362357854843 -7.935123339295387 0
    endloop
  endfacet
  facet normal -0.9523957996428536 -0.3048642990293377 0
    outer loop
      vertex -12.071173518896103 -9.285409323871136 0
      vertex -12.374247521162033 -8.338606409728527 2
      vertex -12.374247521162033 -8.338606409728527 0
    endloop
  endfacet
  facet normal -0.9044551459004193 -0.42656873895569436 0
    outer loop
      vertex -12.071173518896103 -9.285409323871136 0
      vertex -11.647109776735306 -10.184553116559982 0
      vertex -12.071173518896103 -9.285409323871136 2
    endloop
  endfacet
  facet normal -0.8410390109048999 -0.5409744745698339 0
    outer loop
      vertex -11.647109776735306 -10.184553116559982 0
      vertex -11.109312139451504 -11.020653180778027 0
      vertex -11.647109776735306 -10.184553116559982 2
    endloop
  endfacet
  facet normal -0.7632324689633486 -0.6461239806106188 0
    outer loop
      vertex -11.109312139451504 -11.020653180778027 0
      vertex -10.46698248386383 -11.779403612017632 0
      vertex -11.109312139451504 -11.020653180778027 2
    endloop
  endfacet
  facet normal -0.6723668061001014 -0.7402181286990671 0
    outer loop
      vertex -10.46698248386383 -11.779403612017632 0
      vertex -9.731111235916615 -12.447821989655495 0
      vertex -10.46698248386383 -11.779403612017632 2
    endloop
  endfacet
  facet normal -0.5699967664336972 -0.8216469352800686 0
    outer loop
      vertex -8.914289370179176 -13.014471486210823 0
      vertex -9.731111235916615 -12.447821989655495 2
      vertex -9.731111235916615 -12.447821989655495 0
    endloop
  endfacet
  facet normal 0 0 -1
    outer loop
      vertex -12.374247521162033 -8.338606409728527 0
      vertex -12.551146104931831 -7.360344424843788 0
      vertex -3.3705313578248024 -6.978422231972218 0
    endloop
  endfacet
  facet normal 0 0 -1
    outer loop
      vertex -12.551146104931831 -7.360344424843788 0
      vertex -12.598842486739159 -6.367361709475517 0
      vertex -3.3364763632416725 -6.4287257343530655 0
    endloop
  endfacet
  facet normal -0.9840406976833777 -0.17794354526874895 0
    outer loop
      vertex -12.374247521162033 -8.338606409728527 0
      vertex -12.551146104931831 -7.360344424843788 2
      vertex -12.551146104931831 -7.360344424843788 0
    endloop
  endfacet
  facet normal -0.998848386404257 -0.04797813020129082 0
    outer loop
      vertex -12.551146104931831 -7.360344424843788 0
      vertex -12.598842486739159 -6.367361709475517 2
      vertex -12.598842486739159 -6.367361709475517 0
    endloop
  endfacet
  facet normal -0.9965655020263658 0.0828082131852732 0
    outer loop
      vertex -12.598842486739159 -6.367361709475517 0
      vertex -12.51652055978775 -5.376648478209972 2
      vertex -12.51652055978775 -5.376648478209972 0
    endloop
  endfacet
  facet normal -0.9772311062195027 0.21217767327644757 0
    outer loop
      vertex -12.51652055978775 -5.376648478209972 0
      vertex -12.305588886141777 -4.405156098306179 2
      vertex -12.305588886141777 -4.405156098306179 0
    endloop
  endfacet
  facet normal 0 0 -1
    outer loop
      vertex -11.647109776735306 -10.184553116559982 0
      vertex 1.969656564295292 -9.530492924153805 0
      vertex -11.109312139451504 -11.020653180778027 0
    endloop
  endfacet
  facet normal 0 0 -1
    outer loop
      vertex -12.071173518896103 -9.285409323871136 0
      vertex 2.305588886141777 -8.594843901693821 0
      vertex -11.647109776735306 -10.184553116559982 0
    endloop
  endfacet
  facet normal 0 0 -1
    outer loop
      vertex -8.914289370179176 -13.014471486210823 0
      vertex -9.731111235916615 -12.447821989655495 0
      vertex 0.27940361201763153 -11.96698248386383 0
    endloop
  endfacet
  facet normal 0 0 -1
    outer loop
      vertex -10.46698248386383 -11.779403612017632 0
      vertex 0.9478219896554947 -11.231111235916615 0
      vertex -9.731111235916615 -12.447821989655495 0
    endloop
  endfacet
  facet normal 0 0 -1
    outer loop
      vertex -8.030492924153805 -13.469656564295292 0
      vertex -1.3154468834400177 -13.147109776735306 0
      vertex -7.094843901693821 -13.805588886141777 0
    endloop
  endfacet
  facet normal 0 0 -1
    outer loop
      vertex -8.914289370179176 -13.014471486210823 0
      vertex -0.4793468192219734 -12.609312139451504 0
      vertex -8.030492924153805 -13.469656564295292 0
    endloop
  endfacet
  facet normal 0 0 -1
    outer loop
      vertex -7.094843901693821 -13.805588886141777 0
      vertex -2.2145906761288643 -13.571173518896103 0
      vertex -6.123351521790028 -14.01652055978775 0
    endloop
  endfacet
  facet normal 0 0 -1
    outer loop
      vertex -11.109312139451504 -11.020653180778027 0
      vertex 1.514471486210823 -10.414289370179176 0
      vertex -10.46698248386383 -11.779403612017632 0
    endloop
  endfacet
  facet normal 0 0 -1
    outer loop
      vertex -12.071173518896103 -9.285409323871136 0
      vertex -2.89933267980814 -8.102946601808071 0
      vertex -2.7647117525339127 -8.255823537707329 0
    endloop
  endfacet
  facet normal 0 0 -1
    outer loop
      vertex -12.071173518896103 -9.285409323871136 0
      vertex -2.6193768605589867 -8.39113837480545 0
      vertex -2.4658147245645523 -8.506575845181942 0
    endloop
  endfacet
  facet normal 0 0 -1
    outer loop
      vertex -12.071173518896103 -9.285409323871136 0
      vertex -2.7647117525339127 -8.255823537707329 0
      vertex -2.6193768605589867 -8.39113837480545 0
    endloop
  endfacet
  facet normal 0 0 -1
    outer loop
      vertex -12.071173518896103 -9.285409323871136 0
      vertex -2.3066528365015984 -8.600160762667656 0
      vertex -2.1446144953370094 -8.670291885733604 0
    endloop
  endfacet
  facet normal 0 0 -1
    outer loop
      vertex -12.071173518896103 -9.285409323871136 0
      vertex -2.4658147245645523 -8.506575845181942 0
      vertex -2.3066528365015984 -8.600160762667656 0
    endloop
  endfacet
  facet normal 0 0 -1
    outer loop
      vertex -12.071173518896103 -9.285409323871136 0
      vertex -2.1446144953370094 -8.670291885733604 0
      vertex -1.9824722334742546 -8.715769238770008 0
    endloop
  endfacet
  facet normal 0 0 -1
    outer loop
      vertex -12.071173518896103 -9.285409323871136 0
      vertex -1.9824722334742546 -8.715769238770008 0
      vertex -1.8230003342032433 -8.735814690589905 0
    endloop
  endfacet
  facet normal 0 0 -1
    outer loop
      vertex -12.071173518896103 -9.285409323871136 0
      vertex -1.8230003342032433 -8.735814690589905 0
      vertex -1.6689274162054062 -8.730085261166096 0
    endloop
  endfacet
  facet normal -0.45787391337986416 -0.8890171423803979 0
    outer loop
      vertex -8.914289370179176 -13.014471486210823 0
      vertex -8.030492924153805 -13.469656564295292 0
      vertex -8.914289370179176 -13.014471486210823 2
    endloop
  endfacet
  facet normal -0.3379167153511385 -0.9411760162086036 0
    outer loop
      vertex -8.030492924153805 -13.469656564295292 0
      vertex -7.094843901693821 -13.805588886141777 0
      vertex -8.030492924153805 -13.469656564295292 2
    endloop
  endfacet
  facet normal -0.21217767327644757 -0.9772311062195027 0
    outer loop
      vertex -7.094843901693821 -13.805588886141777 0
      vertex -6.123351521790028 -14.01652055978775 0
      vertex -7.094843901693821 -13.805588886141777 2
    endloop
  endfacet
  facet normal -0.0828082131852732 -0.9965655020263658 0
    outer loop
      vertex -6.123351521790028 -14.01652055978775 0
      vertex -5.132638290524483 -14.098842486739159 0
      vertex -6.123351521790028 -14.01652055978775 2
    endloop
  endfacet
  facet normal 0 0 -1
    outer loop
      vertex -12.598842486739159 -6.367361709475517 0
      vertex -12.51652055978775 -5.376648478209972 0
      vertex 2.374247521162033 -4.661393590271473 0
    endloop
  endfacet
  facet normal 0 0 -1
    outer loop
      vertex -12.51652055978775 -5.376648478209972 0
      vertex -12.305588886141777 -4.405156098306179 0
      vertex 2.071173518896103 -3.7145906761288643 0
    endloop
  endfacet
  facet normal 0 0 -1
    outer loop
      vertex -12.374247521162033 -8.338606409728527 0
      vertex -3.21702691167593 -7.5663304179906845 0
      vertex -3.1274417638778687 -7.755225241184235 0
    endloop
  endfacet
  facet normal 0 0 -1
    outer loop
      vertex -12.071173518896103 -9.285409323871136 0
      vertex -3.0209362357854843 -7.935123339295387 0
      vertex -2.89933267980814 -8.102946601808071 0
    endloop
  endfacet
  facet normal 0 0 -1
    outer loop
      vertex -12.374247521162033 -8.338606409728527 0
      vertex -3.1274417638778687 -7.755225241184235 0
      vertex -3.0209362357854843 -7.935123339295387 0
    endloop
  endfacet
  facet normal 0 0 -1
    outer loop
      vertex -12.374247521162033 -8.338606409728527 0
      vertex -3.339620515704155 -7.174577414989471 0
      vertex -3.288158856332302 -7.371670916676521 0
    endloop
  endfacet
  facet normal 0 0 -1
    outer loop
      vertex -12.374247521162033 -8.338606409728527 0
      vertex -3.3705313578248024 -6.978422231972218 0
      vertex -3.339620515704155 -7.174577414989471 0
    endloop
  endfacet
  facet normal 0 0 -1
    outer loop
      vertex -12.374247521162033 -8.338606409728527 0
      vertex -3.288158856332302 -7.371670916676521 0
      vertex -3.21702691167593 -7.5663304179906845 0
    endloop
  endfacet
  facet normal 0 0 -1
    outer loop
      vertex -12.551146104931831 -7.360344424843788 0
      vertex -3.380362495779991 -6.7865616381168365 0
      vertex -3.3705313578248024 -6.978422231972218 0
    endloop
  endfacet
  facet normal 0 0 -1
    outer loop
      vertex -12.551146104931831 -7.360344424843788 0
      vertex -3.3689457178115845 -6.602278426289558 0
      vertex -3.380362495779991 -6.7865616381168365 0
    endloop
  endfacet
  facet normal 0 0 -1
    outer loop
      vertex -12.551146104931831 -7.360344424843788 0
      vertex -3.3364763632416725 -6.4287257343530655 0
      vertex -3.3689457178115845 -6.602278426289558 0
    endloop
  endfacet
  facet normal 0 0 -1
    outer loop
      vertex -12.598842486739159 -6.367361709475517 0
      vertex -3.2835099920630455 -6.2688730880618095 0
      vertex -3.3364763632416725 -6.4287257343530655 0
    endloop
  endfacet
  facet normal 0 0 -1
    outer loop
      vertex -12.598842486739159 -6.367361709475517 0
      vertex -3.2109528705477715 -6.125455617904663 0
      vertex -3.2835099920630455 -6.2688730880618095 0
    endloop
  endfacet
  facet normal 0 0 -1
    outer loop
      vertex -12.598842486739159 -6.367361709475517 0
      vertex -3.120046481490135 -6.000927239656448 0
      vertex -3.2109528705477715 -6.125455617904663 0
    endloop
  endfacet
  facet normal 0 0 -1
    outer loop
      vertex -12.598842486739159 -6.367361709475517 0
      vertex -3.012346252799034 -5.8974186554551125 0
      vertex -3.120046481490135 -6.000927239656448 0
    endloop
  endfacet
  facet normal 0 0 -1
    outer loop
      vertex -12.598842486739159 -6.367361709475517 0
      vertex -2.889694958925247 -5.81670094281435 0
      vertex -3.012346252799034 -5.8974186554551125 0
    endloop
  endfacet
  facet normal 0 0 -1
    outer loop
      vertex -12.598842486739159 -6.367361709475517 0
      vertex -2.75419120490551 -5.760155186057091 0
      vertex -2.889694958925247 -5.81670094281435 0
    endloop
  endfacet
  facet normal 0 0 -1
    outer loop
      vertex -12.598842486739159 -6.367361709475517 0
      vertex -2.608153499662876 -5.72874891012907 0
      vertex -2.75419120490551 -5.760155186057091 0
    endloop
  endfacet
  facet normal -0.9523957996428536 -0.3048642990293377 0
    outer loop
      vertex -12.071173518896103 -9.285409323871136 0
      vertex -12.071173518896103 -9.285409323871136 2
      vertex -12.374247521162033 -8.338606409728527 2
    endloop
  endfacet
  facet normal -0.9044551459004193 -0.42656873895569436 0
    outer loop
      vertex -11.647109776735306 -10.184553116559982 0
      vertex -11.647109776735306 -10.184553116559982 2
      vertex -12.071173518896103 -9.285409323871136 2
    endloop
  endfacet
  facet normal -0.8410390109048999 -0.5409744745698339 0
    outer loop
      vertex -11.109312139451504 -11.020653180778027 0
      vertex -11.109312139451504 -11.020653180778027 2
      vertex -11.647109776735306 -10.184553116559982 2
    endloop
  endfacet
  facet normal -0.7632324689633486 -0.6461239806106188 0
    outer loop
      vertex -10.46698248386383 -11.779403612017632 0
      vertex -10.46698248386383 -11.779403612017632 2
      vertex -11.109312139451504 -11.020653180778027 2
    endloop
  endfacet
  facet normal -0.6723668061001014 -0.7402181286990671 0
    outer loop
      vertex -9.731111235916615 -12.447821989655495 0
      vertex -9.731111235916615 -12.447821989655495 2
      vertex -10.46698248386383 -11.779403612017632 2
    endloop
  endfacet
  facet normal -0.5699967664336972 -0.8216469352800686 0
    outer loop
      vertex -8.914289370179176 -13.014471486210823 0
      vertex -8.914289370179176 -13.014471486210823 2
      vertex -9.731111235916615 -12.447821989655495 2
    endloop
  endfacet
  facet normal -0.9840406976833777 -0.17794354526874895 0
    outer loop
      vertex -12.374247521162033 -8.338606409728527 0
      vertex -12.374247521162033 -8.338606409728527 2
      vertex -12.551146104931831 -7.360344424843788 2
    endloop
  endfacet
  facet normal -0.998848386404257 -0.04797813020129082 0
    outer loop
      vertex -12.551146104931831 -7.360344424843788 0
      vertex -12.551146104931831 -7.360344424843788 2
      vertex -12.598842486739159 -6.367361709475517 2
    endloop
  endfacet
  facet normal -0.9965655020263658 0.0828082131852732 0
    outer loop
      vertex -12.598842486739159 -6.367361709475517 0
      vertex -12.598842486739159 -6.367361709475517 2
      vertex -12.51652055978775 -5.376648478209972 2
    endloop
  endfacet
  facet normal -0.9772311062195027 0.21217767327644757 0
    outer loop
      vertex -12.51652055978775 -5.376648478209972 0
      vertex -12.51652055978775 -5.376648478209972 2
      vertex -12.305588886141777 -4.405156098306179 2
    endloop
  endfacet
  facet normal 0 0 1
    outer loop
      vertex -12.374247521162033 -8.338606409728527 2
      vertex -3.380362495779991 -6.7865616381168365 2
      vertex -12.551146104931831 -7.360344424843788 2
    endloop
  endfacet
  facet normal 0 0 1
    outer loop
      vertex -12.071173518896103 -9.285409323871136 2
      vertex -3.1274417638778687 -7.755225241184235 2
      vertex -12.374247521162033 -8.338606409728527 2
    endloop
  endfacet
  facet normal 0 0 1
    outer loop
      vertex -12.551146104931831 -7.360344424843788 2
      vertex -3.2835099920630455 -6.2688730880618095 2
      vertex -12.598842486739159 -6.367361709475517 2
    endloop
  endfacet
  facet normal -0.45787391337986416 -0.8890171423803979 0
    outer loop
      vertex -8.030492924153805 -13.469656564295292 0
      vertex -8.030492924153805 -13.469656564295292 2
      vertex -8.914289370179176 -13.014471486210823 2
    endloop
  endfacet
  facet normal -0.3379167153511385 -0.9411760162086036 0
    outer loop
      vertex -7.094843901693821 -13.805588886141777 0
      vertex -7.094843901693821 -13.805588886141777 2
      vertex -8.030492924153805 -13.469656564295292 2
    endloop
  endfacet
  facet normal -0.21217767327644757 -0.9772311062195027 0
    outer loop
      vertex -6.123351521790028 -14.01652055978775 0
      vertex -6.123351521790028 -14.01652055978775 2
      vertex -7.094843901693821 -13.805588886141777 2
    endloop
  endfacet
  facet normal -0.0828082131852732 -0.9965655020263658 0
    outer loop
      vertex -5.132638290524483 -14.098842486739159 0
      vertex -5.132638290524483 -14.098842486739159 2
      vertex -6.123351521790028 -14.01652055978775 2
    endloop
  endfacet
  facet normal 0 0 1
    outer loop
      vertex -11.647109776735306 -10.184553116559982 2
      vertex -11.109312139451504 -11.020653180778027 2
      vertex 1.969656564295292 -9.530492924153805 2
    endloop
  endfacet
  facet normal 0 0 1
    outer loop
      vertex -12.071173518896103 -9.285409323871136 2
      vertex -11.647109776735306 -10.184553116559982 2
      vertex 2.305588886141777 -8.594843901693821 2
    endloop
  endfacet
  facet normal 0 0 1
    outer loop
      vertex -8.914289370179176 -13.014471486210823 2
      vertex 0.27940361201763153 -11.96698248386383 2
      vertex -9.731111235916615 -12.447821989655495 2
    endloop
  endfacet
  facet normal 0 0 1
    outer loop
      vertex -10.46698248386383 -11.779403612017632 2
      vertex -9.731111235916615 -12.447821989655495 2
      vertex 0.9478219896554947 -11.231111235916615 2
    endloop
  endfacet
  facet normal 0 0 1
    outer loop
      vertex -8.030492924153805 -13.469656564295292 2
      vertex -7.094843901693821 -13.805588886141777 2
      vertex -1.3154468834400177 -13.147109776735306 2
    endloop
  endfacet
  facet normal 0 0 1
    outer loop
      vertex -8.914289370179176 -13.014471486210823 2
      vertex -8.030492924153805 -13.469656564295292 2
      vertex -0.4793468192219734 -12.609312139451504 2
    endloop
  endfacet
  facet normal 0 0 1
    outer loop
      vertex -7.094843901693821 -13.805588886141777 2
      vertex -6.123351521790028 -14.01652055978775 2
      vertex -2.2145906761288643 -13.571173518896103 2
    endloop
  endfacet
  facet normal 0 0 1
    outer loop
      vertex -11.109312139451504 -11.020653180778027 2
      vertex -10.46698248386383 -11.779403612017632 2
      vertex 1.514471486210823 -10.414289370179176 2
    endloop
  endfacet
  facet normal 0 0 1
    outer loop
      vertex -12.071173518896103 -9.285409323871136 2
      vertex -2.7647117525339127 -8.255823537707329 2
      vertex -2.89933267980814 -8.102946601808071 2
    endloop
  endfacet
  facet normal 0 0 1
    outer loop
      vertex -12.071173518896103 -9.285409323871136 2
      vertex -2.4658147245645523 -8.506575845181942 2
      vertex -2.6193768605589867 -8.39113837480545 2
    endloop
  endfacet
  facet normal 0 0 1
    outer loop
      vertex -12.071173518896103 -9.285409323871136 2
      vertex -2.6193768605589867 -8.39113837480545 2
      vertex -2.7647117525339127 -8.255823537707329 2
    endloop
  endfacet
  facet normal 0 0 1
    outer loop
      vertex -12.071173518896103 -9.285409323871136 2
      vertex -2.1446144953370094 -8.670291885733604 2
      vertex -2.3066528365015984 -8.600160762667656 2
    endloop
  endfacet
  facet normal 0 0 1
    outer loop
      vertex -12.071173518896103 -9.285409323871136 2
      vertex -2.3066528365015984 -8.600160762667656 2
      vertex -2.4658147245645523 -8.506575845181942 2
    endloop
  endfacet
  facet normal 0 0 1
    outer loop
      vertex -12.071173518896103 -9.285409323871136 2
      vertex -1.9824722334742546 -8.715769238770008 2
      vertex -2.1446144953370094 -8.670291885733604 2
    endloop
  endfacet
  facet normal 0 0 1
    outer loop
      vertex -12.071173518896103 -9.285409323871136 2
      vertex -1.8230003342032433 -8.735814690589905 2
      vertex -1.9824722334742546 -8.715769238770008 2
    endloop
  endfacet
  facet normal 0 0 1
    outer loop
      vertex -12.598842486739159 -6.367361709475517 2
      vertex 2.374247521162033 -4.661393590271473 2
      vertex -12.51652055978775 -5.376648478209972 2
    endloop
  endfacet
  facet normal 0 0 1
    outer loop
      vertex -12.51652055978775 -5.376648478209972 2
      vertex 2.071173518896103 -3.7145906761288643 2
      vertex -12.305588886141777 -4.405156098306179 2
    endloop
  endfacet
  facet normal 0 0 1
    outer loop
      vertex -12.374247521162033 -8.338606409728527 2
      vertex -3.1274417638778687 -7.755225241184235 2
      vertex -3.21702691167593 -7.5663304179906845 2
    endloop
  endfacet
  facet normal 0 0 1
    outer loop
      vertex -12.071173518896103 -9.285409323871136 2
      vertex -3.0209362357854843 -7.935123339295387 2
      vertex -3.1274417638778687 -7.755225241184235 2
    endloop
  endfacet
  facet normal 0 0 1
    outer loop
      vertex -12.071173518896103 -9.285409323871136 2
      vertex -2.89933267980814 -8.102946601808071 2
      vertex -3.0209362357854843 -7.935123339295387 2
    endloop
  endfacet
  facet normal 0 0 1
    outer loop
      vertex -12.374247521162033 -8.338606409728527 2
      vertex -3.288158856332302 -7.371670916676521 2
      vertex -3.339620515704155 -7.174577414989471 2
    endloop
  endfacet
  facet normal 0 0 1
    outer loop
      vertex -12.374247521162033 -8.338606409728527 2
      vertex -3.339620515704155 -7.174577414989471 2
      vertex -3.3705313578248024 -6.978422231972218 2
    endloop
  endfacet
  facet normal 0 0 1
    outer loop
      vertex -12.374247521162033 -8.338606409728527 2
      vertex -3.21702691167593 -7.5663304179906845 2
      vertex -3.288158856332302 -7.371670916676521 2
    endloop
  endfacet
  facet normal 0 0 1
    outer loop
      vertex -12.374247521162033 -8.338606409728527 2
      vertex -3.3705313578248024 -6.978422231972218 2
      vertex -3.380362495779991 -6.7865616381168365 2
    endloop
  endfacet
  facet normal 0 0 1
    outer loop
      vertex -12.551146104931831 -7.360344424843788 2
      vertex -3.380362495779991 -6.7865616381168365 2
      vertex -3.3689457178115845 -6.602278426289558 2
    endloop
  endfacet
  facet normal 0 0 1
    outer loop
      vertex -12.551146104931831 -7.360344424843788 2
      vertex -3.3689457178115845 -6.602278426289558 2
      vertex -3.3364763632416725 -6.4287257343530655 2
    endloop
  endfacet
  facet normal 0 0 1
    outer loop
      vertex -12.551146104931831 -7.360344424843788 2
      vertex -3.3364763632416725 -6.4287257343530655 2
      vertex -3.2835099920630455 -6.2688730880618095 2
    endloop
  endfacet
  facet normal 0 0 1
    outer loop
      vertex -12.598842486739159 -6.367361709475517 2
      vertex -3.2835099920630455 -6.2688730880618095 2
      vertex -3.2109528705477715 -6.125455617904663 2
    endloop
  endfacet
  facet normal 0 0 1
    outer loop
      vertex -12.598842486739159 -6.367361709475517 2
      vertex -3.2109528705477715 -6.125455617904663 2
      vertex -3.120046481490135 -6.000927239656448 2
    endloop
  endfacet
  facet normal 0 0 1
    outer loop
      vertex -12.598842486739159 -6.367361709475517 2
      vertex -3.120046481490135 -6.000927239656448 2
      vertex -3.012346252799034 -5.8974186554551125 2
    endloop
  endfacet
  facet normal 0 0 1
    outer loop
      vertex -12.598842486739159 -6.367361709475517 2
      vertex -3.012346252799034 -5.8974186554551125 2
      vertex -2.889694958925247 -5.81670094281435 2
    endloop
  endfacet
  facet normal 0 0 1
    outer loop
      vertex -12.598842486739159 -6.367361709475517 2
      vertex -2.889694958925247 -5.81670094281435 2
      vertex -2.75419120490551 -5.760155186057091 2
    endloop
  endfacet
  facet normal 0 0 1
    outer loop
      vertex -12.598842486739159 -6.367361709475517 2
      vertex -2.75419120490551 -5.760155186057091 2
      vertex -2.608153499662876 -5.72874891012907 2
    endloop
  endfacet
  facet normal -0.9745147846709582 0.22432328113175393 3.1867792042849396e-17
    outer loop
      vertex -12.305588886141777 -4.405156098306179 0
      vertex -9.570316076278687 7.477532938122749 2
      vertex -9.570316076278687 7.477532938122749 0
    endloop
  endfacet
  facet normal -0.9411760073764525 0.33791673995071625 0
    outer loop
      vertex -9.570316076278687 7.477532938122749 0
      vertex -9.516566902399063 7.6272367760539055 2
      vertex -9.516566902399063 7.6272367760539055 0
    endloop
  endfacet
  facet normal -0.8890171529174046 0.457873892921001 0
    outer loop
      vertex -9.516566902399063 7.6272367760539055 0
      vertex -9.443737290799618 7.768644213676453 2
      vertex -9.443737290799618 7.768644213676453 0
    endloop
  endfacet
  facet normal -0.8216469414225477 0.5699967575793503 0
    outer loop
      vertex -9.443737290799618 7.768644213676453 0
      vertex -9.353073373436928 7.899335712194443 2
      vertex -9.353073373436928 7.899335712194443 0
    endloop
  endfacet
  facet normal -0.740218098532288 0.6723668393111337 0
    outer loop
      vertex -9.353073373436928 7.899335712194443 0
      vertex -9.246126428246498 8.01707510650158 2
      vertex -9.246126428246498 8.01707510650158 0
    endloop
  endfacet
  facet normal -0.6461240093289125 0.7632324446515174 0
    outer loop
      vertex -9.246126428246498 8.01707510650158 0
      vertex -9.124726362526417 8.119847856462002 2
      vertex -9.124726362526417 8.119847856462002 0
    endloop
  endfacet
  facet normal -0.5409744673771794 0.8410390155313707 0
    outer loop
      vertex -9.124726362526417 8.119847856462002 0
      vertex -8.990950353443623 8.205895476043224 2
      vertex -8.990950353443623 8.205895476043224 0
    endloop
  endfacet
  facet normal -0.4265687175846155 0.9044551559796742 0
    outer loop
      vertex -8.990950353443623 8.205895476043224 0
      vertex -8.84708734601736 8.27374567091465 2
      vertex -8.84708734601736 8.27374567091465 0
    endloop
  endfacet
  facet normal 0 0 -1
    outer loop
      vertex -12.305588886141777 -4.405156098306179 0
      vertex -9.570316076278687 7.477532938122749 0
      vertex 1.6471097767353058 -2.8154468834400177 0
    endloop
  endfacet
  facet normal 0 0 -1
    outer loop
      vertex -9.443737290799618 7.768644213676453 0
      vertex -9.353073373436928 7.899335712194443 0
      vertex -7.526704654097557 7.987062491476536 0
    endloop
  endfacet
  facet normal 0 0 -1
    outer loop
      vertex -9.353073373436928 7.899335712194443 0
      vertex -9.246126428246498 8.01707510650158 0
      vertex -7.644444055855274 8.094009429216385 0
    endloop
  endfacet
  facet normal 0 0 -1
    outer loop
      vertex -9.246126428246498 8.01707510650158 0
      vertex -9.124726362526417 8.119847856462002 0
      vertex -7.775135554373264 8.184673346579075 0
    endloop
  endfacet
  facet normal 0 0 -1
    outer loop
      vertex -9.124726362526417 8.119847856462002 0
      vertex -8.990950353443623 8.205895476043224 0
      vertex -7.916542984545231 8.25750295817852 0
    endloop
  endfacet
  facet normal 0 0 -1
    outer loop
      vertex -8.990950353443623 8.205895476043224 0
      vertex -8.84708734601736 8.27374567091465 0
      vertex -8.066246829926968 8.311252132058144 0
    endloop
  endfacet
  facet normal 0 0 -1
    outer loop
      vertex -8.84708734601736 8.27374567091465 0
      vertex -8.695598877966404 8.322237513959408 0
      vertex -8.221685610711575 8.345001198351383 0
    endloop
  endfacet
  facet normal 0 0 -1
    outer loop
      vertex -8.695598877966404 8.322237513959408 0
      vertex -8.539076961576939 8.350541286170483 0
      vertex -8.38019972294569 8.358172707259655 0
    endloop
  endfacet
  facet normal 0 0 -1
    outer loop
      vertex -8.695598877966404 8.322237513959408 0
      vertex -8.38019972294569 8.358172707259655 0
      vertex -8.221685610711575 8.345001198351383 0
    endloop
  endfacet
  facet normal 0 0 -1
    outer loop
      vertex -8.990950353443623 8.205895476043224 0
      vertex -8.066246829926968 8.311252132058144 0
      vertex -7.916542984545231 8.25750295817852 0
    endloop
  endfacet
  facet normal 0 0 -1
    outer loop
      vertex -8.84708734601736 8.27374567091465 0
      vertex -8.221685610711575 8.345001198351383 0
      vertex -8.066246829926968 8.311252132058144 0
    endloop
  endfacet
  facet normal 0 0 -1
    outer loop
      vertex -9.353073373436928 7.899335712194443 0
      vertex -7.644444055855274 8.094009429216385 0
      vertex -7.526704654097557 7.987062491476536 0
    endloop
  endfacet
  facet normal 0 0 -1
    outer loop
      vertex -9.246126428246498 8.01707510650158 0
      vertex -7.775135554373264 8.184673346579075 0
      vertex -7.644444055855274 8.094009429216385 0
    endloop
  endfacet
  facet normal 0 0 -1
    outer loop
      vertex -9.124726362526417 8.119847856462002 0
      vertex -7.916542984545231 8.25750295817852 0
      vertex -7.775135554373264 8.184673346579075 0
    endloop
  endfacet
  facet normal 0 0 -1
    outer loop
      vertex -9.570316076278687 7.477532938122749 0
      vertex -9.516566902399063 7.6272367760539055 0
      vertex 1.1093121394515038 -1.9793468192219734 0
    endloop
  endfacet
  facet normal 0 0 -1
    outer loop
      vertex -9.516566902399063 7.6272367760539055 0
      vertex -9.443737290799618 7.768644213676453 0
      vertex 0.46698248386383057 -1.2205963879823685 0
    endloop
  endfacet
  facet normal 0 0 -1
    outer loop
      vertex -9.443737290799618 7.768644213676453 0
      vertex -7.526704654097557 7.987062491476536 0
      vertex 0.46698248386383057 -1.2205963879823685 0
    endloop
  endfacet
  facet normal -0.30486431106080153 0.9523957957915516 0
    outer loop
      vertex -8.84708734601736 8.27374567091465 0
      vertex -8.695598877966404 8.322237513959408 2
      vertex -8.695598877966404 8.322237513959408 0
    endloop
  endfacet
  facet normal -0.17794353932379559 0.9840406987584003 0
    outer loop
      vertex -8.695598877966404 8.322237513959408 0
      vertex -8.539076961576939 8.350541286170483 2
      vertex -8.539076961576939 8.350541286170483 0
    endloop
  endfacet
  facet normal -0.04797812894422238 0.9988483864646384 0
    outer loop
      vertex -8.539076961576939 8.350541286170483 0
      vertex -8.38019972294569 8.358172707259655 2
      vertex -8.38019972294569 8.358172707259655 0
    endloop
  endfacet
  facet normal 0.08280821938080263 0.9965655015115569 0
    outer loop
      vertex -8.38019972294569 8.358172707259655 0
      vertex -8.221685610711575 8.345001198351383 2
      vertex -8.221685610711575 8.345001198351383 0
    endloop
  endfacet
  facet normal 0.21217766432995963 0.9772311081619757 0
    outer loop
      vertex -8.221685610711575 8.345001198351383 0
      vertex -8.066246829926968 8.311252132058144 2
      vertex -8.066246829926968 8.311252132058144 0
    endloop
  endfacet
  facet normal 0.3379167250533819 0.9411760127251423 0
    outer loop
      vertex -8.066246829926968 8.311252132058144 0
      vertex -7.916542984545231 8.25750295817852 2
      vertex -7.916542984545231 8.25750295817852 0
    endloop
  endfacet
  facet normal 0.45787391198807453 0.8890171430972166 0
    outer loop
      vertex -7.916542984545231 8.25750295817852 0
      vertex -7.775135554373264 8.184673346579075 2
      vertex -7.775135554373264 8.184673346579075 0
    endloop
  endfacet
  facet normal 0.5699967575793503 0.8216469414225477 0
    outer loop
      vertex -7.775135554373264 8.184673346579075 0
      vertex -7.644444055855274 8.094009429216385 2
      vertex -7.644444055855274 8.094009429216385 0
    endloop
  endfacet
  facet normal 0.6723667903329923 0.7402181430209004 0
    outer loop
      vertex -7.644444055855274 8.094009429216385 0
      vertex -7.526704654097557 7.987062491476536 2
      vertex -7.526704654097557 7.987062491476536 0
    endloop
  endfacet
  facet normal -0.9745147846709582 0.22432328113175393 0
    outer loop
      vertex -12.305588886141777 -4.405156098306179 0
      vertex -12.305588886141777 -4.405156098306179 2
      vertex -9.570316076278687 7.477532938122749 2
    endloop
  endfacet
  facet normal -0.9411760073764525 0.33791673995071625 0
    outer loop
      vertex -9.570316076278687 7.477532938122749 0
      vertex -9.570316076278687 7.477532938122749 2
      vertex -9.516566902399063 7.6272367760539055 2
    endloop
  endfacet
  facet normal -0.8890171529174046 0.457873892921001 0
    outer loop
      vertex -9.516566902399063 7.6272367760539055 0
      vertex -9.516566902399063 7.6272367760539055 2
      vertex -9.443737290799618 7.768644213676453 2
    endloop
  endfacet
  facet normal -0.8216469414225477 0.5699967575793503 0
    outer loop
      vertex -9.443737290799618 7.768644213676453 0
      vertex -9.443737290799618 7.768644213676453 2
      vertex -9.353073373436928 7.899335712194443 2
    endloop
  endfacet
  facet normal -0.740218098532288 0.6723668393111337 0
    outer loop
      vertex -9.353073373436928 7.899335712194443 0
      vertex -9.353073373436928 7.899335712194443 2
      vertex -9.246126428246498 8.01707510650158 2
    endloop
  endfacet
  facet normal -0.6461240093289125 0.7632324446515174 0
    outer loop
      vertex -9.246126428246498 8.01707510650158 0
      vertex -9.246126428246498 8.01707510650158 2
      vertex -9.124726362526417 8.119847856462002 2
    endloop
  endfacet
  facet normal -0.5409744673771794 0.8410390155313707 0
    outer loop
      vertex -9.124726362526417 8.119847856462002 0
      vertex -9.124726362526417 8.119847856462002 2
      vertex -8.990950353443623 8.205895476043224 2
    endloop
  endfacet
  facet normal -0.4265687175846155 0.9044551559796742 0
    outer loop
      vertex -8.990950353443623 8.205895476043224 0
      vertex -8.990950353443623 8.205895476043224 2
      vertex -8.84708734601736 8.27374567091465 2
    endloop
  endfacet
  facet normal 0 0 1
    outer loop
      vertex -12.305588886141777 -4.405156098306179 2
      vertex 1.6471097767353058 -2.8154468834400177 2
      vertex -9.570316076278687 7.477532938122749 2
    endloop
  endfacet
  facet normal -0.30486431106080153 0.9523957957915516 0
    outer loop
      vertex -8.84708734601736 8.27374567091465 0
      vertex -8.84708734601736 8.27374567091465 2
      vertex -8.695598877966404 8.322237513959408 2
    endloop
  endfacet
  facet normal -0.17794353932379559 0.9840406987584003 0
    outer loop
      vertex -8.695598877966404 8.322237513959408 0
      vertex -8.695598877966404 8.322237513959408 2
      vertex -8.539076961576939 8.350541286170483 2
    endloop
  endfacet
  facet normal -0.04797812894422238 0.9988483864646384 0
    outer loop
      vertex -8.539076961576939 8.350541286170483 0
      vertex -8.539076961576939 8.350541286170483 2
      vertex -8.38019972294569 8.358172707259655 2
    endloop
  endfacet
  facet normal 0.08280821938080263 0.9965655015115569 0
    outer loop
      vertex -8.38019972294569 8.358172707259655 0
      vertex -8.38019972294569 8.358172707259655 2
      vertex -8.221685610711575 8.345001198351383 2
    endloop
  endfacet
  facet normal 0.21217766432995963 0.9772311081619757 0
    outer loop
      vertex -8.221685610711575 8.345001198351383 0
      vertex -8.221685610711575 8.345001198351383 2
      vertex -8.066246829926968 8.311252132058144 2
    endloop
  endfacet
  facet normal 0.3379167250533819 0.9411760127251423 0
    outer loop
      vertex -8.066246829926968 8.311252132058144 0
      vertex -8.066246829926968 8.311252132058144 2
      vertex -7.916542984545231 8.25750295817852 2
    endloop
  endfacet
  facet normal 0.45787391198807453 0.8890171430972166 0
    outer loop
      vertex -7.916542984545231 8.25750295817852 0
      vertex -7.916542984545231 8.25750295817852 2
      vertex -7.775135554373264 8.184673346579075 2
    endloop
  endfacet
  facet normal 0.5699967575793503 0.8216469414225477 0
    outer loop
      vertex -7.775135554373264 8.184673346579075 0
      vertex -7.775135554373264 8.184673346579075 2
      vertex -7.644444055855274 8.094009429216385 2
    endloop
  endfacet
  facet normal 0.6723667903329923 0.7402181430209004 0
    outer loop
      vertex -7.644444055855274 8.094009429216385 0
      vertex -7.644444055855274 8.094009429216385 2
      vertex -7.526704654097557 7.987062491476536 2
    endloop
  endfacet
  facet normal 0 0 1
    outer loop
      vertex -9.443737290799618 7.768644213676453 2
      vertex -7.526704654097557 7.987062491476536 2
      vertex -9.353073373436928 7.899335712194443 2
    endloop
  endfacet
  facet normal 0 0 1
    outer loop
      vertex -9.353073373436928 7.899335712194443 2
      vertex -7.644444055855274 8.094009429216385 2
      vertex -9.246126428246498 8.01707510650158 2
    endloop
  endfacet
  facet normal 0 0 1
    outer loop
      vertex -9.246126428246498 8.01707510650158 2
      vertex -7.775135554373264 8.184673346579075 2
      vertex -9.124726362526417 8.119847856462002 2
    endloop
  endfacet
  facet normal 0 0 1
    outer loop
      vertex -9.124726362526417 8.119847856462002 2
      vertex -7.916542984545231 8.25750295817852 2
      vertex -8.990950353443623 8.205895476043224 2
    endloop
  endfacet
  facet normal 0 0 1
    outer loop
      vertex -8.990950353443623 8.205895476043224 2
      vertex -8.066246829926968 8.311252132058144 2
      vertex -8.84708734601736 8.27374567091465 2
    endloop
  endfacet
  facet normal 0 0 1
    outer loop
      vertex -8.84708734601736 8.27374567091465 2
      vertex -8.221685610711575 8.345001198351383 2
      vertex -8.695598877966404 8.322237513959408 2
    endloop
  endfacet
  facet normal 0 0 1
    outer loop
      vertex -8.695598877966404 8.322237513959408 2
      vertex -8.38019972294569 8.358172707259655 2
      vertex -8.539076961576939 8.350541286170483 2
    endloop
  endfacet
  facet normal 0 0 1
    outer loop
      vertex -8.695598877966404 8.322237513959408 2
      vertex -8.221685610711575 8.345001198351383 2
      vertex -8.38019972294569 8.358172707259655 2
    endloop
  endfacet
  facet normal 0 0 1
    outer loop
      vertex -8.990950353443623 8.205895476043224 2
      vertex -7.916542984545231 8.25750295817852 2
      vertex -8.066246829926968 8.311252132058144 2
    endloop
  endfacet
  facet normal 0 0 1
    outer loop
      vertex -8.84708734601736 8.27374567091465 2
      vertex -8.066246829926968 8.311252132058144 2
      vertex -8.221685610711575 8.345001198351383 2
    endloop
  endfacet
  facet normal 0 0 1
    outer loop
      vertex -9.353073373436928 7.899335712194443 2
      vertex -7.526704654097557 7.987062491476536 2
      vertex -7.644444055855274 8.094009429216385 2
    endloop
  endfacet
  facet normal 0 0 1
    outer loop
      vertex -9.246126428246498 8.01707510650158 2
      vertex -7.644444055855274 8.094009429216385 2
      vertex -7.775135554373264 8.184673346579075 2
    endloop
  endfacet
  facet normal 0 0 1
    outer loop
      vertex -9.124726362526417 8.119847856462002 2
      vertex -7.775135554373264 8.184673346579075 2
      vertex -7.916542984545231 8.25750295817852 2
    endloop
  endfacet
  facet normal 0 0 1
    outer loop
      vertex -9.570316076278687 7.477532938122749 2
      vertex 1.1093121394515038 -1.9793468192219734 2
      vertex -9.516566902399063 7.6272367760539055 2
    endloop
  endfacet
  facet normal 0 0 1
    outer loop
      vertex -9.516566902399063 7.6272367760539055 2
      vertex 0.46698248386383057 -1.2205963879823685 2
      vertex -9.443737290799618 7.768644213676453 2
    endloop
  endfacet
  facet normal 0 0 1
    outer loop
      vertex -9.443737290799618 7.768644213676453 2
      vertex 0.46698248386383057 -1.2205963879823685 2
      vertex -7.526704654097557 7.987062491476536 2
    endloop
  endfacet
  facet normal 0 0 -1
    outer loop
      vertex -6.123351521790028 -14.01652055978775 0
      vertex -3.161393590271473 -13.874247521162033 0
      vertex -5.132638290524483 -14.098842486739159 0
    endloop
  endfacet
  facet normal 0 0 -1
    outer loop
      vertex -5.132638290524483 -14.098842486739159 0
      vertex -3.161393590271473 -13.874247521162033 0
      vertex -4.139655575156212 -14.051146104931831 0
    endloop
  endfacet
  facet normal 0 0 -1
    outer loop
      vertex -6.123351521790028 -14.01652055978775 0
      vertex -2.2145906761288643 -13.571173518896103 0
      vertex -3.161393590271473 -13.874247521162033 0
    endloop
  endfacet
  facet normal 0 0 -1
    outer loop
      vertex -7.094843901693821 -13.805588886141777 0
      vertex -1.3154468834400177 -13.147109776735306 0
      vertex -2.2145906761288643 -13.571173518896103 0
    endloop
  endfacet
  facet normal 0 0 -1
    outer loop
      vertex -8.030492924153805 -13.469656564295292 0
      vertex -0.4793468192219734 -12.609312139451504 0
      vertex -1.3154468834400177 -13.147109776735306 0
    endloop
  endfacet
  facet normal 0 0 -1
    outer loop
      vertex -12.071173518896103 -9.285409323871136 0
      vertex -1.6689274162054062 -8.730085261166096 0
      vertex 2.305588886141777 -8.594843901693821 0
    endloop
  endfacet
  facet normal 0 0 -1
    outer loop
      vertex -8.914289370179176 -13.014471486210823 0
      vertex 0.27940361201763153 -11.96698248386383 0
      vertex -0.4793468192219734 -12.609312139451504 0
    endloop
  endfacet
  facet normal 0 0 -1
    outer loop
      vertex -9.731111235916615 -12.447821989655495 0
      vertex 0.9478219896554947 -11.231111235916615 0
      vertex 0.27940361201763153 -11.96698248386383 0
    endloop
  endfacet
  facet normal 0 0 -1
    outer loop
      vertex -10.46698248386383 -11.779403612017632 0
      vertex 1.514471486210823 -10.414289370179176 0
      vertex 0.9478219896554947 -11.231111235916615 0
    endloop
  endfacet
  facet normal 0 0 -1
    outer loop
      vertex -11.109312139451504 -11.020653180778027 0
      vertex 1.969656564295292 -9.530492924153805 0
      vertex 1.514471486210823 -10.414289370179176 0
    endloop
  endfacet
  facet normal 0 0 -1
    outer loop
      vertex -11.647109776735306 -10.184553116559982 0
      vertex 2.305588886141777 -8.594843901693821 0
      vertex 1.969656564295292 -9.530492924153805 0
    endloop
  endfacet
  facet normal 0.04797813020129082 -0.998848386404257 0
    outer loop
      vertex -5.132638290524483 -14.098842486739159 0
      vertex -4.139655575156212 -14.051146104931831 0
      vertex -5.132638290524483 -14.098842486739159 2
    endloop
  endfacet
  facet normal 0.17794354526874895 -0.9840406976833777 0
    outer loop
      vertex -4.139655575156212 -14.051146104931831 0
      vertex -3.161393590271473 -13.874247521162033 0
      vertex -4.139655575156212 -14.051146104931831 2
    endloop
  endfacet
  facet normal 0.3048642990293377 -0.9523957996428536 0
    outer loop
      vertex -3.161393590271473 -13.874247521162033 0
      vertex -2.2145906761288643 -13.571173518896103 0
      vertex -3.161393590271473 -13.874247521162033 2
    endloop
  endfacet
  facet normal 0.42656873895569436 -0.9044551459004193 0
    outer loop
      vertex -2.2145906761288643 -13.571173518896103 0
      vertex -1.3154468834400177 -13.147109776735306 0
      vertex -2.2145906761288643 -13.571173518896103 2
    endloop
  endfacet
  facet normal 0 0 -1
    outer loop
      vertex -12.598842486739159 -6.367361709475517 0
      vertex 2.374247521162033 -4.661393590271473 0
      vertex -2.608153499662876 -5.72874891012907 0
    endloop
  endfacet
  facet normal 0 0 -1
    outer loop
      vertex -12.51652055978775 -5.376648478209972 0
      vertex 2.071173518896103 -3.7145906761288643 0
      vertex 2.374247521162033 -4.661393590271473 0
    endloop
  endfacet
  facet normal 0 0 -1
    outer loop
      vertex -12.305588886141777 -4.405156098306179 0
      vertex 1.6471097767353058 -2.8154468834400177 0
      vertex 2.071173518896103 -3.7145906761288643 0
    endloop
  endfacet
  facet normal 0 0 -1
    outer loop
      vertex 2.305588886141777 -8.594843901693821 0
      vertex -1.6689274162054062 -8.730085261166096 0
      vertex -1.5228897109627724 -8.698678992688656 0
    endloop
  endfacet
  facet normal 0 0 -1
    outer loop
      vertex 2.305588886141777 -8.594843901693821 0
      vertex -1.5228897109627724 -8.698678992688656 0
      vertex -1.3873859569430351 -8.642133235931396 0
    endloop
  endfacet
  facet normal 0 0 -1
    outer loop
      vertex 2.305588886141777 -8.594843901693821 0
      vertex -1.3873859569430351 -8.642133235931396 0
      vertex -1.2647346630692482 -8.561415515840054 0
    endloop
  endfacet
  facet normal 0 0 -1
    outer loop
      vertex 2.305588886141777 -8.594843901693821 0
      vertex -1.2647346630692482 -8.561415515840054 0
      vertex -1.1570344343781471 -8.457906939089298 0
    endloop
  endfacet
  facet normal 0.5409744745698339 -0.8410390109048999 0
    outer loop
      vertex -1.3154468834400177 -13.147109776735306 0
      vertex -0.4793468192219734 -12.609312139451504 0
      vertex -1.3154468834400177 -13.147109776735306 2
    endloop
  endfacet
  facet normal 0.6461239806106188 -0.7632324689633486 0
    outer loop
      vertex -0.4793468192219734 -12.609312139451504 0
      vertex 0.27940361201763153 -11.96698248386383 0
      vertex -0.4793468192219734 -12.609312139451504 2
    endloop
  endfacet
  facet normal 0.7402181286990671 -0.6723668061001014 0
    outer loop
      vertex 0.27940361201763153 -11.96698248386383 0
      vertex 0.9478219896554947 -11.231111235916615 0
      vertex 0.27940361201763153 -11.96698248386383 2
    endloop
  endfacet
  facet normal 0.8216469352800686 -0.5699967664336972 0
    outer loop
      vertex 0.9478219896554947 -11.231111235916615 0
      vertex 1.514471486210823 -10.414289370179176 0
      vertex 0.9478219896554947 -11.231111235916615 2
    endloop
  endfacet
  facet normal 0.8890171423803979 -0.45787391337986416 0
    outer loop
      vertex 1.514471486210823 -10.414289370179176 0
      vertex 1.969656564295292 -9.530492924153805 0
      vertex 1.514471486210823 -10.414289370179176 2
    endloop
  endfacet
  facet normal 0.9411760162086036 -0.3379167153511385 0
    outer loop
      vertex 1.969656564295292 -9.530492924153805 0
      vertex 2.305588886141777 -8.594843901693821 0
      vertex 1.969656564295292 -9.530492924153805 2
    endloop
  endfacet
  facet normal 0 0 -1
    outer loop
      vertex 2.5511461049318314 -5.639655575156212 0
      vertex -1.970428079366684 -5.85867340862751 0
      vertex -2.132466420531273 -5.788542293012142 0
    endloop
  endfacet
  facet normal 0 0 -1
    outer loop
      vertex 2.5511461049318314 -5.639655575156212 0
      vertex -1.81126619130373 -5.952258333563805 0
      vertex -1.970428079366684 -5.85867340862751 0
    endloop
  endfacet
  facet normal 0 0 -1
    outer loop
      vertex 2.5511461049318314 -5.639655575156212 0
      vertex -1.6577040553092957 -6.067695796489716 0
      vertex -1.81126619130373 -5.952258333563805 0
    endloop
  endfacet
  facet normal 0 0 -1
    outer loop
      vertex 2.305588886141777 -8.594843901693821 0
      vertex -1.1570344343781471 -8.457906939089298 0
      vertex -1.0661280453205109 -8.333378553390503 0
    endloop
  endfacet
  facet normal 0 0 -1
    outer loop
      vertex 2.305588886141777 -8.594843901693821 0
      vertex -1.0661280453205109 -8.333378553390503 0
      vertex -0.9935709238052368 -8.189961083233356 0
    endloop
  endfacet
  facet normal 0 0 -1
    outer loop
      vertex 2.305588886141777 -8.594843901693821 0
      vertex -0.9935709238052368 -8.189961083233356 0
      vertex -0.9406045526266098 -8.030108444392681 0
    endloop
  endfacet
  facet normal 0 0 -1
    outer loop
      vertex 2.305588886141777 -8.594843901693821 0
      vertex -0.9406045526266098 -8.030108444392681 0
      vertex -0.9081351980566978 -7.856555745005608 0
    endloop
  endfacet
  facet normal 0 0 -1
    outer loop
      vertex 2.5165205597877502 -7.623351521790028 0
      vertex -0.9065495580434799 -7.480411946773529 0
      vertex -0.9374604001641273 -7.284256763756275 0
    endloop
  endfacet
  facet normal 0 0 -1
    outer loop
      vertex 2.5165205597877502 -7.623351521790028 0
      vertex -0.9081351980566978 -7.856555745005608 0
      vertex -0.8967184200882912 -7.67227254062891 0
    endloop
  endfacet
  facet normal 0 0 -1
    outer loop
      vertex 2.5165205597877502 -7.623351521790028 0
      vertex -0.8967184200882912 -7.67227254062891 0
      vertex -0.9065495580434799 -7.480411946773529 0
    endloop
  endfacet
  facet normal 0 0 -1
    outer loop
      vertex 2.5988424867391586 -6.632638290524483 0
      vertex -0.9374604001641273 -7.284256763756275 0
      vertex -0.9889220595359802 -7.087163262069225 0
    endloop
  endfacet
  facet normal 0 0 -1
    outer loop
      vertex 2.5988424867391586 -6.632638290524483 0
      vertex -1.0600540041923523 -6.892503760755062 0
      vertex -1.1496391519904137 -6.703608937561512 0
    endloop
  endfacet
  facet normal 0 0 -1
    outer loop
      vertex 2.5988424867391586 -6.632638290524483 0
      vertex -0.9889220595359802 -7.087163262069225 0
      vertex -1.0600540041923523 -6.892503760755062 0
    endloop
  endfacet
  facet normal 0 0 -1
    outer loop
      vertex 2.5511461049318314 -5.639655575156212 0
      vertex -1.3777482360601425 -6.355887569487095 0
      vertex -1.5123691633343697 -6.203010633587837 0
    endloop
  endfacet
  facet normal 0 0 -1
    outer loop
      vertex 2.5511461049318314 -5.639655575156212 0
      vertex -1.256144680082798 -6.523710839450359 0
      vertex -1.3777482360601425 -6.355887569487095 0
    endloop
  endfacet
  facet normal 0 0 -1
    outer loop
      vertex 2.5511461049318314 -5.639655575156212 0
      vertex -1.5123691633343697 -6.203010633587837 0
      vertex -1.6577040553092957 -6.067695796489716 0
    endloop
  endfacet
  facet normal 0 0 -1
    outer loop
      vertex 2.5511461049318314 -5.639655575156212 0
      vertex -1.1496391519904137 -6.703608937561512 0
      vertex -1.256144680082798 -6.523710839450359 0
    endloop
  endfacet
  facet normal 0 0 -1
    outer loop
      vertex 2.374247521162033 -4.661393590271473 0
      vertex -2.454080581665039 -5.723019488155842 0
      vertex -2.608153499662876 -5.72874891012907 0
    endloop
  endfacet
  facet normal 0 0 -1
    outer loop
      vertex 2.374247521162033 -4.661393590271473 0
      vertex -2.2946086823940277 -5.7430649399757385 0
      vertex -2.454080581665039 -5.723019488155842 0
    endloop
  endfacet
  facet normal 0 0 -1
    outer loop
      vertex 2.374247521162033 -4.661393590271473 0
      vertex -2.132466420531273 -5.788542293012142 0
      vertex -2.2946086823940277 -5.7430649399757385 0
    endloop
  endfacet
  facet normal 0 0 -1
    outer loop
      vertex 2.305588886141777 -8.594843901693821 0
      vertex -0.9081351980566978 -7.856555745005608 0
      vertex 2.5165205597877502 -7.623351521790028 0
    endloop
  endfacet
  facet normal 0 0 -1
    outer loop
      vertex 2.5165205597877502 -7.623351521790028 0
      vertex -0.9374604001641273 -7.284256763756275 0
      vertex 2.5988424867391586 -6.632638290524483 0
    endloop
  endfacet
  facet normal 0 0 -1
    outer loop
      vertex 2.5988424867391586 -6.632638290524483 0
      vertex -1.1496391519904137 -6.703608937561512 0
      vertex 2.5511461049318314 -5.639655575156212 0
    endloop
  endfacet
  facet normal 0 0 -1
    outer loop
      vertex 2.5511461049318314 -5.639655575156212 0
      vertex -2.132466420531273 -5.788542293012142 0
      vertex 2.374247521162033 -4.661393590271473 0
    endloop
  endfacet
  facet normal 0.9772311062195027 -0.21217767327644757 0
    outer loop
      vertex 2.305588886141777 -8.594843901693821 0
      vertex 2.5165205597877502 -7.623351521790028 0
      vertex 2.305588886141777 -8.594843901693821 2
    endloop
  endfacet
  facet normal 0.9965655020263658 -0.0828082131852732 0
    outer loop
      vertex 2.5165205597877502 -7.623351521790028 0
      vertex 2.5988424867391586 -6.632638290524483 0
      vertex 2.5165205597877502 -7.623351521790028 2
    endloop
  endfacet
  facet normal 0.998848386404257 0.04797813020129082 0
    outer loop
      vertex 2.5988424867391586 -6.632638290524483 0
      vertex 2.5511461049318314 -5.639655575156212 0
      vertex 2.5988424867391586 -6.632638290524483 2
    endloop
  endfacet
  facet normal 0.9840406976833777 0.17794354526874895 0
    outer loop
      vertex 2.5511461049318314 -5.639655575156212 0
      vertex 2.374247521162033 -4.661393590271473 0
      vertex 2.5511461049318314 -5.639655575156212 2
    endloop
  endfacet
  facet normal 0.9523957996428536 0.3048642990293377 0
    outer loop
      vertex 2.374247521162033 -4.661393590271473 0
      vertex 2.071173518896103 -3.7145906761288643 0
      vertex 2.374247521162033 -4.661393590271473 2
    endloop
  endfacet
  facet normal 0.9044551459004193 0.42656873895569436 0
    outer loop
      vertex 2.071173518896103 -3.7145906761288643 0
      vertex 1.6471097767353058 -2.8154468834400177 0
      vertex 2.071173518896103 -3.7145906761288643 2
    endloop
  endfacet
  facet normal 0.04797813020129082 -0.998848386404257 0
    outer loop
      vertex -5.132638290524483 -14.098842486739159 2
      vertex -4.139655575156212 -14.051146104931831 0
      vertex -4.139655575156212 -14.051146104931831 2
    endloop
  endfacet
  facet normal 0.17794354526874895 -0.9840406976833777 0
    outer loop
      vertex -3.161393590271473 -13.874247521162033 0
      vertex -3.161393590271473 -13.874247521162033 2
      vertex -4.139655575156212 -14.051146104931831 2
    endloop
  endfacet
  facet normal 0.3048642990293377 -0.9523957996428536 0
    outer loop
      vertex -2.2145906761288643 -13.571173518896103 0
      vertex -2.2145906761288643 -13.571173518896103 2
      vertex -3.161393590271473 -13.874247521162033 2
    endloop
  endfacet
  facet normal 0.42656873895569436 -0.9044551459004193 0
    outer loop
      vertex -1.3154468834400177 -13.147109776735306 0
      vertex -1.3154468834400177 -13.147109776735306 2
      vertex -2.2145906761288643 -13.571173518896103 2
    endloop
  endfacet
  facet normal 0 0 1
    outer loop
      vertex -6.123351521790028 -14.01652055978775 2
      vertex -5.132638290524483 -14.098842486739159 2
      vertex -3.161393590271473 -13.874247521162033 2
    endloop
  endfacet
  facet normal 0 0 1
    outer loop
      vertex -5.132638290524483 -14.098842486739159 2
      vertex -4.139655575156212 -14.051146104931831 2
      vertex -3.161393590271473 -13.874247521162033 2
    endloop
  endfacet
  facet normal 0 0 1
    outer loop
      vertex -6.123351521790028 -14.01652055978775 2
      vertex -3.161393590271473 -13.874247521162033 2
      vertex -2.2145906761288643 -13.571173518896103 2
    endloop
  endfacet
  facet normal 0 0 1
    outer loop
      vertex -7.094843901693821 -13.805588886141777 2
      vertex -2.2145906761288643 -13.571173518896103 2
      vertex -1.3154468834400177 -13.147109776735306 2
    endloop
  endfacet
  facet normal 0 0 1
    outer loop
      vertex -8.030492924153805 -13.469656564295292 2
      vertex -1.3154468834400177 -13.147109776735306 2
      vertex -0.4793468192219734 -12.609312139451504 2
    endloop
  endfacet
  facet normal 0 0 1
    outer loop
      vertex -12.071173518896103 -9.285409323871136 2
      vertex 2.305588886141777 -8.594843901693821 2
      vertex -1.8230003342032433 -8.735814690589905 2
    endloop
  endfacet
  facet normal 0 0 1
    outer loop
      vertex -8.914289370179176 -13.014471486210823 2
      vertex -0.4793468192219734 -12.609312139451504 2
      vertex 0.27940361201763153 -11.96698248386383 2
    endloop
  endfacet
  facet normal 0 0 1
    outer loop
      vertex -9.731111235916615 -12.447821989655495 2
      vertex 0.27940361201763153 -11.96698248386383 2
      vertex 0.9478219896554947 -11.231111235916615 2
    endloop
  endfacet
  facet normal 0 0 1
    outer loop
      vertex -10.46698248386383 -11.779403612017632 2
      vertex 0.9478219896554947 -11.231111235916615 2
      vertex 1.514471486210823 -10.414289370179176 2
    endloop
  endfacet
  facet normal 0 0 1
    outer loop
      vertex -11.109312139451504 -11.020653180778027 2
      vertex 1.514471486210823 -10.414289370179176 2
      vertex 1.969656564295292 -9.530492924153805 2
    endloop
  endfacet
  facet normal 0 0 1
    outer loop
      vertex -11.647109776735306 -10.184553116559982 2
      vertex 1.969656564295292 -9.530492924153805 2
      vertex 2.305588886141777 -8.594843901693821 2
    endloop
  endfacet
  facet normal 0 0 1
    outer loop
      vertex -12.598842486739159 -6.367361709475517 2
      vertex -2.608153499662876 -5.72874891012907 2
      vertex 2.374247521162033 -4.661393590271473 2
    endloop
  endfacet
  facet normal 0 0 1
    outer loop
      vertex -12.51652055978775 -5.376648478209972 2
      vertex 2.374247521162033 -4.661393590271473 2
      vertex 2.071173518896103 -3.7145906761288643 2
    endloop
  endfacet
  facet normal 0 0 1
    outer loop
      vertex -12.305588886141777 -4.405156098306179 2
      vertex 2.071173518896103 -3.7145906761288643 2
      vertex 1.6471097767353058 -2.8154468834400177 2
    endloop
  endfacet
  facet normal 0.5409744745698339 -0.8410390109048999 0
    outer loop
      vertex -0.4793468192219734 -12.609312139451504 0
      vertex -0.4793468192219734 -12.609312139451504 2
      vertex -1.3154468834400177 -13.147109776735306 2
    endloop
  endfacet
  facet normal 0.6461239806106188 -0.7632324689633486 0
    outer loop
      vertex 0.27940361201763153 -11.96698248386383 0
      vertex 0.27940361201763153 -11.96698248386383 2
      vertex -0.4793468192219734 -12.609312139451504 2
    endloop
  endfacet
  facet normal 0.7402181286990671 -0.6723668061001014 0
    outer loop
      vertex 0.9478219896554947 -11.231111235916615 0
      vertex 0.9478219896554947 -11.231111235916615 2
      vertex 0.27940361201763153 -11.96698248386383 2
    endloop
  endfacet
  facet normal 0.8216469352800686 -0.5699967664336972 0
    outer loop
      vertex 1.514471486210823 -10.414289370179176 0
      vertex 1.514471486210823 -10.414289370179176 2
      vertex 0.9478219896554947 -11.231111235916615 2
    endloop
  endfacet
  facet normal 0.8890171423803979 -0.45787391337986416 0
    outer loop
      vertex 1.969656564295292 -9.530492924153805 0
      vertex 1.969656564295292 -9.530492924153805 2
      vertex 1.514471486210823 -10.414289370179176 2
    endloop
  endfacet
  facet normal 0.9411760162086036 -0.3379167153511385 0
    outer loop
      vertex 2.305588886141777 -8.594843901693821 0
      vertex 2.305588886141777 -8.594843901693821 2
      vertex 1.969656564295292 -9.530492924153805 2
    endloop
  endfacet
  facet normal 0 0 1
    outer loop
      vertex 2.305588886141777 -8.594843901693821 2
      vertex -1.6689274162054062 -8.730085261166096 2
      vertex -1.8230003342032433 -8.735814690589905 2
    endloop
  endfacet
  facet normal 0 0 1
    outer loop
      vertex 2.305588886141777 -8.594843901693821 2
      vertex -1.5228897109627724 -8.698678992688656 2
      vertex -1.6689274162054062 -8.730085261166096 2
    endloop
  endfacet
  facet normal 0 0 1
    outer loop
      vertex 2.305588886141777 -8.594843901693821 2
      vertex -1.3873859569430351 -8.642133235931396 2
      vertex -1.5228897109627724 -8.698678992688656 2
    endloop
  endfacet
  facet normal 0 0 1
    outer loop
      vertex 2.305588886141777 -8.594843901693821 2
      vertex -1.2647346630692482 -8.561415515840054 2
      vertex -1.3873859569430351 -8.642133235931396 2
    endloop
  endfacet
  facet normal 0 0 1
    outer loop
      vertex 2.305588886141777 -8.594843901693821 2
      vertex -1.1570344343781471 -8.457906939089298 2
      vertex -1.2647346630692482 -8.561415515840054 2
    endloop
  endfacet
  facet normal 0.9772311062195027 -0.21217767327644757 0
    outer loop
      vertex 2.5165205597877502 -7.623351521790028 0
      vertex 2.5165205597877502 -7.623351521790028 2
      vertex 2.305588886141777 -8.594843901693821 2
    endloop
  endfacet
  facet normal 0.9965655020263658 -0.0828082131852732 0
    outer loop
      vertex 2.5988424867391586 -6.632638290524483 0
      vertex 2.5988424867391586 -6.632638290524483 2
      vertex 2.5165205597877502 -7.623351521790028 2
    endloop
  endfacet
  facet normal 0.998848386404257 0.04797813020129082 0
    outer loop
      vertex 2.5511461049318314 -5.639655575156212 0
      vertex 2.5511461049318314 -5.639655575156212 2
      vertex 2.5988424867391586 -6.632638290524483 2
    endloop
  endfacet
  facet normal 0.9840406976833777 0.17794354526874895 0
    outer loop
      vertex 2.374247521162033 -4.661393590271473 0
      vertex 2.374247521162033 -4.661393590271473 2
      vertex 2.5511461049318314 -5.639655575156212 2
    endloop
  endfacet
  facet normal 0.9044551459004193 0.42656873895569436 0
    outer loop
      vertex 2.071173518896103 -3.7145906761288643 2
      vertex 1.6471097767353058 -2.8154468834400177 0
      vertex 1.6471097767353058 -2.8154468834400177 2
    endloop
  endfacet
  facet normal 0.9523957996428536 0.3048642990293377 0
    outer loop
      vertex 2.071173518896103 -3.7145906761288643 0
      vertex 2.071173518896103 -3.7145906761288643 2
      vertex 2.374247521162033 -4.661393590271473 2
    endloop
  endfacet
  facet normal 0 0 1
    outer loop
      vertex 2.5511461049318314 -5.639655575156212 2
      vertex -1.970428079366684 -5.85867340862751 2
      vertex -1.81126619130373 -5.952258333563805 2
    endloop
  endfacet
  facet normal 0 0 1
    outer loop
      vertex 2.5511461049318314 -5.639655575156212 2
      vertex -1.81126619130373 -5.952258333563805 2
      vertex -1.6577040553092957 -6.067695796489716 2
    endloop
  endfacet
  facet normal 0 0 1
    outer loop
      vertex 2.305588886141777 -8.594843901693821 2
      vertex -1.0661280453205109 -8.333378553390503 2
      vertex -1.1570344343781471 -8.457906939089298 2
    endloop
  endfacet
  facet normal 0 0 1
    outer loop
      vertex 2.305588886141777 -8.594843901693821 2
      vertex -0.9935709238052368 -8.189961083233356 2
      vertex -1.0661280453205109 -8.333378553390503 2
    endloop
  endfacet
  facet normal 0 0 1
    outer loop
      vertex 2.305588886141777 -8.594843901693821 2
      vertex -0.9406045526266098 -8.030108444392681 2
      vertex -0.9935709238052368 -8.189961083233356 2
    endloop
  endfacet
  facet normal 0 0 1
    outer loop
      vertex 2.5165205597877502 -7.623351521790028 2
      vertex -0.9081351980566978 -7.856555745005608 2
      vertex -0.9406045526266098 -8.030108444392681 2
    endloop
  endfacet
  facet normal 0 0 1
    outer loop
      vertex 2.5165205597877502 -7.623351521790028 2
      vertex -0.8967184200882912 -7.67227254062891 2
      vertex -0.9081351980566978 -7.856555745005608 2
    endloop
  endfacet
  facet normal 0 0 1
    outer loop
      vertex 2.5165205597877502 -7.623351521790028 2
      vertex -0.9065495580434799 -7.480411946773529 2
      vertex -0.8967184200882912 -7.67227254062891 2
    endloop
  endfacet
  facet normal 0 0 1
    outer loop
      vertex 2.5988424867391586 -6.632638290524483 2
      vertex -0.9374604001641273 -7.284256763756275 2
      vertex -0.9065495580434799 -7.480411946773529 2
    endloop
  endfacet
  facet normal 0 0 1
    outer loop
      vertex 2.5988424867391586 -6.632638290524483 2
      vertex -0.9889220595359802 -7.087163262069225 2
      vertex -0.9374604001641273 -7.284256763756275 2
    endloop
  endfacet
  facet normal 0 0 1
    outer loop
      vertex 2.5988424867391586 -6.632638290524483 2
      vertex -1.0600540041923523 -6.892503760755062 2
      vertex -0.9889220595359802 -7.087163262069225 2
    endloop
  endfacet
  facet normal 0 0 1
    outer loop
      vertex 2.5511461049318314 -5.639655575156212 2
      vertex -1.1496391519904137 -6.703608937561512 2
      vertex -1.0600540041923523 -6.892503760755062 2
    endloop
  endfacet
  facet normal 0 0 1
    outer loop
      vertex 2.5511461049318314 -5.639655575156212 2
      vertex -1.5123691633343697 -6.203010633587837 2
      vertex -1.3777482360601425 -6.355887569487095 2
    endloop
  endfacet
  facet normal 0 0 1
    outer loop
      vertex 2.5511461049318314 -5.639655575156212 2
      vertex -1.3777482360601425 -6.355887569487095 2
      vertex -1.256144680082798 -6.523710839450359 2
    endloop
  endfacet
  facet normal 0 0 1
    outer loop
      vertex 2.5511461049318314 -5.639655575156212 2
      vertex -1.6577040553092957 -6.067695796489716 2
      vertex -1.5123691633343697 -6.203010633587837 2
    endloop
  endfacet
  facet normal 0 0 1
    outer loop
      vertex 2.5511461049318314 -5.639655575156212 2
      vertex -1.256144680082798 -6.523710839450359 2
      vertex -1.1496391519904137 -6.703608937561512 2
    endloop
  endfacet
  facet normal 0 0 1
    outer loop
      vertex 2.374247521162033 -4.661393590271473 2
      vertex -2.608153499662876 -5.72874891012907 2
      vertex -2.454080581665039 -5.723019488155842 2
    endloop
  endfacet
  facet normal 0 0 1
    outer loop
      vertex 2.374247521162033 -4.661393590271473 2
      vertex -2.454080581665039 -5.723019488155842 2
      vertex -2.2946086823940277 -5.7430649399757385 2
    endloop
  endfacet
  facet normal 0 0 1
    outer loop
      vertex 2.374247521162033 -4.661393590271473 2
      vertex -2.2946086823940277 -5.7430649399757385 2
      vertex -2.132466420531273 -5.788542293012142 2
    endloop
  endfacet
  facet normal 0 0 1
    outer loop
      vertex 2.374247521162033 -4.661393590271473 2
      vertex -2.132466420531273 -5.788542293012142 2
      vertex -1.970428079366684 -5.85867340862751 2
    endloop
  endfacet
  facet normal 0 0 1
    outer loop
      vertex 2.305588886141777 -8.594843901693821 2
      vertex 2.5165205597877502 -7.623351521790028 2
      vertex -0.9406045526266098 -8.030108444392681 2
    endloop
  endfacet
  facet normal 0 0 1
    outer loop
      vertex 2.5165205597877502 -7.623351521790028 2
      vertex 2.5988424867391586 -6.632638290524483 2
      vertex -0.9065495580434799 -7.480411946773529 2
    endloop
  endfacet
  facet normal 0 0 1
    outer loop
      vertex 2.5988424867391586 -6.632638290524483 2
      vertex 2.5511461049318314 -5.639655575156212 2
      vertex -1.0600540041923523 -6.892503760755062 2
    endloop
  endfacet
  facet normal 0 0 1
    outer loop
      vertex 2.5511461049318314 -5.639655575156212 2
      vertex 2.374247521162033 -4.661393590271473 2
      vertex -1.970428079366684 -5.85867340862751 2
    endloop
  endfacet
  facet normal 0 0 -1
    outer loop
      vertex -9.570316076278687 7.477532938122749 0
      vertex 1.1093121394515038 -1.9793468192219734 0
      vertex 1.6471097767353058 -2.8154468834400177 0
    endloop
  endfacet
  facet normal 0 0 -1
    outer loop
      vertex -9.516566902399063 7.6272367760539055 0
      vertex 0.46698248386383057 -1.2205963879823685 0
      vertex 1.1093121394515038 -1.9793468192219734 0
    endloop
  endfacet
  facet normal 0.7551320818166836 0.6555726801897723 2.13969460845285e-16
    outer loop
      vertex -7.526704654097557 7.987062491476536 0
      vertex 0.46698248386383057 -1.2205963879823685 2
      vertex 0.46698248386383057 -1.2205963879823685 0
    endloop
  endfacet
  facet normal 0.7632324689633486 0.6461239806106188 0
    outer loop
      vertex 0.46698248386383057 -1.2205963879823685 0
      vertex 1.1093121394515038 -1.9793468192219734 2
      vertex 1.1093121394515038 -1.9793468192219734 0
    endloop
  endfacet
  facet normal 0.8410390109048999 0.5409744745698339 0
    outer loop
      vertex 1.1093121394515038 -1.9793468192219734 0
      vertex 1.6471097767353058 -2.8154468834400177 2
      vertex 1.6471097767353058 -2.8154468834400177 0
    endloop
  endfacet
  facet normal 0 0 1
    outer loop
      vertex -9.570316076278687 7.477532938122749 2
      vertex 1.6471097767353058 -2.8154468834400177 2
      vertex 1.1093121394515038 -1.9793468192219734 2
    endloop
  endfacet
  facet normal 0 0 1
    outer loop
      vertex -9.516566902399063 7.6272367760539055 2
      vertex 1.1093121394515038 -1.9793468192219734 2
      vertex 0.46698248386383057 -1.2205963879823685 2
    endloop
  endfacet
  facet normal 0.7551320818166836 0.6555726801897723 0
    outer loop
      vertex -7.526704654097557 7.987062491476536 0
      vertex -7.526704654097557 7.987062491476536 2
      vertex 0.46698248386383057 -1.2205963879823685 2
    endloop
  endfacet
  facet normal 0.7632324689633486 0.6461239806106188 0
    outer loop
      vertex 0.46698248386383057 -1.2205963879823685 0
      vertex 0.46698248386383057 -1.2205963879823685 2
      vertex 1.1093121394515038 -1.9793468192219734 2
    endloop
  endfacet
  facet normal 0.8410390109048999 0.5409744745698339 0
    outer loop
      vertex 1.1093121394515038 -1.9793468192219734 0
      vertex 1.1093121394515038 -1.9793468192219734 2
      vertex 1.6471097767353058 -2.8154468834400177 2
    endloop
  endfacet
  facet normal 0.5068602843579745 0.8620282200372289 0
    outer loop
      vertex -2.3066528365015984 -8.600160762667656 0
      vertex -2.4658147245645523 -8.506575845181942 0
      vertex -2.4658147245645523 -8.506575845181942 2
    endloop
  endfacet
  facet normal 0.39719975012474606 0.917732182339074 0
    outer loop
      vertex -2.1446144953370094 -8.670291885733604 0
      vertex -2.3066528365015984 -8.600160762667656 0
      vertex -2.3066528365015984 -8.600160762667656 2
    endloop
  endfacet
  facet normal 0.27005676562398817 0.9628444024559266 0
    outer loop
      vertex -2.1446144953370094 -8.670291885733604 0
      vertex -2.1446144953370094 -8.670291885733604 2
      vertex -1.9824722334742546 -8.715769238770008 0
    endloop
  endfacet
  facet normal 0.12471753825514774 0.9921922876396367 0
    outer loop
      vertex -1.8230003342032433 -8.735814690589905 0
      vertex -1.9824722334742546 -8.715769238770008 0
      vertex -1.9824722334742546 -8.715769238770008 2
    endloop
  endfacet
  facet normal -0.03716079487760076 0.9993092991281853 0
    outer loop
      vertex -1.6689274162054062 -8.730085261166096 0
      vertex -1.8230003342032433 -8.735814690589905 0
      vertex -1.8230003342032433 -8.735814690589905 2
    endloop
  endfacet
  facet normal -0.21024893452928994 0.9776478842248361 0
    outer loop
      vertex -1.5228897109627724 -8.698678992688656 0
      vertex -1.6689274162054062 -8.730085261166096 0
      vertex -1.6689274162054062 -8.730085261166096 2
    endloop
  endfacet
  facet normal -0.3851135836125666 0.9228691823422681 0
    outer loop
      vertex -1.3873859569430351 -8.642133235931396 0
      vertex -1.5228897109627724 -8.698678992688656 0
      vertex -1.5228897109627724 -8.698678992688656 2
    endloop
  endfacet
  facet normal -0.5497404586489183 0.8353355182945814 0
    outer loop
      vertex -1.2647346630692482 -8.561415515840054 0
      vertex -1.3873859569430351 -8.642133235931396 0
      vertex -1.3873859569430351 -8.642133235931396 2
    endloop
  endfacet
  facet normal -0.6929370852700907 0.720998055376983 0
    outer loop
      vertex -1.1570344343781471 -8.457906939089298 0
      vertex -1.2647346630692482 -8.561415515840054 0
      vertex -1.2647346630692482 -8.561415515840054 2
    endloop
  endfacet
  facet normal 0.9392550349065192 0.34322001602871793 0
    outer loop
      vertex -3.21702691167593 -7.5663304179906845 0
      vertex -3.288158856332302 -7.371670916676521 0
      vertex -3.288158856332302 -7.371670916676521 2
    endloop
  endfacet
  facet normal 0.903536672718393 0.4285107712216525 0
    outer loop
      vertex -3.1274417638778687 -7.755225241184235 0
      vertex -3.21702691167593 -7.5663304179906845 0
      vertex -3.21702691167593 -7.5663304179906845 2
    endloop
  endfacet
  facet normal 0.9675621370755446 0.2526331547873419 0
    outer loop
      vertex -3.288158856332302 -7.371670916676521 0
      vertex -3.339620515704155 -7.174577414989471 0
      vertex -3.339620515704155 -7.174577414989471 2
    endloop
  endfacet
  facet normal 0.9878102657058555 0.1556627089772219 0
    outer loop
      vertex -3.339620515704155 -7.174577414989471 0
      vertex -3.3705313578248024 -6.978422231972218 0
      vertex -3.3705313578248024 -6.978422231972218 2
    endloop
  endfacet
  facet normal 0.9986897570957036 0.05117391007265684 0
    outer loop
      vertex -3.3705313578248024 -6.978422231972218 0
      vertex -3.380362495779991 -6.7865616381168365 0
      vertex -3.380362495779991 -6.7865616381168365 2
    endloop
  endfacet
  facet normal 0.9980864596899693 -0.06183380130271177 0
    outer loop
      vertex -3.380362495779991 -6.7865616381168365 0
      vertex -3.3689457178115845 -6.602278426289558 0
      vertex -3.3689457178115845 -6.602278426289558 2
    endloop
  endfacet
  facet normal 0.9829457406813623 -0.1838958152769337 0
    outer loop
      vertex -3.3689457178115845 -6.602278426289558 0
      vertex -3.3364763632416725 -6.4287257343530655 0
      vertex -3.3364763632416725 -6.4287257343530655 2
    endloop
  endfacet
  facet normal 0.9492480106119892 -0.31452855887690206 0
    outer loop
      vertex -3.3364763632416725 -6.4287257343530655 0
      vertex -3.2835099920630455 -6.2688730880618095 0
      vertex -3.2835099920630455 -6.2688730880618095 2
    endloop
  endfacet
  facet normal 0.892305847694083 -0.45143136152791125 0
    outer loop
      vertex -3.2835099920630455 -6.2688730880618095 0
      vertex -3.2109528705477715 -6.125455617904663 0
      vertex -3.2109528705477715 -6.125455617904663 2
    endloop
  endfacet
  facet normal 0.8076849122983438 -0.5896143506103091 0
    outer loop
      vertex -3.2109528705477715 -6.125455617904663 0
      vertex -3.120046481490135 -6.000927239656448 0
      vertex -3.120046481490135 -6.000927239656448 2
    endloop
  endfacet
  facet normal 0.8605028222667184 0.5094456721486724 0
    outer loop
      vertex -3.0209362357854843 -7.935123339295387 0
      vertex -3.1274417638778687 -7.755225241184235 0
      vertex -3.1274417638778687 -7.755225241184235 2
    endloop
  endfacet
  facet normal 0.809767045765684 0.5867515075327174 0
    outer loop
      vertex -2.89933267980814 -8.102946601808071 0
      vertex -3.0209362357854843 -7.935123339295387 0
      vertex -3.0209362357854843 -7.935123339295387 2
    endloop
  endfacet
  facet normal 0.7504962473169929 0.6608747103370737 0
    outer loop
      vertex -2.7647117525339127 -8.255823537707329 0
      vertex -2.89933267980814 -8.102946601808071 0
      vertex -2.89933267980814 -8.102946601808071 2
    endloop
  endfacet
  facet normal 0.6814267314643467 0.7318863365617758 0
    outer loop
      vertex -2.6193768605589867 -8.39113837480545 0
      vertex -2.7647117525339127 -8.255823537707329 0
      vertex -2.7647117525339127 -8.255823537707329 2
    endloop
  endfacet
  facet normal 0.6008853421211121 0.7993352273132932 0
    outer loop
      vertex -2.4658147245645523 -8.506575845181942 0
      vertex -2.6193768605589867 -8.39113837480545 0
      vertex -2.6193768605589867 -8.39113837480545 2
    endloop
  endfacet
  facet normal 0.6929371111984926 -0.7209980304577038 0
    outer loop
      vertex -3.120046481490135 -6.000927239656448 0
      vertex -3.012346252799034 -5.8974186554551125 0
      vertex -3.012346252799034 -5.8974186554551125 2
    endloop
  endfacet
  facet normal 0.5497404232409633 -0.8353355415968164 0
    outer loop
      vertex -3.012346252799034 -5.8974186554551125 0
      vertex -2.889694958925247 -5.81670094281435 0
      vertex -2.889694958925247 -5.81670094281435 2
    endloop
  endfacet
  facet normal 0.3851135836125666 -0.9228691823422681 0
    outer loop
      vertex -2.889694958925247 -5.81670094281435 0
      vertex -2.75419120490551 -5.760155186057091 0
      vertex -2.75419120490551 -5.760155186057091 2
    endloop
  endfacet
  facet normal 0.21024898220229235 -0.9776478739724749 0
    outer loop
      vertex -2.75419120490551 -5.760155186057091 0
      vertex -2.608153499662876 -5.72874891012907 0
      vertex -2.608153499662876 -5.72874891012907 2
    endloop
  endfacet
  facet normal 0.03716074662023661 -0.9993093009227055 0
    outer loop
      vertex -2.608153499662876 -5.72874891012907 0
      vertex -2.454080581665039 -5.723019488155842 0
      vertex -2.454080581665039 -5.723019488155842 2
    endloop
  endfacet
  facet normal -0.12471753825514774 -0.9921922876396367 0
    outer loop
      vertex -2.454080581665039 -5.723019488155842 0
      vertex -2.2946086823940277 -5.7430649399757385 0
      vertex -2.2946086823940277 -5.7430649399757385 2
    endloop
  endfacet
  facet normal -0.27005676562398817 -0.9628444024559266 0
    outer loop
      vertex -2.2946086823940277 -5.7430649399757385 0
      vertex -2.132466420531273 -5.788542293012142 0
      vertex -2.132466420531273 -5.788542293012142 2
    endloop
  endfacet
  facet normal -0.39719971458451686 -0.9177321977210882 0
    outer loop
      vertex -2.132466420531273 -5.788542293012142 0
      vertex -1.970428079366684 -5.85867340862751 0
      vertex -1.970428079366684 -5.85867340862751 2
    endloop
  endfacet
  facet normal -0.6008853173415944 -0.7993352459408326 0
    outer loop
      vertex -1.81126619130373 -5.952258333563805 0
      vertex -1.6577040553092957 -6.067695796489716 0
      vertex -1.6577040553092957 -6.067695796489716 2
    endloop
  endfacet
  facet normal -0.5068603143437629 -0.8620282024060129 0
    outer loop
      vertex -1.970428079366684 -5.85867340862751 0
      vertex -1.81126619130373 -5.952258333563805 0
      vertex -1.81126619130373 -5.952258333563805 2
    endloop
  endfacet
  facet normal -0.8097670581424297 -0.5867514904517541 0
    outer loop
      vertex -1.3777482360601425 -6.355887569487095 0
      vertex -1.256144680082798 -6.523710839450359 0
      vertex -1.256144680082798 -6.523710839450359 2
    endloop
  endfacet
  facet normal -0.6814267314643467 -0.7318863365617758 0
    outer loop
      vertex -1.6577040553092957 -6.067695796489716 0
      vertex -1.5123691633343697 -6.203010633587837 0
      vertex -1.5123691633343697 -6.203010633587837 2
    endloop
  endfacet
  facet normal -0.7504962473169929 -0.6608747103370737 0
    outer loop
      vertex -1.5123691633343697 -6.203010633587837 0
      vertex -1.3777482360601425 -6.355887569487095 0
      vertex -1.3777482360601425 -6.355887569487095 2
    endloop
  endfacet
  facet normal -0.8076849290979778 0.5896143275972815 0
    outer loop
      vertex -1.0661280453205109 -8.333378553390503 0
      vertex -1.1570344343781471 -8.457906939089298 0
      vertex -1.1570344343781471 -8.457906939089298 2
    endloop
  endfacet
  facet normal -0.892305847694083 0.45143136152791125 0
    outer loop
      vertex -0.9935709238052368 -8.189961083233356 0
      vertex -1.0661280453205109 -8.333378553390503 0
      vertex -1.0661280453205109 -8.333378553390503 2
    endloop
  endfacet
  facet normal -0.9492480062350533 0.3145285720865055 0
    outer loop
      vertex -0.9406045526266098 -8.030108444392681 0
      vertex -0.9935709238052368 -8.189961083233356 0
      vertex -0.9935709238052368 -8.189961083233356 2
    endloop
  endfacet
  facet normal -0.9829457421083886 0.1838958076493026 0
    outer loop
      vertex -0.9081351980566978 -7.856555745005608 0
      vertex -0.9406045526266098 -8.030108444392681 0
      vertex -0.9406045526266098 -8.030108444392681 2
    endloop
  endfacet
  facet normal -0.9980864595356841 0.0618338037930976 0
    outer loop
      vertex -0.8967184200882912 -7.67227254062891 0
      vertex -0.9081351980566978 -7.856555745005608 0
      vertex -0.9081351980566978 -7.856555745005608 2
    endloop
  endfacet
  facet normal -0.9986897570957036 -0.05117391007265684 0
    outer loop
      vertex -0.9065495580434799 -7.480411946773529 0
      vertex -0.8967184200882912 -7.67227254062891 0
      vertex -0.8967184200882912 -7.67227254062891 2
    endloop
  endfacet
  facet normal -0.9878102657058555 -0.1556627089772219 0
    outer loop
      vertex -0.9374604001641273 -7.284256763756275 0
      vertex -0.9065495580434799 -7.480411946773529 0
      vertex -0.9065495580434799 -7.480411946773529 2
    endloop
  endfacet
  facet normal -0.9675621370755446 -0.2526331547873419 0
    outer loop
      vertex -0.9374604001641273 -7.284256763756275 0
      vertex -0.9374604001641273 -7.284256763756275 2
      vertex -0.9889220595359802 -7.087163262069225 0
    endloop
  endfacet
  facet normal -0.903536672718393 -0.4285107712216525 0
    outer loop
      vertex -1.1496391519904137 -6.703608937561512 0
      vertex -1.0600540041923523 -6.892503760755062 0
      vertex -1.0600540041923523 -6.892503760755062 2
    endloop
  endfacet
  facet normal -0.9392550349065192 -0.34322001602871793 0
    outer loop
      vertex -1.0600540041923523 -6.892503760755062 0
      vertex -0.9889220595359802 -7.087163262069225 0
      vertex -0.9889220595359802 -7.087163262069225 2
    endloop
  endfacet
  facet normal -0.8605028222667184 -0.5094456721486724 0
    outer loop
      vertex -1.256144680082798 -6.523710839450359 0
      vertex -1.1496391519904137 -6.703608937561512 0
      vertex -1.1496391519904137 -6.703608937561512 2
    endloop
  endfacet
  facet normal 0.5068602843579745 0.8620282200372289 0
    outer loop
      vertex -2.3066528365015984 -8.600160762667656 0
      vertex -2.4658147245645523 -8.506575845181942 2
      vertex -2.3066528365015984 -8.600160762667656 2
    endloop
  endfacet
  facet normal 0.39719975012474606 0.917732182339074 0
    outer loop
      vertex -2.1446144953370094 -8.670291885733604 0
      vertex -2.3066528365015984 -8.600160762667656 2
      vertex -2.1446144953370094 -8.670291885733604 2
    endloop
  endfacet
  facet normal 0.27005676562398817 0.9628444024559266 0
    outer loop
      vertex -1.9824722334742546 -8.715769238770008 2
      vertex -1.9824722334742546 -8.715769238770008 0
      vertex -2.1446144953370094 -8.670291885733604 2
    endloop
  endfacet
  facet normal 0.12471753825514774 0.9921922876396367 0
    outer loop
      vertex -1.8230003342032433 -8.735814690589905 0
      vertex -1.9824722334742546 -8.715769238770008 2
      vertex -1.8230003342032433 -8.735814690589905 2
    endloop
  endfacet
  facet normal -0.03716079487760076 0.9993092991281853 0
    outer loop
      vertex -1.6689274162054062 -8.730085261166096 0
      vertex -1.8230003342032433 -8.735814690589905 2
      vertex -1.6689274162054062 -8.730085261166096 2
    endloop
  endfacet
  facet normal -0.21024893452928994 0.9776478842248361 0
    outer loop
      vertex -1.5228897109627724 -8.698678992688656 0
      vertex -1.6689274162054062 -8.730085261166096 2
      vertex -1.5228897109627724 -8.698678992688656 2
    endloop
  endfacet
  facet normal -0.3851135836125666 0.9228691823422681 0
    outer loop
      vertex -1.3873859569430351 -8.642133235931396 0
      vertex -1.5228897109627724 -8.698678992688656 2
      vertex -1.3873859569430351 -8.642133235931396 2
    endloop
  endfacet
  facet normal -0.5497404586489183 0.8353355182945814 0
    outer loop
      vertex -1.2647346630692482 -8.561415515840054 0
      vertex -1.3873859569430351 -8.642133235931396 2
      vertex -1.2647346630692482 -8.561415515840054 2
    endloop
  endfacet
  facet normal 0.9878102657058555 0.1556627089772219 0
    outer loop
      vertex -3.339620515704155 -7.174577414989471 0
      vertex -3.3705313578248024 -6.978422231972218 2
      vertex -3.339620515704155 -7.174577414989471 2
    endloop
  endfacet
  facet normal 0.9392550349065192 0.34322001602871793 0
    outer loop
      vertex -3.21702691167593 -7.5663304179906845 0
      vertex -3.288158856332302 -7.371670916676521 2
      vertex -3.21702691167593 -7.5663304179906845 2
    endloop
  endfacet
  facet normal 0.903536672718393 0.4285107712216525 0
    outer loop
      vertex -3.1274417638778687 -7.755225241184235 0
      vertex -3.21702691167593 -7.5663304179906845 2
      vertex -3.1274417638778687 -7.755225241184235 2
    endloop
  endfacet
  facet normal 0.9675621370755446 0.2526331547873419 0
    outer loop
      vertex -3.339620515704155 -7.174577414989471 2
      vertex -3.288158856332302 -7.371670916676521 2
      vertex -3.288158856332302 -7.371670916676521 0
    endloop
  endfacet
  facet normal 0.9986897570957036 0.05117391007265684 0
    outer loop
      vertex -3.380362495779991 -6.7865616381168365 2
      vertex -3.3705313578248024 -6.978422231972218 2
      vertex -3.3705313578248024 -6.978422231972218 0
    endloop
  endfacet
  facet normal 0.9980864596899693 -0.06183380130271177 0
    outer loop
      vertex -3.380362495779991 -6.7865616381168365 0
      vertex -3.3689457178115845 -6.602278426289558 2
      vertex -3.380362495779991 -6.7865616381168365 2
    endloop
  endfacet
  facet normal 0.9829457406813623 -0.1838958152769337 0
    outer loop
      vertex -3.3689457178115845 -6.602278426289558 0
      vertex -3.3364763632416725 -6.4287257343530655 2
      vertex -3.3689457178115845 -6.602278426289558 2
    endloop
  endfacet
  facet normal 0.9492480106119892 -0.31452855887690206 0
    outer loop
      vertex -3.3364763632416725 -6.4287257343530655 0
      vertex -3.2835099920630455 -6.2688730880618095 2
      vertex -3.3364763632416725 -6.4287257343530655 2
    endloop
  endfacet
  facet normal 0.892305847694083 -0.45143136152791125 0
    outer loop
      vertex -3.2835099920630455 -6.2688730880618095 0
      vertex -3.2109528705477715 -6.125455617904663 2
      vertex -3.2835099920630455 -6.2688730880618095 2
    endloop
  endfacet
  facet normal 0.8076849122983438 -0.5896143506103091 0
    outer loop
      vertex -3.2109528705477715 -6.125455617904663 0
      vertex -3.120046481490135 -6.000927239656448 2
      vertex -3.2109528705477715 -6.125455617904663 2
    endloop
  endfacet
  facet normal 0.8605028222667184 0.5094456721486724 0
    outer loop
      vertex -3.1274417638778687 -7.755225241184235 2
      vertex -3.0209362357854843 -7.935123339295387 2
      vertex -3.0209362357854843 -7.935123339295387 0
    endloop
  endfacet
  facet normal 0.809767045765684 0.5867515075327174 0
    outer loop
      vertex -2.89933267980814 -8.102946601808071 0
      vertex -3.0209362357854843 -7.935123339295387 2
      vertex -2.89933267980814 -8.102946601808071 2
    endloop
  endfacet
  facet normal 0.7504962473169929 0.6608747103370737 0
    outer loop
      vertex -2.89933267980814 -8.102946601808071 2
      vertex -2.7647117525339127 -8.255823537707329 2
      vertex -2.7647117525339127 -8.255823537707329 0
    endloop
  endfacet
  facet normal 0.6814267314643467 0.7318863365617758 0
    outer loop
      vertex -2.6193768605589867 -8.39113837480545 0
      vertex -2.7647117525339127 -8.255823537707329 2
      vertex -2.6193768605589867 -8.39113837480545 2
    endloop
  endfacet
  facet normal 0.6008853421211121 0.7993352273132932 0
    outer loop
      vertex -2.4658147245645523 -8.506575845181942 0
      vertex -2.6193768605589867 -8.39113837480545 2
      vertex -2.4658147245645523 -8.506575845181942 2
    endloop
  endfacet
  facet normal 0.6929371111984926 -0.7209980304577038 0
    outer loop
      vertex -3.120046481490135 -6.000927239656448 0
      vertex -3.012346252799034 -5.8974186554551125 2
      vertex -3.120046481490135 -6.000927239656448 2
    endloop
  endfacet
  facet normal 0.5497404232409633 -0.8353355415968164 0
    outer loop
      vertex -3.012346252799034 -5.8974186554551125 0
      vertex -2.889694958925247 -5.81670094281435 2
      vertex -3.012346252799034 -5.8974186554551125 2
    endloop
  endfacet
  facet normal 0.3851135836125666 -0.9228691823422681 0
    outer loop
      vertex -2.889694958925247 -5.81670094281435 0
      vertex -2.75419120490551 -5.760155186057091 2
      vertex -2.889694958925247 -5.81670094281435 2
    endloop
  endfacet
  facet normal 0.21024898220229235 -0.9776478739724749 0
    outer loop
      vertex -2.75419120490551 -5.760155186057091 0
      vertex -2.608153499662876 -5.72874891012907 2
      vertex -2.75419120490551 -5.760155186057091 2
    endloop
  endfacet
  facet normal 0.03716074662023661 -0.9993093009227055 0
    outer loop
      vertex -2.608153499662876 -5.72874891012907 0
      vertex -2.454080581665039 -5.723019488155842 2
      vertex -2.608153499662876 -5.72874891012907 2
    endloop
  endfacet
  facet normal -0.12471753825514774 -0.9921922876396367 0
    outer loop
      vertex -2.454080581665039 -5.723019488155842 0
      vertex -2.2946086823940277 -5.7430649399757385 2
      vertex -2.454080581665039 -5.723019488155842 2
    endloop
  endfacet
  facet normal -0.27005676562398817 -0.9628444024559266 0
    outer loop
      vertex -2.2946086823940277 -5.7430649399757385 0
      vertex -2.132466420531273 -5.788542293012142 2
      vertex -2.2946086823940277 -5.7430649399757385 2
    endloop
  endfacet
  facet normal -0.39719971458451686 -0.9177321977210882 0
    outer loop
      vertex -2.132466420531273 -5.788542293012142 0
      vertex -1.970428079366684 -5.85867340862751 2
      vertex -2.132466420531273 -5.788542293012142 2
    endloop
  endfacet
  facet normal -0.5068603143437629 -0.8620282024060129 0
    outer loop
      vertex -1.970428079366684 -5.85867340862751 0
      vertex -1.81126619130373 -5.952258333563805 2
      vertex -1.970428079366684 -5.85867340862751 2
    endloop
  endfacet
  facet normal -0.6008853173415944 -0.7993352459408326 0
    outer loop
      vertex -1.81126619130373 -5.952258333563805 0
      vertex -1.6577040553092957 -6.067695796489716 2
      vertex -1.81126619130373 -5.952258333563805 2
    endloop
  endfacet
  facet normal -0.8097670581424297 -0.5867514904517541 0
    outer loop
      vertex -1.3777482360601425 -6.355887569487095 0
      vertex -1.256144680082798 -6.523710839450359 2
      vertex -1.3777482360601425 -6.355887569487095 2
    endloop
  endfacet
  facet normal -0.8605028222667184 -0.5094456721486724 0
    outer loop
      vertex -1.256144680082798 -6.523710839450359 0
      vertex -1.1496391519904137 -6.703608937561512 2
      vertex -1.256144680082798 -6.523710839450359 2
    endloop
  endfacet
  facet normal -0.6814267314643467 -0.7318863365617758 0
    outer loop
      vertex -1.5123691633343697 -6.203010633587837 2
      vertex -1.6577040553092957 -6.067695796489716 2
      vertex -1.6577040553092957 -6.067695796489716 0
    endloop
  endfacet
  facet normal -0.7504962473169929 -0.6608747103370737 0
    outer loop
      vertex -1.5123691633343697 -6.203010633587837 0
      vertex -1.3777482360601425 -6.355887569487095 2
      vertex -1.5123691633343697 -6.203010633587837 2
    endloop
  endfacet
  facet normal -0.6929370852700907 0.720998055376983 0
    outer loop
      vertex -1.1570344343781471 -8.457906939089298 0
      vertex -1.2647346630692482 -8.561415515840054 2
      vertex -1.1570344343781471 -8.457906939089298 2
    endloop
  endfacet
  facet normal -0.8076849290979778 0.5896143275972815 0
    outer loop
      vertex -1.0661280453205109 -8.333378553390503 0
      vertex -1.1570344343781471 -8.457906939089298 2
      vertex -1.0661280453205109 -8.333378553390503 2
    endloop
  endfacet
  facet normal -0.892305847694083 0.45143136152791125 0
    outer loop
      vertex -0.9935709238052368 -8.189961083233356 0
      vertex -1.0661280453205109 -8.333378553390503 2
      vertex -0.9935709238052368 -8.189961083233356 2
    endloop
  endfacet
  facet normal -0.9492480062350533 0.3145285720865055 0
    outer loop
      vertex -0.9406045526266098 -8.030108444392681 0
      vertex -0.9935709238052368 -8.189961083233356 2
      vertex -0.9406045526266098 -8.030108444392681 2
    endloop
  endfacet
  facet normal -0.9829457421083886 0.1838958076493026 0
    outer loop
      vertex -0.9081351980566978 -7.856555745005608 0
      vertex -0.9406045526266098 -8.030108444392681 2
      vertex -0.9081351980566978 -7.856555745005608 2
    endloop
  endfacet
  facet normal -0.9675621370755446 -0.2526331547873419 0
    outer loop
      vertex -0.9889220595359802 -7.087163262069225 2
      vertex -0.9889220595359802 -7.087163262069225 0
      vertex -0.9374604001641273 -7.284256763756275 2
    endloop
  endfacet
  facet normal -0.9980864595356841 0.0618338037930976 0
    outer loop
      vertex -0.9081351980566978 -7.856555745005608 2
      vertex -0.8967184200882912 -7.67227254062891 2
      vertex -0.8967184200882912 -7.67227254062891 0
    endloop
  endfacet
  facet normal -0.9986897570957036 -0.05117391007265684 0
    outer loop
      vertex -0.9065495580434799 -7.480411946773529 0
      vertex -0.8967184200882912 -7.67227254062891 2
      vertex -0.9065495580434799 -7.480411946773529 2
    endloop
  endfacet
  facet normal -0.9878102657058555 -0.1556627089772219 0
    outer loop
      vertex -0.9374604001641273 -7.284256763756275 0
      vertex -0.9065495580434799 -7.480411946773529 2
      vertex -0.9374604001641273 -7.284256763756275 2
    endloop
  endfacet
  facet normal -0.903536672718393 -0.4285107712216525 0
    outer loop
      vertex -1.0600540041923523 -6.892503760755062 2
      vertex -1.1496391519904137 -6.703608937561512 2
      vertex -1.1496391519904137 -6.703608937561512 0
    endloop
  endfacet
  facet normal -0.9392550349065192 -0.34322001602871793 0
    outer loop
      vertex -1.0600540041923523 -6.892503760755062 0
      vertex -0.9889220595359802 -7.087163262069225 2
      vertex -1.0600540041923523 -6.892503760755062 2
    endloop
  endfacet
endsolid OpenSCAD_Model
