solid OpenSCAD_Model
  facet normal -0.9523957998031193 -0.30486429852866836 0
    outer loop
      vertex 3.847912162542343 3.1674938648939133 0
      vertex 3.6485213711857796 3.790390521287918 2
      vertex 3.6485213711857796 3.790390521287918 0
    endloop
  endfacet
  facet normal -0.9044551480499772 -0.42656873439797943 0
    outer loop
      vertex 3.847912162542343 3.1674938648939133 0
      vertex 4.126901462674141 2.575951896607876 0
      vertex 3.847912162542343 3.1674938648939133 2
    endloop
  endfacet
  facet normal -0.8410390090632089 -0.5409744774330632 0
    outer loop
      vertex 4.126901462674141 2.575951896607876 0
      vertex 4.480715699493885 2.0258860662579536 0
      vertex 4.126901462674141 2.575951896607876 2
    endloop
  endfacet
  facet normal -0.7632324695554785 -0.6461239799111664 0
    outer loop
      vertex 4.480715699493885 2.0258860662579536 0
      vertex 4.903301000595093 1.526708148419857 0
      vertex 4.480715699493885 2.0258860662579536 2
    endloop
  endfacet
  facet normal -0.6723668127265694 -0.7402181226800073 0
    outer loop
      vertex 4.903301000595093 1.526708148419857 0
      vertex 5.387426815927029 1.0869592130184174 0
      vertex 4.903301000595093 1.526708148419857 2
    endloop
  endfacet
  facet normal -0.5699967572569271 -0.8216469416462204 0
    outer loop
      vertex 5.924809627234936 0.7141634970903397 0
      vertex 5.387426815927029 1.0869592130184174 2
      vertex 5.387426815927029 1.0869592130184174 0
    endloop
  endfacet
  facet normal -0.9840406976459792 -0.17794354547556465 0
    outer loop
      vertex 3.6485213711857796 3.790390521287918 0
      vertex 3.532140724360943 4.43398392945528 2
      vertex 3.532140724360943 4.43398392945528 0
    endloop
  endfacet
  facet normal -0.9988483862702531 -0.04797813299109597 0
    outer loop
      vertex 3.532140724360943 4.43398392945528 0
      vertex 3.5007615238428116 5.087262034416199 2
      vertex 3.5007615238428116 5.087262034416199 0
    endloop
  endfacet
  facet normal -0.9965655027499011 0.08280820447779962 0
    outer loop
      vertex 3.5007615238428116 5.087262034416199 0
      vertex 3.554920680820942 5.739047057926655 2
      vertex 3.554920680820942 5.739047057926655 0
    endloop
  endfacet
  facet normal -0.977231104928043 0.21217767922455036 0
    outer loop
      vertex 3.554920680820942 5.739047057926655 0
      vertex 3.693691521883011 6.3781867772340775 2
      vertex 3.693691521883011 6.3781867772340775 0
    endloop
  endfacet
  facet normal -0.9411760154433322 0.33791671748259583 0
    outer loop
      vertex 3.693691521883011 6.3781867772340775 0
      vertex 3.9146996289491653 6.993745341897011 2
      vertex 3.9146996289491653 6.993745341897011 0
    endloop
  endfacet
  facet normal 0 0 -1
    outer loop
      vertex 4.126901462674141 2.575951896607876 0
      vertex 13.085300371050835 3.006254658102989 0
      vertex 4.480715699493885 2.0258860662579536 0
    endloop
  endfacet
  facet normal 0 0 -1
    outer loop
      vertex 3.847912162542343 3.1674938648939133 0
      vertex 13.30630847811699 3.6218132227659225 0
      vertex 4.126901462674141 2.575951896607876 0
    endloop
  endfacet
  facet normal 0 0 -1
    outer loop
      vertex 5.924809627234936 0.7141634970903397 0
      vertex 5.387426815927029 1.0869592130184174 0
      vertex 11.973291851580143 1.4033010005950928 0
    endloop
  endfacet
  facet normal 0 0 -1
    outer loop
      vertex 4.903301000595093 1.526708148419857 0
      vertex 12.413040786981583 1.8874268159270287 0
      vertex 5.387426815927029 1.0869592130184174 0
    endloop
  endfacet
  facet normal 0 0 -1
    outer loop
      vertex 6.506254658102989 0.41469962894916534 0
      vertex 10.924048103392124 0.6269014626741409 0
      vertex 7.1218132227659225 0.19369152188301086 0
    endloop
  endfacet
  facet normal 0 0 -1
    outer loop
      vertex 5.924809627234936 0.7141634970903397 0
      vertex 11.474113933742046 0.980715699493885 0
      vertex 6.506254658102989 0.41469962894916534 0
    endloop
  endfacet
  facet normal 0 0 -1
    outer loop
      vertex 7.1218132227659225 0.19369152188301086 0
      vertex 10.332506135106087 0.34791216254234314 0
      vertex 7.760952942073345 0.054920680820941925 0
    endloop
  endfacet
  facet normal 0 0 -1
    outer loop
      vertex 4.480715699493885 2.0258860662579536 0
      vertex 12.78583650290966 2.4248096272349358 0
      vertex 4.903301000595093 1.526708148419857 0
    endloop
  endfacet
  facet normal -0.45787391419844875 -0.8890171419587992 0
    outer loop
      vertex 5.924809627234936 0.7141634970903397 0
      vertex 6.506254658102989 0.41469962894916534 0
      vertex 5.924809627234936 0.7141634970903397 2
    endloop
  endfacet
  facet normal -0.33791671748259583 -0.9411760154433322 0
    outer loop
      vertex 6.506254658102989 0.41469962894916534 0
      vertex 7.1218132227659225 0.19369152188301086 0
      vertex 6.506254658102989 0.41469962894916534 2
    endloop
  endfacet
  facet normal -0.21217767922455036 -0.977231104928043 0
    outer loop
      vertex 7.1218132227659225 0.19369152188301086 0
      vertex 7.760952942073345 0.054920680820941925 0
      vertex 7.1218132227659225 0.19369152188301086 2
    endloop
  endfacet
  facet normal -0.08280820447779962 -0.9965655027499011 0
    outer loop
      vertex 7.760952942073345 0.054920680820941925 0
      vertex 8.412737965583801 0.0007615238428115845 0
      vertex 7.760952942073345 0.054920680820941925 2
    endloop
  endfacet
  facet normal 0 0 -1
    outer loop
      vertex 3.6485213711857796 3.790390521287918 0
      vertex 3.532140724360943 4.43398392945528 0
      vertex 13.499238476157188 4.912737965583801 0
    endloop
  endfacet
  facet normal 0 0 -1
    outer loop
      vertex 3.847912162542343 3.1674938648939133 0
      vertex 3.6485213711857796 3.790390521287918 0
      vertex 13.445079319179058 4.260952942073345 0
    endloop
  endfacet
  facet normal 0 0 -1
    outer loop
      vertex 3.532140724360943 4.43398392945528 0
      vertex 3.5007615238428116 5.087262034416199 0
      vertex 13.467859275639057 5.56601607054472 0
    endloop
  endfacet
  facet normal 0 0 -1
    outer loop
      vertex 3.5007615238428116 5.087262034416199 0
      vertex 3.554920680820942 5.739047057926655 0
      vertex 13.35147862881422 6.209609478712082 0
    endloop
  endfacet
  facet normal -0.9523957998031193 -0.30486429852866836 0
    outer loop
      vertex 3.847912162542343 3.1674938648939133 0
      vertex 3.847912162542343 3.1674938648939133 2
      vertex 3.6485213711857796 3.790390521287918 2
    endloop
  endfacet
  facet normal -0.9044551480499772 -0.42656873439797943 0
    outer loop
      vertex 4.126901462674141 2.575951896607876 0
      vertex 4.126901462674141 2.575951896607876 2
      vertex 3.847912162542343 3.1674938648939133 2
    endloop
  endfacet
  facet normal -0.8410390090632089 -0.5409744774330632 0
    outer loop
      vertex 4.480715699493885 2.0258860662579536 0
      vertex 4.480715699493885 2.0258860662579536 2
      vertex 4.126901462674141 2.575951896607876 2
    endloop
  endfacet
  facet normal -0.7632324695554785 -0.6461239799111664 0
    outer loop
      vertex 4.903301000595093 1.526708148419857 0
      vertex 4.903301000595093 1.526708148419857 2
      vertex 4.480715699493885 2.0258860662579536 2
    endloop
  endfacet
  facet normal -0.6723668127265694 -0.7402181226800073 0
    outer loop
      vertex 5.387426815927029 1.0869592130184174 0
      vertex 5.387426815927029 1.0869592130184174 2
      vertex 4.903301000595093 1.526708148419857 2
    endloop
  endfacet
  facet normal -0.5699967572569271 -0.8216469416462204 0
    outer loop
      vertex 5.924809627234936 0.7141634970903397 0
      vertex 5.924809627234936 0.7141634970903397 2
      vertex 5.387426815927029 1.0869592130184174 2
    endloop
  endfacet
  facet normal -0.9840406976459792 -0.17794354547556465 0
    outer loop
      vertex 3.6485213711857796 3.790390521287918 0
      vertex 3.6485213711857796 3.790390521287918 2
      vertex 3.532140724360943 4.43398392945528 2
    endloop
  endfacet
  facet normal -0.9988483862702531 -0.04797813299109597 0
    outer loop
      vertex 3.532140724360943 4.43398392945528 0
      vertex 3.532140724360943 4.43398392945528 2
      vertex 3.5007615238428116 5.087262034416199 2
    endloop
  endfacet
  facet normal -0.9965655027499011 0.08280820447779962 0
    outer loop
      vertex 3.5007615238428116 5.087262034416199 0
      vertex 3.5007615238428116 5.087262034416199 2
      vertex 3.554920680820942 5.739047057926655 2
    endloop
  endfacet
  facet normal -0.977231104928043 0.21217767922455036 0
    outer loop
      vertex 3.554920680820942 5.739047057926655 0
      vertex 3.554920680820942 5.739047057926655 2
      vertex 3.693691521883011 6.3781867772340775 2
    endloop
  endfacet
  facet normal -0.9411760154433322 0.33791671748259583 0
    outer loop
      vertex 3.693691521883011 6.3781867772340775 0
      vertex 3.693691521883011 6.3781867772340775 2
      vertex 3.9146996289491653 6.993745341897011 2
    endloop
  endfacet
  facet normal -0.8890171419587992 0.45787391419844875 0
    outer loop
      vertex 3.9146996289491653 6.993745341897011 0
      vertex 3.9146996289491653 6.993745341897011 2
      vertex 4.21416349709034 7.575190372765064 2
    endloop
  endfacet
  facet normal -0.45787391419844875 -0.8890171419587992 0
    outer loop
      vertex 6.506254658102989 0.41469962894916534 0
      vertex 6.506254658102989 0.41469962894916534 2
      vertex 5.924809627234936 0.7141634970903397 2
    endloop
  endfacet
  facet normal -0.33791671748259583 -0.9411760154433322 0
    outer loop
      vertex 7.1218132227659225 0.19369152188301086 0
      vertex 7.1218132227659225 0.19369152188301086 2
      vertex 6.506254658102989 0.41469962894916534 2
    endloop
  endfacet
  facet normal -0.21217767922455036 -0.977231104928043 0
    outer loop
      vertex 7.760952942073345 0.054920680820941925 0
      vertex 7.760952942073345 0.054920680820941925 2
      vertex 7.1218132227659225 0.19369152188301086 2
    endloop
  endfacet
  facet normal -0.08280820447779962 -0.9965655027499011 0
    outer loop
      vertex 8.412737965583801 0.0007615238428115845 0
      vertex 8.412737965583801 0.0007615238428115845 2
      vertex 7.760952942073345 0.054920680820941925 2
    endloop
  endfacet
  facet normal 0 0 1
    outer loop
      vertex 4.126901462674141 2.575951896607876 2
      vertex 4.480715699493885 2.0258860662579536 2
      vertex 13.085300371050835 3.006254658102989 2
    endloop
  endfacet
  facet normal 0 0 1
    outer loop
      vertex 3.847912162542343 3.1674938648939133 2
      vertex 4.126901462674141 2.575951896607876 2
      vertex 13.30630847811699 3.6218132227659225 2
    endloop
  endfacet
  facet normal 0 0 1
    outer loop
      vertex 5.924809627234936 0.7141634970903397 2
      vertex 11.973291851580143 1.4033010005950928 2
      vertex 5.387426815927029 1.0869592130184174 2
    endloop
  endfacet
  facet normal 0 0 1
    outer loop
      vertex 4.903301000595093 1.526708148419857 2
      vertex 5.387426815927029 1.0869592130184174 2
      vertex 12.413040786981583 1.8874268159270287 2
    endloop
  endfacet
  facet normal 0 0 1
    outer loop
      vertex 6.506254658102989 0.41469962894916534 2
      vertex 7.1218132227659225 0.19369152188301086 2
      vertex 10.924048103392124 0.6269014626741409 2
    endloop
  endfacet
  facet normal 0 0 1
    outer loop
      vertex 5.924809627234936 0.7141634970903397 2
      vertex 6.506254658102989 0.41469962894916534 2
      vertex 11.474113933742046 0.980715699493885 2
    endloop
  endfacet
  facet normal 0 0 1
    outer loop
      vertex 7.1218132227659225 0.19369152188301086 2
      vertex 7.760952942073345 0.054920680820941925 2
      vertex 10.332506135106087 0.34791216254234314 2
    endloop
  endfacet
  facet normal 0 0 1
    outer loop
      vertex 4.480715699493885 2.0258860662579536 2
      vertex 4.903301000595093 1.526708148419857 2
      vertex 12.78583650290966 2.4248096272349358 2
    endloop
  endfacet
  facet normal 0 0 1
    outer loop
      vertex 3.6485213711857796 3.790390521287918 2
      vertex 13.499238476157188 4.912737965583801 2
      vertex 3.532140724360943 4.43398392945528 2
    endloop
  endfacet
  facet normal 0 0 1
    outer loop
      vertex 3.847912162542343 3.1674938648939133 2
      vertex 13.445079319179058 4.260952942073345 2
      vertex 3.6485213711857796 3.790390521287918 2
    endloop
  endfacet
  facet normal 0 0 1
    outer loop
      vertex 3.532140724360943 4.43398392945528 2
      vertex 13.467859275639057 5.56601607054472 2
      vertex 3.5007615238428116 5.087262034416199 2
    endloop
  endfacet
  facet normal 0 0 1
    outer loop
      vertex 3.5007615238428116 5.087262034416199 2
      vertex 13.35147862881422 6.209609478712082 2
      vertex 3.554920680820942 5.739047057926655 2
    endloop
  endfacet
  facet normal -0.8890171419587992 0.45787391419844875 0
    outer loop
      vertex 3.9146996289491653 6.993745341897011 0
      vertex 4.21416349709034 7.575190372765064 2
      vertex 4.21416349709034 7.575190372765064 0
    endloop
  endfacet
  facet normal -0.8216469416462204 0.5699967572569271 0
    outer loop
      vertex 4.21416349709034 7.575190372765064 0
      vertex 4.586959213018417 8.112573184072971 2
      vertex 4.586959213018417 8.112573184072971 0
    endloop
  endfacet
  facet normal -0.7402181226800073 0.6723668127265694 0
    outer loop
      vertex 4.586959213018417 8.112573184072971 0
      vertex 5.026708148419857 8.596698999404907 2
      vertex 5.026708148419857 8.596698999404907 0
    endloop
  endfacet
  facet normal 0 0 -1
    outer loop
      vertex 3.554920680820942 5.739047057926655 0
      vertex 3.693691521883011 6.3781867772340775 0
      vertex 11.825882121920586 14.08520820736885 0
    endloop
  endfacet
  facet normal 0 0 -1
    outer loop
      vertex 3.693691521883011 6.3781867772340775 0
      vertex 3.9146996289491653 6.993745341897011 0
      vertex 11.793979592621326 14.184871666133404 0
    endloop
  endfacet
  facet normal 0 0 -1
    outer loop
      vertex 3.9146996289491653 6.993745341897011 0
      vertex 4.21416349709034 7.575190372765064 0
      vertex 11.749341309070587 14.279518380761147 0
    endloop
  endfacet
  facet normal 0 0 -1
    outer loop
      vertex 4.21416349709034 7.575190372765064 0
      vertex 4.586959213018417 8.112573184072971 0
      vertex 11.692731030285358 14.367528915405273 0
    endloop
  endfacet
  facet normal 0 0 -1
    outer loop
      vertex 4.586959213018417 8.112573184072971 0
      vertex 5.026708148419857 8.596698999404907 0
      vertex 11.625117383897305 14.447397381067276 0
    endloop
  endfacet
  facet normal -0.8216469416462204 0.5699967572569271 0
    outer loop
      vertex 4.21416349709034 7.575190372765064 0
      vertex 4.21416349709034 7.575190372765064 2
      vertex 4.586959213018417 8.112573184072971 2
    endloop
  endfacet
  facet normal -0.7402181226800073 0.6723668127265694 0
    outer loop
      vertex 4.586959213018417 8.112573184072971 0
      vertex 4.586959213018417 8.112573184072971 2
      vertex 5.026708148419857 8.596698999404907 2
    endloop
  endfacet
  facet normal -0.7317929193834112 0.6815270523906621 0
    outer loop
      vertex 5.026708148419857 8.596698999404907 0
      vertex 5.026708148419857 8.596698999404907 2
      vertex 10.493918843567371 14.467142529785633 2
    endloop
  endfacet
  facet normal 0 0 1
    outer loop
      vertex 3.554920680820942 5.739047057926655 2
      vertex 11.825882121920586 14.08520820736885 2
      vertex 3.693691521883011 6.3781867772340775 2
    endloop
  endfacet
  facet normal 0 0 1
    outer loop
      vertex 3.693691521883011 6.3781867772340775 2
      vertex 11.793979592621326 14.184871666133404 2
      vertex 3.9146996289491653 6.993745341897011 2
    endloop
  endfacet
  facet normal 0 0 1
    outer loop
      vertex 3.9146996289491653 6.993745341897011 2
      vertex 11.749341309070587 14.279518380761147 2
      vertex 4.21416349709034 7.575190372765064 2
    endloop
  endfacet
  facet normal 0 0 1
    outer loop
      vertex 4.21416349709034 7.575190372765064 2
      vertex 11.692731030285358 14.367528915405273 2
      vertex 4.586959213018417 8.112573184072971 2
    endloop
  endfacet
  facet normal 0 0 1
    outer loop
      vertex 4.586959213018417 8.112573184072971 2
      vertex 11.625117383897305 14.447397381067276 2
      vertex 5.026708148419857 8.596698999404907 2
    endloop
  endfacet
  facet normal 0 0 -1
    outer loop
      vertex 7.760952942073345 0.054920680820941925 0
      vertex 9.709609478712082 0.14852137118577957 0
      vertex 8.412737965583801 0.0007615238428115845 0
    endloop
  endfacet
  facet normal 0 0 -1
    outer loop
      vertex 8.412737965583801 0.0007615238428115845 0
      vertex 9.709609478712082 0.14852137118577957 0
      vertex 9.06601607054472 0.03214072436094284 0
    endloop
  endfacet
  facet normal 0 0 -1
    outer loop
      vertex 7.760952942073345 0.054920680820941925 0
      vertex 10.332506135106087 0.34791216254234314 0
      vertex 9.709609478712082 0.14852137118577957 0
    endloop
  endfacet
  facet normal 0 0 -1
    outer loop
      vertex 7.1218132227659225 0.19369152188301086 0
      vertex 10.924048103392124 0.6269014626741409 0
      vertex 10.332506135106087 0.34791216254234314 0
    endloop
  endfacet
  facet normal 0 0 -1
    outer loop
      vertex 6.506254658102989 0.41469962894916534 0
      vertex 11.474113933742046 0.980715699493885 0
      vertex 10.924048103392124 0.6269014626741409 0
    endloop
  endfacet
  facet normal 0 0 -1
    outer loop
      vertex 5.924809627234936 0.7141634970903397 0
      vertex 11.973291851580143 1.4033010005950928 0
      vertex 11.474113933742046 0.980715699493885 0
    endloop
  endfacet
  facet normal 0 0 -1
    outer loop
      vertex 5.387426815927029 1.0869592130184174 0
      vertex 12.413040786981583 1.8874268159270287 0
      vertex 11.973291851580143 1.4033010005950928 0
    endloop
  endfacet
  facet normal 0 0 -1
    outer loop
      vertex 4.903301000595093 1.526708148419857 0
      vertex 12.78583650290966 2.4248096272349358 0
      vertex 12.413040786981583 1.8874268159270287 0
    endloop
  endfacet
  facet normal 0 0 -1
    outer loop
      vertex 4.480715699493885 2.0258860662579536 0
      vertex 13.085300371050835 3.006254658102989 0
      vertex 12.78583650290966 2.4248096272349358 0
    endloop
  endfacet
  facet normal 0 0 -1
    outer loop
      vertex 4.126901462674141 2.575951896607876 0
      vertex 13.30630847811699 3.6218132227659225 0
      vertex 13.085300371050835 3.006254658102989 0
    endloop
  endfacet
  facet normal 0.04797813299109597 -0.9988483862702531 0
    outer loop
      vertex 8.412737965583801 0.0007615238428115845 0
      vertex 9.06601607054472 0.03214072436094284 0
      vertex 8.412737965583801 0.0007615238428115845 2
    endloop
  endfacet
  facet normal 0.17794354547556465 -0.9840406976459792 0
    outer loop
      vertex 9.06601607054472 0.03214072436094284 0
      vertex 9.709609478712082 0.14852137118577957 0
      vertex 9.06601607054472 0.03214072436094284 2
    endloop
  endfacet
  facet normal 0.30486429852866836 -0.9523957998031193 0
    outer loop
      vertex 9.709609478712082 0.14852137118577957 0
      vertex 10.332506135106087 0.34791216254234314 0
      vertex 9.709609478712082 0.14852137118577957 2
    endloop
  endfacet
  facet normal 0.42656873439797943 -0.9044551480499772 0
    outer loop
      vertex 10.332506135106087 0.34791216254234314 0
      vertex 10.924048103392124 0.6269014626741409 0
      vertex 10.332506135106087 0.34791216254234314 2
    endloop
  endfacet
  facet normal 0 0 -1
    outer loop
      vertex 3.847912162542343 3.1674938648939133 0
      vertex 13.445079319179058 4.260952942073345 0
      vertex 13.30630847811699 3.6218132227659225 0
    endloop
  endfacet
  facet normal 0 0 -1
    outer loop
      vertex 3.6485213711857796 3.790390521287918 0
      vertex 13.499238476157188 4.912737965583801 0
      vertex 13.445079319179058 4.260952942073345 0
    endloop
  endfacet
  facet normal 0 0 -1
    outer loop
      vertex 3.532140724360943 4.43398392945528 0
      vertex 13.467859275639057 5.56601607054472 0
      vertex 13.499238476157188 4.912737965583801 0
    endloop
  endfacet
  facet normal 0 0 -1
    outer loop
      vertex 3.5007615238428116 5.087262034416199 0
      vertex 13.35147862881422 6.209609478712082 0
      vertex 13.467859275639057 5.56601607054472 0
    endloop
  endfacet
  facet normal 0.5409744774330632 -0.8410390090632089 0
    outer loop
      vertex 10.924048103392124 0.6269014626741409 0
      vertex 11.474113933742046 0.980715699493885 0
      vertex 10.924048103392124 0.6269014626741409 2
    endloop
  endfacet
  facet normal 0.6461239799111664 -0.7632324695554785 0
    outer loop
      vertex 11.474113933742046 0.980715699493885 0
      vertex 11.973291851580143 1.4033010005950928 0
      vertex 11.474113933742046 0.980715699493885 2
    endloop
  endfacet
  facet normal 0.7402181226800073 -0.6723668127265694 0
    outer loop
      vertex 11.973291851580143 1.4033010005950928 0
      vertex 12.413040786981583 1.8874268159270287 0
      vertex 11.973291851580143 1.4033010005950928 2
    endloop
  endfacet
  facet normal 0.8216469416462204 -0.5699967572569271 0
    outer loop
      vertex 12.413040786981583 1.8874268159270287 0
      vertex 12.78583650290966 2.4248096272349358 0
      vertex 12.413040786981583 1.8874268159270287 2
    endloop
  endfacet
  facet normal 0.8890171419587992 -0.45787391419844875 0
    outer loop
      vertex 12.78583650290966 2.4248096272349358 0
      vertex 13.085300371050835 3.006254658102989 0
      vertex 12.78583650290966 2.4248096272349358 2
    endloop
  endfacet
  facet normal 0.9411760154433322 -0.33791671748259583 0
    outer loop
      vertex 13.085300371050835 3.006254658102989 0
      vertex 13.30630847811699 3.6218132227659225 0
      vertex 13.085300371050835 3.006254658102989 2
    endloop
  endfacet
  facet normal 0.977231104928043 -0.21217767922455036 0
    outer loop
      vertex 13.30630847811699 3.6218132227659225 0
      vertex 13.445079319179058 4.260952942073345 0
      vertex 13.30630847811699 3.6218132227659225 2
    endloop
  endfacet
  facet normal 0.9965655027499011 -0.08280820447779962 0
    outer loop
      vertex 13.445079319179058 4.260952942073345 0
      vertex 13.499238476157188 4.912737965583801 0
      vertex 13.445079319179058 4.260952942073345 2
    endloop
  endfacet
  facet normal 0.9988483862702531 0.04797813299109597 0
    outer loop
      vertex 13.499238476157188 4.912737965583801 0
      vertex 13.467859275639057 5.56601607054472 0
      vertex 13.499238476157188 4.912737965583801 2
    endloop
  endfacet
  facet normal 0.9840406976459792 0.17794354547556465 0
    outer loop
      vertex 13.467859275639057 5.56601607054472 0
      vertex 13.35147862881422 6.209609478712082 0
      vertex 13.467859275639057 5.56601607054472 2
    endloop
  endfacet
  facet normal 0.04797813299109597 -0.9988483862702531 0
    outer loop
      vertex 8.412737965583801 0.0007615238428115845 2
      vertex 9.06601607054472 0.03214072436094284 0
      vertex 9.06601607054472 0.03214072436094284 2
    endloop
  endfacet
  facet normal 0.17794354547556465 -0.9840406976459792 0
    outer loop
      vertex 9.709609478712082 0.14852137118577957 0
      vertex 9.709609478712082 0.14852137118577957 2
      vertex 9.06601607054472 0.03214072436094284 2
    endloop
  endfacet
  facet normal 0.30486429852866836 -0.9523957998031193 0
    outer loop
      vertex 10.332506135106087 0.34791216254234314 0
      vertex 10.332506135106087 0.34791216254234314 2
      vertex 9.709609478712082 0.14852137118577957 2
    endloop
  endfacet
  facet normal 0.42656873439797943 -0.9044551480499772 0
    outer loop
      vertex 10.924048103392124 0.6269014626741409 0
      vertex 10.924048103392124 0.6269014626741409 2
      vertex 10.332506135106087 0.34791216254234314 2
    endloop
  endfacet
  facet normal 0 0 1
    outer loop
      vertex 7.760952942073345 0.054920680820941925 2
      vertex 8.412737965583801 0.0007615238428115845 2
      vertex 9.709609478712082 0.14852137118577957 2
    endloop
  endfacet
  facet normal 0 0 1
    outer loop
      vertex 8.412737965583801 0.0007615238428115845 2
      vertex 9.06601607054472 0.03214072436094284 2
      vertex 9.709609478712082 0.14852137118577957 2
    endloop
  endfacet
  facet normal 0 0 1
    outer loop
      vertex 7.760952942073345 0.054920680820941925 2
      vertex 9.709609478712082 0.14852137118577957 2
      vertex 10.332506135106087 0.34791216254234314 2
    endloop
  endfacet
  facet normal 0 0 1
    outer loop
      vertex 7.1218132227659225 0.19369152188301086 2
      vertex 10.332506135106087 0.34791216254234314 2
      vertex 10.924048103392124 0.6269014626741409 2
    endloop
  endfacet
  facet normal 0 0 1
    outer loop
      vertex 6.506254658102989 0.41469962894916534 2
      vertex 10.924048103392124 0.6269014626741409 2
      vertex 11.474113933742046 0.980715699493885 2
    endloop
  endfacet
  facet normal 0 0 1
    outer loop
      vertex 5.924809627234936 0.7141634970903397 2
      vertex 11.474113933742046 0.980715699493885 2
      vertex 11.973291851580143 1.4033010005950928 2
    endloop
  endfacet
  facet normal 0 0 1
    outer loop
      vertex 5.387426815927029 1.0869592130184174 2
      vertex 11.973291851580143 1.4033010005950928 2
      vertex 12.413040786981583 1.8874268159270287 2
    endloop
  endfacet
  facet normal 0 0 1
    outer loop
      vertex 4.903301000595093 1.526708148419857 2
      vertex 12.413040786981583 1.8874268159270287 2
      vertex 12.78583650290966 2.4248096272349358 2
    endloop
  endfacet
  facet normal 0 0 1
    outer loop
      vertex 4.480715699493885 2.0258860662579536 2
      vertex 12.78583650290966 2.4248096272349358 2
      vertex 13.085300371050835 3.006254658102989 2
    endloop
  endfacet
  facet normal 0 0 1
    outer loop
      vertex 4.126901462674141 2.575951896607876 2
      vertex 13.085300371050835 3.006254658102989 2
      vertex 13.30630847811699 3.6218132227659225 2
    endloop
  endfacet
  facet normal 0 0 1
    outer loop
      vertex 3.847912162542343 3.1674938648939133 2
      vertex 13.30630847811699 3.6218132227659225 2
      vertex 13.445079319179058 4.260952942073345 2
    endloop
  endfacet
  facet normal 0 0 1
    outer loop
      vertex 3.6485213711857796 3.790390521287918 2
      vertex 13.445079319179058 4.260952942073345 2
      vertex 13.499238476157188 4.912737965583801 2
    endloop
  endfacet
  facet normal 0 0 1
    outer loop
      vertex 3.532140724360943 4.43398392945528 2
      vertex 13.499238476157188 4.912737965583801 2
      vertex 13.467859275639057 5.56601607054472 2
    endloop
  endfacet
  facet normal 0 0 1
    outer loop
      vertex 3.5007615238428116 5.087262034416199 2
      vertex 13.467859275639057 5.56601607054472 2
      vertex 13.35147862881422 6.209609478712082 2
    endloop
  endfacet
  facet normal 0.5409744774330632 -0.8410390090632089 0
    outer loop
      vertex 11.474113933742046 0.980715699493885 0
      vertex 11.474113933742046 0.980715699493885 2
      vertex 10.924048103392124 0.6269014626741409 2
    endloop
  endfacet
  facet normal 0.6461239799111664 -0.7632324695554785 0
    outer loop
      vertex 11.973291851580143 1.4033010005950928 0
      vertex 11.973291851580143 1.4033010005950928 2
      vertex 11.474113933742046 0.980715699493885 2
    endloop
  endfacet
  facet normal 0.7402181226800073 -0.6723668127265694 0
    outer loop
      vertex 12.413040786981583 1.8874268159270287 0
      vertex 12.413040786981583 1.8874268159270287 2
      vertex 11.973291851580143 1.4033010005950928 2
    endloop
  endfacet
  facet normal 0.8216469416462204 -0.5699967572569271 0
    outer loop
      vertex 12.78583650290966 2.4248096272349358 0
      vertex 12.78583650290966 2.4248096272349358 2
      vertex 12.413040786981583 1.8874268159270287 2
    endloop
  endfacet
  facet normal 0.8890171419587992 -0.45787391419844875 0
    outer loop
      vertex 13.085300371050835 3.006254658102989 0
      vertex 13.085300371050835 3.006254658102989 2
      vertex 12.78583650290966 2.4248096272349358 2
    endloop
  endfacet
  facet normal 0.9411760154433322 -0.33791671748259583 0
    outer loop
      vertex 13.30630847811699 3.6218132227659225 0
      vertex 13.30630847811699 3.6218132227659225 2
      vertex 13.085300371050835 3.006254658102989 2
    endloop
  endfacet
  facet normal 0.977231104928043 -0.21217767922455036 0
    outer loop
      vertex 13.445079319179058 4.260952942073345 0
      vertex 13.445079319179058 4.260952942073345 2
      vertex 13.30630847811699 3.6218132227659225 2
    endloop
  endfacet
  facet normal 0.9965655027499011 -0.08280820447779962 0
    outer loop
      vertex 13.499238476157188 4.912737965583801 0
      vertex 13.499238476157188 4.912737965583801 2
      vertex 13.445079319179058 4.260952942073345 2
    endloop
  endfacet
  facet normal 0.9988483862702531 0.04797813299109597 0
    outer loop
      vertex 13.467859275639057 5.56601607054472 0
      vertex 13.467859275639057 5.56601607054472 2
      vertex 13.499238476157188 4.912737965583801 2
    endloop
  endfacet
  facet normal 0.9840406976459792 0.17794354547556465 0
    outer loop
      vertex 13.35147862881422 6.209609478712082 0
      vertex 13.35147862881422 6.209609478712082 2
      vertex 13.467859275639057 5.56601607054472 2
    endloop
  endfacet
  facet normal 0 0 -1
    outer loop
      vertex 3.554920680820942 5.739047057926655 0
      vertex 11.825882121920586 14.08520820736885 0
      vertex 13.35147862881422 6.209609478712082 0
    endloop
  endfacet
  facet normal 0 0 -1
    outer loop
      vertex 3.693691521883011 6.3781867772340775 0
      vertex 11.793979592621326 14.184871666133404 0
      vertex 11.825882121920586 14.08520820736885 0
    endloop
  endfacet
  facet normal 0 0 -1
    outer loop
      vertex 5.026708148419857 8.596698999404907 0
      vertex 10.493918843567371 14.467142529785633 0
      vertex 11.547657251358032 14.517757214605808 0
    endloop
  endfacet
  facet normal 0 0 -1
    outer loop
      vertex 3.9146996289491653 6.993745341897011 0
      vertex 11.749341309070587 14.279518380761147 0
      vertex 11.793979592621326 14.184871666133404 0
    endloop
  endfacet
  facet normal 0 0 -1
    outer loop
      vertex 4.21416349709034 7.575190372765064 0
      vertex 11.692731030285358 14.367528915405273 0
      vertex 11.749341309070587 14.279518380761147 0
    endloop
  endfacet
  facet normal 0 0 -1
    outer loop
      vertex 4.586959213018417 8.112573184072971 0
      vertex 11.625117383897305 14.447397381067276 0
      vertex 11.692731030285358 14.367528915405273 0
    endloop
  endfacet
  facet normal 0 0 -1
    outer loop
      vertex 5.026708148419857 8.596698999404907 0
      vertex 11.547657251358032 14.517757214605808 0
      vertex 11.625117383897305 14.447397381067276 0
    endloop
  endfacet
  facet normal 0 0 -1
    outer loop
      vertex 10.493918843567371 14.467142529785633 0
      vertex 10.573787309229374 14.534756176173687 0
      vertex 11.461676001548767 14.577404528856277 0
    endloop
  endfacet
  facet normal 0 0 -1
    outer loop
      vertex 10.573787309229374 14.534756176173687 0
      vertex 10.6617978438735 14.591366454958916 0
      vertex 11.368644796311855 14.625318743288517 0
    endloop
  endfacet
  facet normal 0 0 -1
    outer loop
      vertex 10.6617978438735 14.591366454958916 0
      vertex 10.756444558501244 14.636004738509655 0
      vertex 11.270155422389507 14.660680040717125 0
    endloop
  endfacet
  facet normal 0 0 -1
    outer loop
      vertex 10.756444558501244 14.636004738509655 0
      vertex 10.856108024716377 14.667907267808914 0
      vertex 11.167893067002296 14.682883381843567 0
    endloop
  endfacet
  facet normal 0 0 -1
    outer loop
      vertex 10.856108024716377 14.667907267808914 0
      vertex 10.959082968533039 14.686528168618679 0
      vertex 11.063607469201088 14.691548846662045 0
    endloop
  endfacet
  facet normal -0.7317929193834112 0.6815270523906621 2.0759590246099328e-17
    outer loop
      vertex 5.026708148419857 8.596698999404907 0
      vertex 10.493918843567371 14.467142529785633 2
      vertex 10.493918843567371 14.467142529785633 0
    endloop
  endfacet
  facet normal -0.6461239755749663 0.7632324732263431 0
    outer loop
      vertex 10.493918843567371 14.467142529785633 0
      vertex 10.573787309229374 14.534756176173687 2
      vertex 10.573787309229374 14.534756176173687 0
    endloop
  endfacet
  facet normal -0.5409744757019569 0.8410390101766938 0
    outer loop
      vertex 10.573787309229374 14.534756176173687 0
      vertex 10.6617978438735 14.591366454958916 2
      vertex 10.6617978438735 14.591366454958916 0
    endloop
  endfacet
  facet normal -0.42656870055079443 0.9044551640133449 0
    outer loop
      vertex 10.6617978438735 14.591366454958916 0
      vertex 10.756444558501244 14.636004738509655 2
      vertex 10.756444558501244 14.636004738509655 0
    endloop
  endfacet
  facet normal -0.3048643184703032 0.9523957934197512 0
    outer loop
      vertex 10.756444558501244 14.636004738509655 0
      vertex 10.856108024716377 14.667907267808914 2
      vertex 10.856108024716377 14.667907267808914 0
    endloop
  endfacet
  facet normal -0.1779435231490811 0.984040701683265 0
    outer loop
      vertex 10.856108024716377 14.667907267808914 0
      vertex 10.959082968533039 14.686528168618679 2
      vertex 10.959082968533039 14.686528168618679 0
    endloop
  endfacet
  facet normal 0.9817499061774729 0.19017655407679177 0
    outer loop
      vertex 13.35147862881422 6.209609478712082 0
      vertex 11.825882121920586 14.08520820736885 0
      vertex 13.35147862881422 6.209609478712082 2
    endloop
  endfacet
  facet normal 0 0 -1
    outer loop
      vertex 10.856108024716377 14.667907267808914 0
      vertex 11.063607469201088 14.691548846662045 0
      vertex 11.167893067002296 14.682883381843567 0
    endloop
  endfacet
  facet normal 0 0 -1
    outer loop
      vertex 10.756444558501244 14.636004738509655 0
      vertex 11.167893067002296 14.682883381843567 0
      vertex 11.270155422389507 14.660680040717125 0
    endloop
  endfacet
  facet normal 0 0 -1
    outer loop
      vertex 10.6617978438735 14.591366454958916 0
      vertex 11.270155422389507 14.660680040717125 0
      vertex 11.368644796311855 14.625318743288517 0
    endloop
  endfacet
  facet normal 0 0 -1
    outer loop
      vertex 10.573787309229374 14.534756176173687 0
      vertex 11.368644796311855 14.625318743288517 0
      vertex 11.461676001548767 14.577404528856277 0
    endloop
  endfacet
  facet normal 0 0 -1
    outer loop
      vertex 10.493918843567371 14.467142529785633 0
      vertex 11.461676001548767 14.577404528856277 0
      vertex 11.547657251358032 14.517757214605808 0
    endloop
  endfacet
  facet normal -0.04797818804461715 0.9988483836258412 0
    outer loop
      vertex 10.959082968533039 14.686528168618679 0
      vertex 11.063607469201088 14.691548846662045 2
      vertex 11.063607469201088 14.691548846662045 0
    endloop
  endfacet
  facet normal 0.0828082063498485 0.9965655025943457 0
    outer loop
      vertex 11.063607469201088 14.691548846662045 0
      vertex 11.167893067002296 14.682883381843567 2
      vertex 11.167893067002296 14.682883381843567 0
    endloop
  endfacet
  facet normal 0.2121777384681485 0.9772310920649946 0
    outer loop
      vertex 11.167893067002296 14.682883381843567 0
      vertex 11.270155422389507 14.660680040717125 2
      vertex 11.270155422389507 14.660680040717125 0
    endloop
  endfacet
  facet normal 0.33791670913624605 0.9411760184399779 0
    outer loop
      vertex 11.270155422389507 14.660680040717125 0
      vertex 11.368644796311855 14.625318743288517 2
      vertex 11.368644796311855 14.625318743288517 0
    endloop
  endfacet
  facet normal 0.45787387927600653 0.8890171599450377 0
    outer loop
      vertex 11.368644796311855 14.625318743288517 0
      vertex 11.461676001548767 14.577404528856277 2
      vertex 11.461676001548767 14.577404528856277 0
    endloop
  endfacet
  facet normal 0.569996755334269 0.821646942980016 0
    outer loop
      vertex 11.461676001548767 14.577404528856277 0
      vertex 11.547657251358032 14.517757214605808 2
      vertex 11.547657251358032 14.517757214605808 0
    endloop
  endfacet
  facet normal 0.6723668230905558 0.7402181132660247 0
    outer loop
      vertex 11.547657251358032 14.517757214605808 0
      vertex 11.625117383897305 14.447397381067276 2
      vertex 11.625117383897305 14.447397381067276 0
    endloop
  endfacet
  facet normal 0.9044551640133449 0.42656870055079443 0
    outer loop
      vertex 11.793979592621326 14.184871666133404 0
      vertex 11.749341309070587 14.279518380761147 0
      vertex 11.793979592621326 14.184871666133404 2
    endloop
  endfacet
  facet normal 0.9523957868023901 0.30486433914293126 0
    outer loop
      vertex 11.825882121920586 14.08520820736885 0
      vertex 11.793979592621326 14.184871666133404 0
      vertex 11.825882121920586 14.08520820736885 2
    endloop
  endfacet
  facet normal 0.7632324732263431 0.6461239755749663 0
    outer loop
      vertex 11.625117383897305 14.447397381067276 0
      vertex 11.692731030285358 14.367528915405273 2
      vertex 11.692731030285358 14.367528915405273 0
    endloop
  endfacet
  facet normal 0.8410390101766938 0.5409744757019569 0
    outer loop
      vertex 11.692731030285358 14.367528915405273 0
      vertex 11.749341309070587 14.279518380761147 2
      vertex 11.749341309070587 14.279518380761147 0
    endloop
  endfacet
  facet normal 0 0 1
    outer loop
      vertex 3.554920680820942 5.739047057926655 2
      vertex 13.35147862881422 6.209609478712082 2
      vertex 11.825882121920586 14.08520820736885 2
    endloop
  endfacet
  facet normal -0.6461239755749663 0.7632324732263431 0
    outer loop
      vertex 10.493918843567371 14.467142529785633 0
      vertex 10.493918843567371 14.467142529785633 2
      vertex 10.573787309229374 14.534756176173687 2
    endloop
  endfacet
  facet normal -0.5409744757019569 0.8410390101766938 0
    outer loop
      vertex 10.573787309229374 14.534756176173687 0
      vertex 10.573787309229374 14.534756176173687 2
      vertex 10.6617978438735 14.591366454958916 2
    endloop
  endfacet
  facet normal -0.42656870055079443 0.9044551640133449 0
    outer loop
      vertex 10.6617978438735 14.591366454958916 0
      vertex 10.6617978438735 14.591366454958916 2
      vertex 10.756444558501244 14.636004738509655 2
    endloop
  endfacet
  facet normal -0.3048643184703032 0.9523957934197512 0
    outer loop
      vertex 10.756444558501244 14.636004738509655 0
      vertex 10.756444558501244 14.636004738509655 2
      vertex 10.856108024716377 14.667907267808914 2
    endloop
  endfacet
  facet normal -0.1779435231490811 0.984040701683265 0
    outer loop
      vertex 10.856108024716377 14.667907267808914 0
      vertex 10.856108024716377 14.667907267808914 2
      vertex 10.959082968533039 14.686528168618679 2
    endloop
  endfacet
  facet normal -0.04797818804461715 0.9988483836258412 0
    outer loop
      vertex 10.959082968533039 14.686528168618679 0
      vertex 10.959082968533039 14.686528168618679 2
      vertex 11.063607469201088 14.691548846662045 2
    endloop
  endfacet
  facet normal 0 0 1
    outer loop
      vertex 3.693691521883011 6.3781867772340775 2
      vertex 11.825882121920586 14.08520820736885 2
      vertex 11.793979592621326 14.184871666133404 2
    endloop
  endfacet
  facet normal 0 0 1
    outer loop
      vertex 5.026708148419857 8.596698999404907 2
      vertex 11.547657251358032 14.517757214605808 2
      vertex 10.493918843567371 14.467142529785633 2
    endloop
  endfacet
  facet normal 0 0 1
    outer loop
      vertex 3.9146996289491653 6.993745341897011 2
      vertex 11.793979592621326 14.184871666133404 2
      vertex 11.749341309070587 14.279518380761147 2
    endloop
  endfacet
  facet normal 0 0 1
    outer loop
      vertex 4.21416349709034 7.575190372765064 2
      vertex 11.749341309070587 14.279518380761147 2
      vertex 11.692731030285358 14.367528915405273 2
    endloop
  endfacet
  facet normal 0 0 1
    outer loop
      vertex 4.586959213018417 8.112573184072971 2
      vertex 11.692731030285358 14.367528915405273 2
      vertex 11.625117383897305 14.447397381067276 2
    endloop
  endfacet
  facet normal 0 0 1
    outer loop
      vertex 5.026708148419857 8.596698999404907 2
      vertex 11.625117383897305 14.447397381067276 2
      vertex 11.547657251358032 14.517757214605808 2
    endloop
  endfacet
  facet normal 0 0 1
    outer loop
      vertex 10.493918843567371 14.467142529785633 2
      vertex 11.461676001548767 14.577404528856277 2
      vertex 10.573787309229374 14.534756176173687 2
    endloop
  endfacet
  facet normal 0 0 1
    outer loop
      vertex 10.573787309229374 14.534756176173687 2
      vertex 11.368644796311855 14.625318743288517 2
      vertex 10.6617978438735 14.591366454958916 2
    endloop
  endfacet
  facet normal 0 0 1
    outer loop
      vertex 10.6617978438735 14.591366454958916 2
      vertex 11.270155422389507 14.660680040717125 2
      vertex 10.756444558501244 14.636004738509655 2
    endloop
  endfacet
  facet normal 0 0 1
    outer loop
      vertex 10.756444558501244 14.636004738509655 2
      vertex 11.167893067002296 14.682883381843567 2
      vertex 10.856108024716377 14.667907267808914 2
    endloop
  endfacet
  facet normal 0 0 1
    outer loop
      vertex 10.856108024716377 14.667907267808914 2
      vertex 11.063607469201088 14.691548846662045 2
      vertex 10.959082968533039 14.686528168618679 2
    endloop
  endfacet
  facet normal 0.0828082063498485 0.9965655025943457 0
    outer loop
      vertex 11.063607469201088 14.691548846662045 0
      vertex 11.063607469201088 14.691548846662045 2
      vertex 11.167893067002296 14.682883381843567 2
    endloop
  endfacet
  facet normal 0.2121777384681485 0.9772310920649946 0
    outer loop
      vertex 11.167893067002296 14.682883381843567 0
      vertex 11.167893067002296 14.682883381843567 2
      vertex 11.270155422389507 14.660680040717125 2
    endloop
  endfacet
  facet normal 0.33791670913624605 0.9411760184399779 0
    outer loop
      vertex 11.270155422389507 14.660680040717125 0
      vertex 11.270155422389507 14.660680040717125 2
      vertex 11.368644796311855 14.625318743288517 2
    endloop
  endfacet
  facet normal 0.45787387927600653 0.8890171599450377 0
    outer loop
      vertex 11.368644796311855 14.625318743288517 0
      vertex 11.368644796311855 14.625318743288517 2
      vertex 11.461676001548767 14.577404528856277 2
    endloop
  endfacet
  facet normal 0.569996755334269 0.821646942980016 0
    outer loop
      vertex 11.461676001548767 14.577404528856277 0
      vertex 11.461676001548767 14.577404528856277 2
      vertex 11.547657251358032 14.517757214605808 2
    endloop
  endfacet
  facet normal 0.6723668230905558 0.7402181132660247 0
    outer loop
      vertex 11.547657251358032 14.517757214605808 0
      vertex 11.547657251358032 14.517757214605808 2
      vertex 11.625117383897305 14.447397381067276 2
    endloop
  endfacet
  facet normal 0.9523957868023901 0.30486433914293126 0
    outer loop
      vertex 11.793979592621326 14.184871666133404 0
      vertex 11.793979592621326 14.184871666133404 2
      vertex 11.825882121920586 14.08520820736885 2
    endloop
  endfacet
  facet normal 0.7632324732263431 0.6461239755749663 0
    outer loop
      vertex 11.625117383897305 14.447397381067276 0
      vertex 11.625117383897305 14.447397381067276 2
      vertex 11.692731030285358 14.367528915405273 2
    endloop
  endfacet
  facet normal 0.8410390101766938 0.5409744757019569 0
    outer loop
      vertex 11.692731030285358 14.367528915405273 0
      vertex 11.692731030285358 14.367528915405273 2
      vertex 11.749341309070587 14.279518380761147 2
    endloop
  endfacet
  facet normal 0.9044551640133449 0.42656870055079443 0
    outer loop
      vertex 11.749341309070587 14.279518380761147 0
      vertex 11.749341309070587 14.279518380761147 2
      vertex 11.793979592621326 14.184871666133404 2
    endloop
  endfacet
  facet normal 0.9817499061774729 0.19017655407679177 -2.7679453659714765e-17
    outer loop
      vertex 13.35147862881422 6.209609478712082 2
      vertex 11.825882121920586 14.08520820736885 0
      vertex 11.825882121920586 14.08520820736885 2
    endloop
  endfacet
  facet normal 0 0 1
    outer loop
      vertex 10.856108024716377 14.667907267808914 2
      vertex 11.167893067002296 14.682883381843567 2
      vertex 11.063607469201088 14.691548846662045 2
    endloop
  endfacet
  facet normal 0 0 1
    outer loop
      vertex 10.756444558501244 14.636004738509655 2
      vertex 11.270155422389507 14.660680040717125 2
      vertex 11.167893067002296 14.682883381843567 2
    endloop
  endfacet
  facet normal 0 0 1
    outer loop
      vertex 10.6617978438735 14.591366454958916 2
      vertex 11.368644796311855 14.625318743288517 2
      vertex 11.270155422389507 14.660680040717125 2
    endloop
  endfacet
  facet normal 0 0 1
    outer loop
      vertex 10.573787309229374 14.534756176173687 2
      vertex 11.461676001548767 14.577404528856277 2
      vertex 11.368644796311855 14.625318743288517 2
    endloop
  endfacet
  facet normal 0 0 1
    outer loop
      vertex 10.493918843567371 14.467142529785633 2
      vertex 11.547657251358032 14.517757214605808 2
      vertex 11.461676001548767 14.577404528856277 2
    endloop
  endfacet
endsolid OpenSCAD_Model
