solid OpenSCAD_Model
  facet normal -0.7575649830221335 -0.652759754043304 0
    outer loop
      vertex 6.444366365671158 -11.425808072090149 0
      vertex 6.71759856492281 -11.742909647524357 0
      vertex 6.444366365671158 -11.425808072090149 2
    endloop
  endfacet
  facet normal -0.9496991266472172 -0.31316380513321285 0
    outer loop
      vertex 6.033011667430401 -10.698741100728512 0
      vertex 5.901927553117275 -10.301216013729572 2
      vertex 5.901927553117275 -10.301216013729572 0
    endloop
  endfacet
  facet normal -0.9006982416596236 -0.43444525255924055 0
    outer loop
      vertex 6.033011667430401 -10.698741100728512 0
      vertex 6.214861772954464 -11.075755394995213 0
      vertex 6.033011667430401 -10.698741100728512 2
    endloop
  endfacet
  facet normal -0.8362861548444169 -0.5482932310502654 0
    outer loop
      vertex 6.214861772954464 -11.075755394995213 0
      vertex 6.444366365671158 -11.425808072090149 0
      vertex 6.214861772954464 -11.075755394995213 2
    endloop
  endfacet
  facet normal -0.6658816688993583 -0.746057372474668 0
    outer loop
      vertex 6.71759856492281 -11.742909647524357 0
      vertex 7.0298832803964615 -12.02163441479206 0
      vertex 6.71759856492281 -11.742909647524357 2
    endloop
  endfacet
  facet normal -0.5628049292951921 -0.8265897480377032 0
    outer loop
      vertex 7.375877238810062 -12.257213316857815 0
      vertex 7.0298832803964615 -12.02163441479206 2
      vertex 7.0298832803964615 -12.02163441479206 0
    endloop
  endfacet
  facet normal -0.9824503973854256 -0.18652403780000912 0
    outer loop
      vertex 5.901927553117275 -10.301216013729572 0
      vertex 5.823852315545082 -9.889981895685196 2
      vertex 5.823852315545082 -9.889981895685196 0
    endloop
  endfacet
  facet normal -0.998391670076911 -0.056692796024155126 0
    outer loop
      vertex 5.823852315545082 -9.889981895685196 0
      vertex 5.80012184381485 -9.472075089812279 2
      vertex 5.80012184381485 -9.472075089812279 0
    endloop
  endfacet
  facet normal -0.9972501848156866 0.07410849401437669 0
    outer loop
      vertex 5.80012184381485 -9.472075089812279 0
      vertex 5.83114217966795 -9.054646074771881 2
      vertex 5.83114217966795 -9.054646074771881 0
    endloop
  endfacet
  facet normal -0.979045471736912 0.20364175473474844 0
    outer loop
      vertex 5.83114217966795 -9.054646074771881 0
      vertex 5.916382551193237 -8.644837193191051 2
      vertex 5.916382551193237 -8.644837193191051 0
    endloop
  endfacet
  facet normal -0.9440890201495904 0.32969064595918757 0
    outer loop
      vertex 5.916382551193237 -8.644837193191051 0
      vertex 6.054384469985962 -8.249660387635231 2
      vertex 6.054384469985962 -8.249660387635231 0
    endloop
  endfacet
  facet normal -0.8929789469937172 0.4500984339297261 0
    outer loop
      vertex 6.054384469985962 -8.249660387635231 0
      vertex 6.242786683142185 -7.875877238810062 2
      vertex 6.242786683142185 -7.875877238810062 0
    endloop
  endfacet
  facet normal 0 0 -1
    outer loop
      vertex 6.033011667430401 -10.698741100728512 0
      vertex 12.083617448806763 -10.355162806808949 0
      vertex 6.214861772954464 -11.075755394995213 0
    endloop
  endfacet
  facet normal 0 0 -1
    outer loop
      vertex 6.033011667430401 -10.698741100728512 0
      vertex 5.901927553117275 -10.301216013729572 0
      vertex 12.16885782033205 -9.945353925228119 0
    endloop
  endfacet
  facet normal 0 0 -1
    outer loop
      vertex 7.375877238810062 -12.257213316857815 0
      vertex 7.0298832803964615 -12.02163441479206 0
      vertex 11.242909647524357 -11.78240143507719 0
    endloop
  endfacet
  facet normal 0 0 -1
    outer loop
      vertex 6.71759856492281 -11.742909647524357 0
      vertex 11.52163441479206 -11.470116719603539 0
      vertex 7.0298832803964615 -12.02163441479206 0
    endloop
  endfacet
  facet normal 0 0 -1
    outer loop
      vertex 7.375877238810062 -12.257213316857815 0
      vertex 10.925808072090149 -12.055633634328842 0
      vertex 7.749660387635231 -12.445615530014038 0
    endloop
  endfacet
  facet normal 0 0 -1
    outer loop
      vertex 7.749660387635231 -12.445615530014038 0
      vertex 10.575755394995213 -12.285138227045536 0
      vertex 8.144837193191051 -12.583617448806763 0
    endloop
  endfacet
  facet normal 0 0 -1
    outer loop
      vertex 8.144837193191051 -12.583617448806763 0
      vertex 10.198741100728512 -12.4669883325696 0
      vertex 8.554646074771881 -12.66885782033205 0
    endloop
  endfacet
  facet normal 0 0 -1
    outer loop
      vertex 6.444366365671158 -11.425808072090149 0
      vertex 11.757213316857815 -11.124122761189938 0
      vertex 6.71759856492281 -11.742909647524357 0
    endloop
  endfacet
  facet normal 0 0 -1
    outer loop
      vertex 6.214861772954464 -11.075755394995213 0
      vertex 11.945615530014038 -10.750339612364769 0
      vertex 6.444366365671158 -11.425808072090149 0
    endloop
  endfacet
  facet normal -0.4500984339297261 -0.8929789469937172 0
    outer loop
      vertex 7.375877238810062 -12.257213316857815 0
      vertex 7.749660387635231 -12.445615530014038 0
      vertex 7.375877238810062 -12.257213316857815 2
    endloop
  endfacet
  facet normal -0.32969064595918757 -0.9440890201495904 0
    outer loop
      vertex 7.749660387635231 -12.445615530014038 0
      vertex 8.144837193191051 -12.583617448806763 0
      vertex 7.749660387635231 -12.445615530014038 2
    endloop
  endfacet
  facet normal -0.20364175473474844 -0.979045471736912 0
    outer loop
      vertex 8.144837193191051 -12.583617448806763 0
      vertex 8.554646074771881 -12.66885782033205 0
      vertex 8.144837193191051 -12.583617448806763 2
    endloop
  endfacet
  facet normal -0.07410849401437669 -0.9972501848156866 0
    outer loop
      vertex 8.554646074771881 -12.66885782033205 0
      vertex 8.972075089812279 -12.69987815618515 0
      vertex 8.554646074771881 -12.66885782033205 2
    endloop
  endfacet
  facet normal 0 0 -1
    outer loop
      vertex 5.901927553117275 -10.301216013729572 0
      vertex 5.823852315545082 -9.889981895685196 0
      vertex 12.19987815618515 -9.527924910187721 0
    endloop
  endfacet
  facet normal 0 0 -1
    outer loop
      vertex 5.823852315545082 -9.889981895685196 0
      vertex 5.80012184381485 -9.472075089812279 0
      vertex 12.176147684454918 -9.110018104314804 0
    endloop
  endfacet
  facet normal 0 0 -1
    outer loop
      vertex 5.80012184381485 -9.472075089812279 0
      vertex 5.83114217966795 -9.054646074771881 0
      vertex 12.098072446882725 -8.698783986270428 0
    endloop
  endfacet
  facet normal 0 0 -1
    outer loop
      vertex 5.83114217966795 -9.054646074771881 0
      vertex 5.916382551193237 -8.644837193191051 0
      vertex 11.9669883325696 -8.301258899271488 0
    endloop
  endfacet
  facet normal -0.9006982416596236 -0.43444525255924055 0
    outer loop
      vertex 6.214861772954464 -11.075755394995213 0
      vertex 6.214861772954464 -11.075755394995213 2
      vertex 6.033011667430401 -10.698741100728512 2
    endloop
  endfacet
  facet normal -0.9496991266472172 -0.31316380513321285 0
    outer loop
      vertex 6.033011667430401 -10.698741100728512 0
      vertex 6.033011667430401 -10.698741100728512 2
      vertex 5.901927553117275 -10.301216013729572 2
    endloop
  endfacet
  facet normal -0.8362861548444169 -0.5482932310502654 0
    outer loop
      vertex 6.444366365671158 -11.425808072090149 0
      vertex 6.444366365671158 -11.425808072090149 2
      vertex 6.214861772954464 -11.075755394995213 2
    endloop
  endfacet
  facet normal -0.7575649830221335 -0.652759754043304 0
    outer loop
      vertex 6.71759856492281 -11.742909647524357 0
      vertex 6.71759856492281 -11.742909647524357 2
      vertex 6.444366365671158 -11.425808072090149 2
    endloop
  endfacet
  facet normal -0.6658816688993583 -0.746057372474668 0
    outer loop
      vertex 7.0298832803964615 -12.02163441479206 0
      vertex 7.0298832803964615 -12.02163441479206 2
      vertex 6.71759856492281 -11.742909647524357 2
    endloop
  endfacet
  facet normal -0.5628049292951921 -0.8265897480377032 0
    outer loop
      vertex 7.375877238810062 -12.257213316857815 0
      vertex 7.375877238810062 -12.257213316857815 2
      vertex 7.0298832803964615 -12.02163441479206 2
    endloop
  endfacet
  facet normal -0.9824503973854256 -0.18652403780000912 0
    outer loop
      vertex 5.901927553117275 -10.301216013729572 0
      vertex 5.901927553117275 -10.301216013729572 2
      vertex 5.823852315545082 -9.889981895685196 2
    endloop
  endfacet
  facet normal -0.998391670076911 -0.056692796024155126 0
    outer loop
      vertex 5.823852315545082 -9.889981895685196 0
      vertex 5.823852315545082 -9.889981895685196 2
      vertex 5.80012184381485 -9.472075089812279 2
    endloop
  endfacet
  facet normal -0.9972501848156866 0.07410849401437669 0
    outer loop
      vertex 5.80012184381485 -9.472075089812279 0
      vertex 5.80012184381485 -9.472075089812279 2
      vertex 5.83114217966795 -9.054646074771881 2
    endloop
  endfacet
  facet normal -0.979045471736912 0.20364175473474844 0
    outer loop
      vertex 5.83114217966795 -9.054646074771881 0
      vertex 5.83114217966795 -9.054646074771881 2
      vertex 5.916382551193237 -8.644837193191051 2
    endloop
  endfacet
  facet normal -0.9440890201495904 0.32969064595918757 0
    outer loop
      vertex 5.916382551193237 -8.644837193191051 0
      vertex 5.916382551193237 -8.644837193191051 2
      vertex 6.054384469985962 -8.249660387635231 2
    endloop
  endfacet
  facet normal -0.8929789469937172 0.4500984339297261 0
    outer loop
      vertex 6.054384469985962 -8.249660387635231 0
      vertex 6.054384469985962 -8.249660387635231 2
      vertex 6.242786683142185 -7.875877238810062 2
    endloop
  endfacet
  facet normal -0.4500984339297261 -0.8929789469937172 0
    outer loop
      vertex 7.749660387635231 -12.445615530014038 0
      vertex 7.749660387635231 -12.445615530014038 2
      vertex 7.375877238810062 -12.257213316857815 2
    endloop
  endfacet
  facet normal -0.32969064595918757 -0.9440890201495904 0
    outer loop
      vertex 8.144837193191051 -12.583617448806763 0
      vertex 8.144837193191051 -12.583617448806763 2
      vertex 7.749660387635231 -12.445615530014038 2
    endloop
  endfacet
  facet normal -0.20364175473474844 -0.979045471736912 0
    outer loop
      vertex 8.554646074771881 -12.66885782033205 0
      vertex 8.554646074771881 -12.66885782033205 2
      vertex 8.144837193191051 -12.583617448806763 2
    endloop
  endfacet
  facet normal -0.07410849401437669 -0.9972501848156866 0
    outer loop
      vertex 8.972075089812279 -12.69987815618515 0
      vertex 8.972075089812279 -12.69987815618515 2
      vertex 8.554646074771881 -12.66885782033205 2
    endloop
  endfacet
  facet normal 0 0 1
    outer loop
      vertex 6.033011667430401 -10.698741100728512 2
      vertex 6.214861772954464 -11.075755394995213 2
      vertex 12.083617448806763 -10.355162806808949 2
    endloop
  endfacet
  facet normal 0 0 1
    outer loop
      vertex 6.033011667430401 -10.698741100728512 2
      vertex 12.16885782033205 -9.945353925228119 2
      vertex 5.901927553117275 -10.301216013729572 2
    endloop
  endfacet
  facet normal 0 0 1
    outer loop
      vertex 7.375877238810062 -12.257213316857815 2
      vertex 11.242909647524357 -11.78240143507719 2
      vertex 7.0298832803964615 -12.02163441479206 2
    endloop
  endfacet
  facet normal 0 0 1
    outer loop
      vertex 6.71759856492281 -11.742909647524357 2
      vertex 7.0298832803964615 -12.02163441479206 2
      vertex 11.52163441479206 -11.470116719603539 2
    endloop
  endfacet
  facet normal 0 0 1
    outer loop
      vertex 7.375877238810062 -12.257213316857815 2
      vertex 7.749660387635231 -12.445615530014038 2
      vertex 10.925808072090149 -12.055633634328842 2
    endloop
  endfacet
  facet normal 0 0 1
    outer loop
      vertex 7.749660387635231 -12.445615530014038 2
      vertex 8.144837193191051 -12.583617448806763 2
      vertex 10.575755394995213 -12.285138227045536 2
    endloop
  endfacet
  facet normal 0 0 1
    outer loop
      vertex 8.144837193191051 -12.583617448806763 2
      vertex 8.554646074771881 -12.66885782033205 2
      vertex 10.198741100728512 -12.4669883325696 2
    endloop
  endfacet
  facet normal 0 0 1
    outer loop
      vertex 6.444366365671158 -11.425808072090149 2
      vertex 6.71759856492281 -11.742909647524357 2
      vertex 11.757213316857815 -11.124122761189938 2
    endloop
  endfacet
  facet normal 0 0 1
    outer loop
      vertex 6.214861772954464 -11.075755394995213 2
      vertex 6.444366365671158 -11.425808072090149 2
      vertex 11.945615530014038 -10.750339612364769 2
    endloop
  endfacet
  facet normal 0 0 1
    outer loop
      vertex 5.901927553117275 -10.301216013729572 2
      vertex 12.19987815618515 -9.527924910187721 2
      vertex 5.823852315545082 -9.889981895685196 2
    endloop
  endfacet
  facet normal 0 0 1
    outer loop
      vertex 5.823852315545082 -9.889981895685196 2
      vertex 12.176147684454918 -9.110018104314804 2
      vertex 5.80012184381485 -9.472075089812279 2
    endloop
  endfacet
  facet normal 0 0 1
    outer loop
      vertex 5.80012184381485 -9.472075089812279 2
      vertex 12.098072446882725 -8.698783986270428 2
      vertex 5.83114217966795 -9.054646074771881 2
    endloop
  endfacet
  facet normal 0 0 1
    outer loop
      vertex 5.83114217966795 -9.054646074771881 2
      vertex 11.9669883325696 -8.301258899271488 2
      vertex 5.916382551193237 -8.644837193191051 2
    endloop
  endfacet
  facet normal -0.8265897480377032 0.5628049292951921 0
    outer loop
      vertex 6.242786683142185 -7.875877238810062 0
      vertex 6.478365585207939 -7.5298832803964615 2
      vertex 6.478365585207939 -7.5298832803964615 0
    endloop
  endfacet
  facet normal 0 0 -1
    outer loop
      vertex 5.916382551193237 -8.644837193191051 0
      vertex 6.054384469985962 -8.249660387635231 0
      vertex 10.298622891306877 -3.445814460515976 0
    endloop
  endfacet
  facet normal 0 0 -1
    outer loop
      vertex 6.054384469985962 -8.249660387635231 0
      vertex 6.242786683142185 -7.875877238810062 0
      vertex 10.26952687650919 -3.385492168366909 0
    endloop
  endfacet
  facet normal 0 0 -1
    outer loop
      vertex 6.242786683142185 -7.875877238810062 0
      vertex 6.478365585207939 -7.5298832803964615 0
      vertex 10.232806138694286 -3.329483740031719 0
    endloop
  endfacet
  facet normal 0 0 -1
    outer loop
      vertex 6.054384469985962 -8.249660387635231 0
      vertex 10.26952687650919 -3.385492168366909 0
      vertex 10.298622891306877 -3.445814460515976 0
    endloop
  endfacet
  facet normal 0 0 -1
    outer loop
      vertex 6.478365585207939 -7.5298832803964615 0
      vertex 9.420443251729012 -3.3223943561315536 0
      vertex 10.189088985323906 -3.2787474915385246 0
    endloop
  endfacet
  facet normal 0 0 -1
    outer loop
      vertex 6.242786683142185 -7.875877238810062 0
      vertex 10.232806138694286 -3.329483740031719 0
      vertex 10.26952687650919 -3.385492168366909 0
    endloop
  endfacet
  facet normal 0 0 -1
    outer loop
      vertex 6.478365585207939 -7.5298832803964615 0
      vertex 10.189088985323906 -3.2787474915385246 0
      vertex 10.232806138694286 -3.329483740031719 0
    endloop
  endfacet
  facet normal -0.8195213938476895 0.5730485887129817 8.649829263962392e-17
    outer loop
      vertex 6.478365585207939 -7.5298832803964615 0
      vertex 9.420443251729012 -3.3223943561315536 2
      vertex 9.420443251729012 -3.3223943561315536 0
    endloop
  endfacet
  facet normal -0.8265897480377032 0.5628049292951921 0
    outer loop
      vertex 6.242786683142185 -7.875877238810062 0
      vertex 6.242786683142185 -7.875877238810062 2
      vertex 6.478365585207939 -7.5298832803964615 2
    endloop
  endfacet
  facet normal -0.8195213938476895 0.5730485887129817 0
    outer loop
      vertex 6.478365585207939 -7.5298832803964615 0
      vertex 6.478365585207939 -7.5298832803964615 2
      vertex 9.420443251729012 -3.3223943561315536 2
    endloop
  endfacet
  facet normal 0 0 1
    outer loop
      vertex 5.916382551193237 -8.644837193191051 2
      vertex 10.298622891306877 -3.445814460515976 2
      vertex 6.054384469985962 -8.249660387635231 2
    endloop
  endfacet
  facet normal 0 0 1
    outer loop
      vertex 6.054384469985962 -8.249660387635231 2
      vertex 10.26952687650919 -3.385492168366909 2
      vertex 6.242786683142185 -7.875877238810062 2
    endloop
  endfacet
  facet normal 0 0 1
    outer loop
      vertex 6.242786683142185 -7.875877238810062 2
      vertex 10.232806138694286 -3.329483740031719 2
      vertex 6.478365585207939 -7.5298832803964615 2
    endloop
  endfacet
  facet normal 0 0 1
    outer loop
      vertex 6.054384469985962 -8.249660387635231 2
      vertex 10.298622891306877 -3.445814460515976 2
      vertex 10.26952687650919 -3.385492168366909 2
    endloop
  endfacet
  facet normal 0 0 1
    outer loop
      vertex 6.478365585207939 -7.5298832803964615 2
      vertex 10.189088985323906 -3.2787474915385246 2
      vertex 9.420443251729012 -3.3223943561315536 2
    endloop
  endfacet
  facet normal 0 0 1
    outer loop
      vertex 6.242786683142185 -7.875877238810062 2
      vertex 10.26952687650919 -3.385492168366909 2
      vertex 10.232806138694286 -3.329483740031719 2
    endloop
  endfacet
  facet normal 0 0 1
    outer loop
      vertex 6.478365585207939 -7.5298832803964615 2
      vertex 10.232806138694286 -3.329483740031719 2
      vertex 10.189088985323906 -3.2787474915385246 2
    endloop
  endfacet
  facet normal 0 0 -1
    outer loop
      vertex 8.554646074771881 -12.66885782033205 0
      vertex 9.801216013729572 -12.598072446882725 0
      vertex 8.972075089812279 -12.69987815618515 0
    endloop
  endfacet
  facet normal 0 0 -1
    outer loop
      vertex 8.972075089812279 -12.69987815618515 0
      vertex 9.801216013729572 -12.598072446882725 0
      vertex 9.389981895685196 -12.676147684454918 0
    endloop
  endfacet
  facet normal 0 0 -1
    outer loop
      vertex 8.554646074771881 -12.66885782033205 0
      vertex 10.198741100728512 -12.4669883325696 0
      vertex 9.801216013729572 -12.598072446882725 0
    endloop
  endfacet
  facet normal 0 0 -1
    outer loop
      vertex 8.144837193191051 -12.583617448806763 0
      vertex 10.575755394995213 -12.285138227045536 0
      vertex 10.198741100728512 -12.4669883325696 0
    endloop
  endfacet
  facet normal 0 0 -1
    outer loop
      vertex 7.749660387635231 -12.445615530014038 0
      vertex 10.925808072090149 -12.055633634328842 0
      vertex 10.575755394995213 -12.285138227045536 0
    endloop
  endfacet
  facet normal 0 0 -1
    outer loop
      vertex 7.375877238810062 -12.257213316857815 0
      vertex 11.242909647524357 -11.78240143507719 0
      vertex 10.925808072090149 -12.055633634328842 0
    endloop
  endfacet
  facet normal 0 0 -1
    outer loop
      vertex 7.0298832803964615 -12.02163441479206 0
      vertex 11.52163441479206 -11.470116719603539 0
      vertex 11.242909647524357 -11.78240143507719 0
    endloop
  endfacet
  facet normal 0 0 -1
    outer loop
      vertex 6.71759856492281 -11.742909647524357 0
      vertex 11.757213316857815 -11.124122761189938 0
      vertex 11.52163441479206 -11.470116719603539 0
    endloop
  endfacet
  facet normal 0 0 -1
    outer loop
      vertex 6.444366365671158 -11.425808072090149 0
      vertex 11.945615530014038 -10.750339612364769 0
      vertex 11.757213316857815 -11.124122761189938 0
    endloop
  endfacet
  facet normal 0 0 -1
    outer loop
      vertex 6.214861772954464 -11.075755394995213 0
      vertex 12.083617448806763 -10.355162806808949 0
      vertex 11.945615530014038 -10.750339612364769 0
    endloop
  endfacet
  facet normal 0 0 -1
    outer loop
      vertex 6.033011667430401 -10.698741100728512 0
      vertex 12.16885782033205 -9.945353925228119 0
      vertex 12.083617448806763 -10.355162806808949 0
    endloop
  endfacet
  facet normal 0.056692796024155126 -0.998391670076911 0
    outer loop
      vertex 8.972075089812279 -12.69987815618515 0
      vertex 9.389981895685196 -12.676147684454918 0
      vertex 8.972075089812279 -12.69987815618515 2
    endloop
  endfacet
  facet normal 0.18652403780000912 -0.9824503973854256 0
    outer loop
      vertex 9.389981895685196 -12.676147684454918 0
      vertex 9.801216013729572 -12.598072446882725 0
      vertex 9.389981895685196 -12.676147684454918 2
    endloop
  endfacet
  facet normal 0.31316380513321285 -0.9496991266472172 0
    outer loop
      vertex 9.801216013729572 -12.598072446882725 0
      vertex 10.198741100728512 -12.4669883325696 0
      vertex 9.801216013729572 -12.598072446882725 2
    endloop
  endfacet
  facet normal 0.43444525255924055 -0.9006982416596236 0
    outer loop
      vertex 10.198741100728512 -12.4669883325696 0
      vertex 10.575755394995213 -12.285138227045536 0
      vertex 10.198741100728512 -12.4669883325696 2
    endloop
  endfacet
  facet normal 0 0 -1
    outer loop
      vertex 5.901927553117275 -10.301216013729572 0
      vertex 12.19987815618515 -9.527924910187721 0
      vertex 12.16885782033205 -9.945353925228119 0
    endloop
  endfacet
  facet normal 0 0 -1
    outer loop
      vertex 5.823852315545082 -9.889981895685196 0
      vertex 12.176147684454918 -9.110018104314804 0
      vertex 12.19987815618515 -9.527924910187721 0
    endloop
  endfacet
  facet normal 0 0 -1
    outer loop
      vertex 5.83114217966795 -9.054646074771881 0
      vertex 11.9669883325696 -8.301258899271488 0
      vertex 12.098072446882725 -8.698783986270428 0
    endloop
  endfacet
  facet normal 0 0 -1
    outer loop
      vertex 5.80012184381485 -9.472075089812279 0
      vertex 12.098072446882725 -8.698783986270428 0
      vertex 12.176147684454918 -9.110018104314804 0
    endloop
  endfacet
  facet normal 0.5482932310502654 -0.8362861548444169 0
    outer loop
      vertex 10.575755394995213 -12.285138227045536 0
      vertex 10.925808072090149 -12.055633634328842 0
      vertex 10.575755394995213 -12.285138227045536 2
    endloop
  endfacet
  facet normal 0.652759754043304 -0.7575649830221335 0
    outer loop
      vertex 10.925808072090149 -12.055633634328842 0
      vertex 11.242909647524357 -11.78240143507719 0
      vertex 10.925808072090149 -12.055633634328842 2
    endloop
  endfacet
  facet normal 0.746057372474668 -0.6658816688993583 0
    outer loop
      vertex 11.242909647524357 -11.78240143507719 0
      vertex 11.52163441479206 -11.470116719603539 0
      vertex 11.242909647524357 -11.78240143507719 2
    endloop
  endfacet
  facet normal 0.8265897480377032 -0.5628049292951921 0
    outer loop
      vertex 11.52163441479206 -11.470116719603539 0
      vertex 11.757213316857815 -11.124122761189938 0
      vertex 11.52163441479206 -11.470116719603539 2
    endloop
  endfacet
  facet normal 0.8929789469937172 -0.4500984339297261 0
    outer loop
      vertex 11.757213316857815 -11.124122761189938 0
      vertex 11.945615530014038 -10.750339612364769 0
      vertex 11.757213316857815 -11.124122761189938 2
    endloop
  endfacet
  facet normal 0.9440890201495904 -0.32969064595918757 0
    outer loop
      vertex 11.945615530014038 -10.750339612364769 0
      vertex 12.083617448806763 -10.355162806808949 0
      vertex 11.945615530014038 -10.750339612364769 2
    endloop
  endfacet
  facet normal 0.979045471736912 -0.20364175473474844 0
    outer loop
      vertex 12.083617448806763 -10.355162806808949 0
      vertex 12.16885782033205 -9.945353925228119 0
      vertex 12.083617448806763 -10.355162806808949 2
    endloop
  endfacet
  facet normal 0.9972501848156866 -0.07410849401437669 0
    outer loop
      vertex 12.16885782033205 -9.945353925228119 0
      vertex 12.19987815618515 -9.527924910187721 0
      vertex 12.16885782033205 -9.945353925228119 2
    endloop
  endfacet
  facet normal 0.998391670076911 0.056692796024155126 0
    outer loop
      vertex 12.19987815618515 -9.527924910187721 0
      vertex 12.176147684454918 -9.110018104314804 0
      vertex 12.19987815618515 -9.527924910187721 2
    endloop
  endfacet
  facet normal 0.9824503973854256 0.18652403780000912 0
    outer loop
      vertex 12.176147684454918 -9.110018104314804 0
      vertex 12.098072446882725 -8.698783986270428 0
      vertex 12.176147684454918 -9.110018104314804 2
    endloop
  endfacet
  facet normal 0.9496991266472172 0.31316380513321285 0
    outer loop
      vertex 12.098072446882725 -8.698783986270428 0
      vertex 11.9669883325696 -8.301258899271488 0
      vertex 12.098072446882725 -8.698783986270428 2
    endloop
  endfacet
  facet normal 0.056692796024155126 -0.998391670076911 0
    outer loop
      vertex 8.972075089812279 -12.69987815618515 2
      vertex 9.389981895685196 -12.676147684454918 0
      vertex 9.389981895685196 -12.676147684454918 2
    endloop
  endfacet
  facet normal 0.18652403780000912 -0.9824503973854256 0
    outer loop
      vertex 9.801216013729572 -12.598072446882725 0
      vertex 9.801216013729572 -12.598072446882725 2
      vertex 9.389981895685196 -12.676147684454918 2
    endloop
  endfacet
  facet normal 0.31316380513321285 -0.9496991266472172 0
    outer loop
      vertex 10.198741100728512 -12.4669883325696 0
      vertex 10.198741100728512 -12.4669883325696 2
      vertex 9.801216013729572 -12.598072446882725 2
    endloop
  endfacet
  facet normal 0.43444525255924055 -0.9006982416596236 0
    outer loop
      vertex 10.575755394995213 -12.285138227045536 0
      vertex 10.575755394995213 -12.285138227045536 2
      vertex 10.198741100728512 -12.4669883325696 2
    endloop
  endfacet
  facet normal 0 0 1
    outer loop
      vertex 8.554646074771881 -12.66885782033205 2
      vertex 8.972075089812279 -12.69987815618515 2
      vertex 9.801216013729572 -12.598072446882725 2
    endloop
  endfacet
  facet normal 0 0 1
    outer loop
      vertex 8.972075089812279 -12.69987815618515 2
      vertex 9.389981895685196 -12.676147684454918 2
      vertex 9.801216013729572 -12.598072446882725 2
    endloop
  endfacet
  facet normal 0 0 1
    outer loop
      vertex 8.554646074771881 -12.66885782033205 2
      vertex 9.801216013729572 -12.598072446882725 2
      vertex 10.198741100728512 -12.4669883325696 2
    endloop
  endfacet
  facet normal 0 0 1
    outer loop
      vertex 8.144837193191051 -12.583617448806763 2
      vertex 10.198741100728512 -12.4669883325696 2
      vertex 10.575755394995213 -12.285138227045536 2
    endloop
  endfacet
  facet normal 0 0 1
    outer loop
      vertex 7.749660387635231 -12.445615530014038 2
      vertex 10.575755394995213 -12.285138227045536 2
      vertex 10.925808072090149 -12.055633634328842 2
    endloop
  endfacet
  facet normal 0 0 1
    outer loop
      vertex 7.375877238810062 -12.257213316857815 2
      vertex 10.925808072090149 -12.055633634328842 2
      vertex 11.242909647524357 -11.78240143507719 2
    endloop
  endfacet
  facet normal 0 0 1
    outer loop
      vertex 7.0298832803964615 -12.02163441479206 2
      vertex 11.242909647524357 -11.78240143507719 2
      vertex 11.52163441479206 -11.470116719603539 2
    endloop
  endfacet
  facet normal 0 0 1
    outer loop
      vertex 6.71759856492281 -11.742909647524357 2
      vertex 11.52163441479206 -11.470116719603539 2
      vertex 11.757213316857815 -11.124122761189938 2
    endloop
  endfacet
  facet normal 0 0 1
    outer loop
      vertex 6.444366365671158 -11.425808072090149 2
      vertex 11.757213316857815 -11.124122761189938 2
      vertex 11.945615530014038 -10.750339612364769 2
    endloop
  endfacet
  facet normal 0 0 1
    outer loop
      vertex 6.214861772954464 -11.075755394995213 2
      vertex 11.945615530014038 -10.750339612364769 2
      vertex 12.083617448806763 -10.355162806808949 2
    endloop
  endfacet
  facet normal 0 0 1
    outer loop
      vertex 6.033011667430401 -10.698741100728512 2
      vertex 12.083617448806763 -10.355162806808949 2
      vertex 12.16885782033205 -9.945353925228119 2
    endloop
  endfacet
  facet normal 0 0 1
    outer loop
      vertex 5.901927553117275 -10.301216013729572 2
      vertex 12.16885782033205 -9.945353925228119 2
      vertex 12.19987815618515 -9.527924910187721 2
    endloop
  endfacet
  facet normal 0 0 1
    outer loop
      vertex 5.823852315545082 -9.889981895685196 2
      vertex 12.19987815618515 -9.527924910187721 2
      vertex 12.176147684454918 -9.110018104314804 2
    endloop
  endfacet
  facet normal 0 0 1
    outer loop
      vertex 5.83114217966795 -9.054646074771881 2
      vertex 12.098072446882725 -8.698783986270428 2
      vertex 11.9669883325696 -8.301258899271488 2
    endloop
  endfacet
  facet normal 0 0 1
    outer loop
      vertex 5.80012184381485 -9.472075089812279 2
      vertex 12.176147684454918 -9.110018104314804 2
      vertex 12.098072446882725 -8.698783986270428 2
    endloop
  endfacet
  facet normal 0.5482932310502654 -0.8362861548444169 0
    outer loop
      vertex 10.925808072090149 -12.055633634328842 0
      vertex 10.925808072090149 -12.055633634328842 2
      vertex 10.575755394995213 -12.285138227045536 2
    endloop
  endfacet
  facet normal 0.652759754043304 -0.7575649830221335 0
    outer loop
      vertex 11.242909647524357 -11.78240143507719 0
      vertex 11.242909647524357 -11.78240143507719 2
      vertex 10.925808072090149 -12.055633634328842 2
    endloop
  endfacet
  facet normal 0.746057372474668 -0.6658816688993583 0
    outer loop
      vertex 11.52163441479206 -11.470116719603539 0
      vertex 11.52163441479206 -11.470116719603539 2
      vertex 11.242909647524357 -11.78240143507719 2
    endloop
  endfacet
  facet normal 0.8265897480377032 -0.5628049292951921 0
    outer loop
      vertex 11.757213316857815 -11.124122761189938 0
      vertex 11.757213316857815 -11.124122761189938 2
      vertex 11.52163441479206 -11.470116719603539 2
    endloop
  endfacet
  facet normal 0.8929789469937172 -0.4500984339297261 0
    outer loop
      vertex 11.945615530014038 -10.750339612364769 0
      vertex 11.945615530014038 -10.750339612364769 2
      vertex 11.757213316857815 -11.124122761189938 2
    endloop
  endfacet
  facet normal 0.9440890201495904 -0.32969064595918757 0
    outer loop
      vertex 12.083617448806763 -10.355162806808949 0
      vertex 12.083617448806763 -10.355162806808949 2
      vertex 11.945615530014038 -10.750339612364769 2
    endloop
  endfacet
  facet normal 0.979045471736912 -0.20364175473474844 0
    outer loop
      vertex 12.16885782033205 -9.945353925228119 0
      vertex 12.16885782033205 -9.945353925228119 2
      vertex 12.083617448806763 -10.355162806808949 2
    endloop
  endfacet
  facet normal 0.9972501848156866 -0.07410849401437669 0
    outer loop
      vertex 12.19987815618515 -9.527924910187721 0
      vertex 12.19987815618515 -9.527924910187721 2
      vertex 12.16885782033205 -9.945353925228119 2
    endloop
  endfacet
  facet normal 0.998391670076911 0.056692796024155126 0
    outer loop
      vertex 12.176147684454918 -9.110018104314804 0
      vertex 12.176147684454918 -9.110018104314804 2
      vertex 12.19987815618515 -9.527924910187721 2
    endloop
  endfacet
  facet normal 0.9824503973854256 0.18652403780000912 0
    outer loop
      vertex 12.098072446882725 -8.698783986270428 0
      vertex 12.098072446882725 -8.698783986270428 2
      vertex 12.176147684454918 -9.110018104314804 2
    endloop
  endfacet
  facet normal 0.9496991266472172 0.31316380513321285 0
    outer loop
      vertex 11.9669883325696 -8.301258899271488 0
      vertex 11.9669883325696 -8.301258899271488 2
      vertex 12.098072446882725 -8.698783986270428 2
    endloop
  endfacet
  facet normal 0 0 -1
    outer loop
      vertex 5.916382551193237 -8.644837193191051 0
      vertex 10.298622891306877 -3.445814460515976 0
      vertex 11.9669883325696 -8.301258899271488 0
    endloop
  endfacet
  facet normal 0 0 -1
    outer loop
      vertex 9.420443251729012 -3.3223943561315536 0
      vertex 9.46503921598196 -3.2724288031458855 0
      vertex 10.139123432338238 -3.234151527285576 0
    endloop
  endfacet
  facet normal 0 0 -1
    outer loop
      vertex 9.46503921598196 -3.2724288031458855 0
      vertex 9.515775464475155 -3.228711649775505 0
      vertex 10.083764396607876 -3.1964589059352875 0
    endloop
  endfacet
  facet normal 0 0 -1
    outer loop
      vertex 9.515775464475155 -3.228711649775505 0
      vertex 9.571783892810345 -3.1919909194111824 0
      vertex 10.023959092795849 -3.166314549744129 0
    endloop
  endfacet
  facet normal 0 0 -1
    outer loop
      vertex 9.571783892810345 -3.1919909194111824 0
      vertex 9.632106184959412 -3.1628948971629143 0
      vertex 9.96073080599308 -3.1442342400550842 0
    endloop
  endfacet
  facet normal 0 0 -1
    outer loop
      vertex 9.632106184959412 -3.1628948971629143 0
      vertex 9.695710197091103 -3.1419214382767677 0
      vertex 9.895161382853985 -3.1305957809090614 0
    endloop
  endfacet
  facet normal 0 0 -1
    outer loop
      vertex 9.695710197091103 -3.1419214382767677 0
      vertex 9.761507652699947 -3.1294293999671936 0
      vertex 9.828372746706009 -3.125632531940937 0
    endloop
  endfacet
  facet normal 0 0 -1
    outer loop
      vertex 9.695710197091103 -3.1419214382767677 0
      vertex 9.828372746706009 -3.125632531940937 0
      vertex 9.895161382853985 -3.1305957809090614 0
    endloop
  endfacet
  facet normal 0 0 -1
    outer loop
      vertex 9.632106184959412 -3.1628948971629143 0
      vertex 9.895161382853985 -3.1305957809090614 0
      vertex 9.96073080599308 -3.1442342400550842 0
    endloop
  endfacet
  facet normal 0 0 -1
    outer loop
      vertex 9.46503921598196 -3.2724288031458855 0
      vertex 10.083764396607876 -3.1964589059352875 0
      vertex 10.139123432338238 -3.234151527285576 0
    endloop
  endfacet
  facet normal 0 0 -1
    outer loop
      vertex 9.571783892810345 -3.1919909194111824 0
      vertex 9.96073080599308 -3.1442342400550842 0
      vertex 10.023959092795849 -3.166314549744129 0
    endloop
  endfacet
  facet normal 0 0 -1
    outer loop
      vertex 9.515775464475155 -3.228711649775505 0
      vertex 10.023959092795849 -3.166314549744129 0
      vertex 10.083764396607876 -3.1964589059352875 0
    endloop
  endfacet
  facet normal 0 0 -1
    outer loop
      vertex 9.420443251729012 -3.3223943561315536 0
      vertex 10.139123432338238 -3.234151527285576 0
      vertex 10.189088985323906 -3.2787474915385246 0
    endloop
  endfacet
  facet normal -0.7460573515559702 0.6658816923367779 0
    outer loop
      vertex 9.420443251729012 -3.3223943561315536 0
      vertex 9.46503921598196 -3.2724288031458855 2
      vertex 9.46503921598196 -3.2724288031458855 0
    endloop
  endfacet
  facet normal -0.6527597932186502 0.7575649492664935 0
    outer loop
      vertex 9.46503921598196 -3.2724288031458855 0
      vertex 9.515775464475155 -3.228711649775505 2
      vertex 9.515775464475155 -3.228711649775505 0
    endloop
  endfacet
  facet normal -0.5482931843679139 0.8362861854507062 0
    outer loop
      vertex 9.515775464475155 -3.228711649775505 0
      vertex 9.571783892810345 -3.1919909194111824 2
      vertex 9.571783892810345 -3.1919909194111824 0
    endloop
  endfacet
  facet normal -0.43444528793811166 0.9006982245948814 0
    outer loop
      vertex 9.571783892810345 -3.1919909194111824 0
      vertex 9.632106184959412 -3.1628948971629143 2
      vertex 9.632106184959412 -3.1628948971629143 0
    endloop
  endfacet
  facet normal -0.313163821100952 0.9496991213818464 0
    outer loop
      vertex 9.632106184959412 -3.1628948971629143 0
      vertex 9.695710197091103 -3.1419214382767677 2
      vertex 9.695710197091103 -3.1419214382767677 0
    endloop
  endfacet
  facet normal -0.18652405106505013 0.9824503948669788 0
    outer loop
      vertex 9.695710197091103 -3.1419214382767677 0
      vertex 9.761507652699947 -3.1294293999671936 2
      vertex 9.761507652699947 -3.1294293999671936 0
    endloop
  endfacet
  facet normal -0.05669268085203859 0.998391676616852 0
    outer loop
      vertex 9.761507652699947 -3.1294293999671936 0
      vertex 9.828372746706009 -3.125632531940937 2
      vertex 9.828372746706009 -3.125632531940937 0
    endloop
  endfacet
  facet normal 0.07410843011303557 0.9972501895643747 0
    outer loop
      vertex 9.828372746706009 -3.125632531940937 0
      vertex 9.895161382853985 -3.1305957809090614 2
      vertex 9.895161382853985 -3.1305957809090614 0
    endloop
  endfacet
  facet normal 0.20364174425897558 0.9790454739158759 0
    outer loop
      vertex 9.895161382853985 -3.1305957809090614 0
      vertex 9.96073080599308 -3.1442342400550842 2
      vertex 9.96073080599308 -3.1442342400550842 0
    endloop
  endfacet
  facet normal 0.3296906913507054 0.9440890042981616 0
    outer loop
      vertex 9.96073080599308 -3.1442342400550842 0
      vertex 10.023959092795849 -3.166314549744129 2
      vertex 10.023959092795849 -3.166314549744129 0
    endloop
  endfacet
  facet normal 0.4500984587686112 0.8929789344738883 0
    outer loop
      vertex 10.023959092795849 -3.166314549744129 0
      vertex 10.083764396607876 -3.1964589059352875 2
      vertex 10.083764396607876 -3.1964589059352875 0
    endloop
  endfacet
  facet normal 0.5628048823300134 0.8265897800151535 0
    outer loop
      vertex 10.083764396607876 -3.1964589059352875 0
      vertex 10.139123432338238 -3.234151527285576 2
      vertex 10.139123432338238 -3.234151527285576 0
    endloop
  endfacet
  facet normal 0.6658816923367779 0.7460573515559702 0
    outer loop
      vertex 10.189088985323906 -3.2787474915385246 0
      vertex 10.139123432338238 -3.234151527285576 0
      vertex 10.189088985323906 -3.2787474915385246 2
    endloop
  endfacet
  facet normal 0.9006982681266148 0.4344451976874835 0
    outer loop
      vertex 10.298622891306877 -3.445814460515976 0
      vertex 10.26952687650919 -3.385492168366909 0
      vertex 10.298622891306877 -3.445814460515976 2
    endloop
  endfacet
  facet normal 0.7575649492664935 0.6527597932186502 0
    outer loop
      vertex 10.189088985323906 -3.2787474915385246 0
      vertex 10.232806138694286 -3.329483740031719 2
      vertex 10.232806138694286 -3.329483740031719 0
    endloop
  endfacet
  facet normal 0.836286134440224 0.5482932621718304 0
    outer loop
      vertex 10.232806138694286 -3.329483740031719 0
      vertex 10.26952687650919 -3.385492168366909 2
      vertex 10.26952687650919 -3.385492168366909 0
    endloop
  endfacet
  facet normal 0.9457281227325375 0.32495894798080377 0
    outer loop
      vertex 11.9669883325696 -8.301258899271488 0
      vertex 10.298622891306877 -3.445814460515976 0
      vertex 11.9669883325696 -8.301258899271488 2
    endloop
  endfacet
  facet normal 0 0 1
    outer loop
      vertex 5.916382551193237 -8.644837193191051 2
      vertex 11.9669883325696 -8.301258899271488 2
      vertex 10.298622891306877 -3.445814460515976 2
    endloop
  endfacet
  facet normal -0.7460573515559702 0.6658816923367779 0
    outer loop
      vertex 9.420443251729012 -3.3223943561315536 0
      vertex 9.420443251729012 -3.3223943561315536 2
      vertex 9.46503921598196 -3.2724288031458855 2
    endloop
  endfacet
  facet normal -0.6527597932186502 0.7575649492664935 0
    outer loop
      vertex 9.46503921598196 -3.2724288031458855 0
      vertex 9.46503921598196 -3.2724288031458855 2
      vertex 9.515775464475155 -3.228711649775505 2
    endloop
  endfacet
  facet normal -0.5482931843679139 0.8362861854507062 0
    outer loop
      vertex 9.515775464475155 -3.228711649775505 0
      vertex 9.515775464475155 -3.228711649775505 2
      vertex 9.571783892810345 -3.1919909194111824 2
    endloop
  endfacet
  facet normal -0.43444528793811166 0.9006982245948814 0
    outer loop
      vertex 9.571783892810345 -3.1919909194111824 0
      vertex 9.571783892810345 -3.1919909194111824 2
      vertex 9.632106184959412 -3.1628948971629143 2
    endloop
  endfacet
  facet normal -0.313163821100952 0.9496991213818464 0
    outer loop
      vertex 9.632106184959412 -3.1628948971629143 0
      vertex 9.632106184959412 -3.1628948971629143 2
      vertex 9.695710197091103 -3.1419214382767677 2
    endloop
  endfacet
  facet normal -0.18652405106505013 0.9824503948669788 0
    outer loop
      vertex 9.695710197091103 -3.1419214382767677 0
      vertex 9.695710197091103 -3.1419214382767677 2
      vertex 9.761507652699947 -3.1294293999671936 2
    endloop
  endfacet
  facet normal -0.05669268085203859 0.998391676616852 0
    outer loop
      vertex 9.761507652699947 -3.1294293999671936 0
      vertex 9.761507652699947 -3.1294293999671936 2
      vertex 9.828372746706009 -3.125632531940937 2
    endloop
  endfacet
  facet normal 0.07410843011303557 0.9972501895643747 0
    outer loop
      vertex 9.828372746706009 -3.125632531940937 0
      vertex 9.828372746706009 -3.125632531940937 2
      vertex 9.895161382853985 -3.1305957809090614 2
    endloop
  endfacet
  facet normal 0.20364174425897558 0.9790454739158759 0
    outer loop
      vertex 9.895161382853985 -3.1305957809090614 0
      vertex 9.895161382853985 -3.1305957809090614 2
      vertex 9.96073080599308 -3.1442342400550842 2
    endloop
  endfacet
  facet normal 0.3296906913507054 0.9440890042981616 0
    outer loop
      vertex 9.96073080599308 -3.1442342400550842 0
      vertex 9.96073080599308 -3.1442342400550842 2
      vertex 10.023959092795849 -3.166314549744129 2
    endloop
  endfacet
  facet normal 0.4500984587686112 0.8929789344738883 0
    outer loop
      vertex 10.023959092795849 -3.166314549744129 0
      vertex 10.023959092795849 -3.166314549744129 2
      vertex 10.083764396607876 -3.1964589059352875 2
    endloop
  endfacet
  facet normal 0.5628048823300134 0.8265897800151535 0
    outer loop
      vertex 10.083764396607876 -3.1964589059352875 0
      vertex 10.083764396607876 -3.1964589059352875 2
      vertex 10.139123432338238 -3.234151527285576 2
    endloop
  endfacet
  facet normal 0.6658816923367779 0.7460573515559702 0
    outer loop
      vertex 10.139123432338238 -3.234151527285576 0
      vertex 10.139123432338238 -3.234151527285576 2
      vertex 10.189088985323906 -3.2787474915385246 2
    endloop
  endfacet
  facet normal 0.7575649492664935 0.6527597932186502 0
    outer loop
      vertex 10.189088985323906 -3.2787474915385246 0
      vertex 10.189088985323906 -3.2787474915385246 2
      vertex 10.232806138694286 -3.329483740031719 2
    endloop
  endfacet
  facet normal 0.836286134440224 0.5482932621718304 0
    outer loop
      vertex 10.232806138694286 -3.329483740031719 0
      vertex 10.232806138694286 -3.329483740031719 2
      vertex 10.26952687650919 -3.385492168366909 2
    endloop
  endfacet
  facet normal 0.9006982681266148 0.4344451976874835 0
    outer loop
      vertex 10.26952687650919 -3.385492168366909 0
      vertex 10.26952687650919 -3.385492168366909 2
      vertex 10.298622891306877 -3.445814460515976 2
    endloop
  endfacet
  facet normal 0 0 1
    outer loop
      vertex 9.420443251729012 -3.3223943561315536 2
      vertex 10.139123432338238 -3.234151527285576 2
      vertex 9.46503921598196 -3.2724288031458855 2
    endloop
  endfacet
  facet normal 0 0 1
    outer loop
      vertex 9.46503921598196 -3.2724288031458855 2
      vertex 10.083764396607876 -3.1964589059352875 2
      vertex 9.515775464475155 -3.228711649775505 2
    endloop
  endfacet
  facet normal 0 0 1
    outer loop
      vertex 9.515775464475155 -3.228711649775505 2
      vertex 10.023959092795849 -3.166314549744129 2
      vertex 9.571783892810345 -3.1919909194111824 2
    endloop
  endfacet
  facet normal 0 0 1
    outer loop
      vertex 9.571783892810345 -3.1919909194111824 2
      vertex 9.96073080599308 -3.1442342400550842 2
      vertex 9.632106184959412 -3.1628948971629143 2
    endloop
  endfacet
  facet normal 0 0 1
    outer loop
      vertex 9.632106184959412 -3.1628948971629143 2
      vertex 9.895161382853985 -3.1305957809090614 2
      vertex 9.695710197091103 -3.1419214382767677 2
    endloop
  endfacet
  facet normal 0 0 1
    outer loop
      vertex 9.695710197091103 -3.1419214382767677 2
      vertex 9.828372746706009 -3.125632531940937 2
      vertex 9.761507652699947 -3.1294293999671936 2
    endloop
  endfacet
  facet normal 0 0 1
    outer loop
      vertex 9.695710197091103 -3.1419214382767677 2
      vertex 9.895161382853985 -3.1305957809090614 2
      vertex 9.828372746706009 -3.125632531940937 2
    endloop
  endfacet
  facet normal 0 0 1
    outer loop
      vertex 9.632106184959412 -3.1628948971629143 2
      vertex 9.96073080599308 -3.1442342400550842 2
      vertex 9.895161382853985 -3.1305957809090614 2
    endloop
  endfacet
  facet normal 0 0 1
    outer loop
      vertex 9.46503921598196 -3.2724288031458855 2
      vertex 10.139123432338238 -3.234151527285576 2
      vertex 10.083764396607876 -3.1964589059352875 2
    endloop
  endfacet
  facet normal 0 0 1
    outer loop
      vertex 9.571783892810345 -3.1919909194111824 2
      vertex 10.023959092795849 -3.166314549744129 2
      vertex 9.96073080599308 -3.1442342400550842 2
    endloop
  endfacet
  facet normal 0 0 1
    outer loop
      vertex 9.515775464475155 -3.228711649775505 2
      vertex 10.083764396607876 -3.1964589059352875 2
      vertex 10.023959092795849 -3.166314549744129 2
    endloop
  endfacet
  facet normal 0 0 1
    outer loop
      vertex 9.420443251729012 -3.3223943561315536 2
      vertex 10.189088985323906 -3.2787474915385246 2
      vertex 10.139123432338238 -3.234151527285576 2
    endloop
  endfacet
  facet normal 0.9457281227325375 0.32495894798080377 2.703071650126595e-17
    outer loop
      vertex 11.9669883325696 -8.301258899271488 2
      vertex 10.298622891306877 -3.445814460515976 0
      vertex 10.298622891306877 -3.445814460515976 2
    endloop
  endfacet
endsolid OpenSCAD_Model
